<svg width="682" height="540" viewBox="0 0 682 540" fill="none" xmlns="http://www.w3.org/2000/svg">
<path d="M681.37 473.883H0V474.245H681.37V473.883Z" fill="#6366F1" fill-opacity="0.19"/>
<path d="M613.097 497.173H583.553V497.534H613.097V497.173Z" fill="#6366F1" fill-opacity="0.19"/>
<path d="M469.696 489.675H423.213V490.037H469.696V489.675Z" fill="#6366F1" fill-opacity="0.19"/>
<path d="M601.133 483.74H540.45V484.102H601.133V483.74Z" fill="#6366F1" fill-opacity="0.19"/>
<path d="M235.781 491.035H220.6V491.397H235.781V491.035Z" fill="#6366F1" fill-opacity="0.19"/>
<path d="M208.458 491.035H156.143V491.397H208.458V491.035Z" fill="#6366F1" fill-opacity="0.19"/>
<path d="M128.111 484.927H90.3633V485.289H128.111V484.927Z" fill="#6366F1" fill-opacity="0.19"/>
<path d="M322.97 409.329H59.8379C57.7766 409.325 55.8009 408.453 54.3446 406.903C52.8882 405.354 52.0703 403.254 52.0703 401.064V8.19237C52.0883 6.01549 52.9141 3.93404 54.3685 2.40013C55.8229 0.866217 57.7883 0.0037291 59.8379 0H322.97C325.033 0 327.012 0.870747 328.472 2.42069C329.931 3.97062 330.751 6.07279 330.751 8.26474V401.064C330.751 403.256 329.931 405.358 328.472 406.908C327.012 408.458 325.033 409.329 322.97 409.329ZM59.8379 0.289484C57.8669 0.293318 55.9779 1.12763 54.5855 2.60929C53.193 4.09096 52.411 6.0989 52.411 8.19237V401.064C52.411 403.158 53.193 405.165 54.5855 406.647C55.9779 408.129 57.8669 408.963 59.8379 408.967H322.97C324.942 408.963 326.832 408.129 328.227 406.648C329.621 405.167 330.407 403.159 330.41 401.064V8.19237C330.407 6.09757 329.621 4.08966 328.227 2.60841C326.832 1.12716 324.942 0.29331 322.97 0.289484H59.8379Z" fill="#6366F1" fill-opacity="0.19"/>
<path d="M617.745 409.329H354.6C352.537 409.325 350.56 408.453 349.101 406.904C347.643 405.355 346.822 403.255 346.818 401.064V8.19237C346.84 6.01417 347.669 3.93274 349.125 2.39922C350.582 0.865711 352.549 0.00368843 354.6 0H617.745C619.792 0.00753306 621.754 0.871704 623.206 2.40521C624.657 3.93871 625.481 6.01799 625.499 8.19237V401.064C625.499 403.251 624.683 405.349 623.229 406.898C621.776 408.447 619.804 409.321 617.745 409.329ZM354.6 0.289484C352.627 0.29331 350.737 1.12716 349.342 2.60841C347.948 4.08966 347.163 6.09757 347.159 8.19237V401.064C347.163 403.159 347.948 405.167 349.342 406.648C350.737 408.129 352.627 408.963 354.6 408.967H617.745C619.717 408.963 621.608 408.129 623.002 406.648C624.397 405.167 625.182 403.159 625.185 401.064V8.19237C625.182 6.09757 624.397 4.08966 623.002 2.60841C621.608 1.12716 619.717 0.29331 617.745 0.289484H354.6Z" fill="#6366F1" fill-opacity="0.19"/>
<path d="M294.448 211.149L295.061 192.13L284.077 188.309C283.605 181.863 282.62 175.472 281.134 169.203L290.455 161.966L284.132 144.105L272.603 145.089C269.869 139.334 266.678 133.838 263.064 128.661L269.032 118.08L256.768 104.171L246.465 109.772C241.833 105.566 236.883 101.771 231.666 98.4243L233.329 86.266L216.976 78.3921L209.481 87.7135C203.699 85.7489 197.773 84.2965 191.765 83.3712L189.04 71.459L171.079 70.8076L167.536 82.4883C161.473 82.9945 155.461 84.0354 149.561 85.6002L142.638 75.7578L125.822 82.4304L126.749 94.6755C121.334 97.6229 116.16 101.046 111.282 104.909L101.252 98.4243L88.1014 111.451L93.3752 122.451C89.4142 127.347 85.8579 132.597 82.7458 138.141L71.3124 136.318L63.8446 153.687L72.6752 161.633C70.8124 167.771 69.4447 174.065 68.5869 180.449L57.2353 183.474L56.6221 202.493L67.6603 206.315C68.1169 212.756 69.0971 219.144 70.5902 225.406L61.269 232.643L67.6058 250.519L79.1346 249.534C81.861 255.293 85.0527 260.79 88.6737 265.963L82.6913 276.543L94.956 290.453L105.258 284.851C109.879 289.056 114.82 292.847 120.03 296.185L118.313 308.328L134.666 316.217L142.202 306.895C147.984 308.878 153.909 310.354 159.918 311.31L162.643 323.222L180.604 323.874L184.147 312.193C190.214 311.681 196.23 310.64 202.136 309.081L208.949 318.923L225.765 312.251L224.893 300.006C230.298 297.04 235.471 293.618 240.36 289.773L250.268 296.112L263.418 283.085L258.144 272.085C262.106 267.19 265.663 261.941 268.774 256.395L280.207 258.219L287.675 240.85L278.844 232.889C280.738 226.756 282.129 220.461 283.001 214.073L294.448 211.149ZM173.45 272.765C159.397 272.261 145.801 267.342 134.381 258.629C122.961 249.916 114.231 237.802 109.294 223.818C104.358 209.834 103.436 194.61 106.647 180.07C109.858 165.531 117.057 152.329 127.333 142.135C137.609 131.942 150.501 125.214 164.377 122.804C178.254 120.394 192.491 122.409 205.289 128.594C218.087 134.779 228.871 144.857 236.275 157.553C243.68 170.249 247.373 184.992 246.888 199.917C246.241 219.92 238.142 238.831 224.37 252.492C210.598 266.153 192.283 273.445 173.45 272.765Z" fill="#6366F1" fill-opacity="0.19"/>
<path d="M600.968 148.244L605.479 143.772L603.694 139.994C605.056 138.301 606.282 136.491 607.36 134.581L611.312 135.203L613.86 129.211L610.835 126.475C611.486 124.357 611.965 122.182 612.266 119.976L616.149 118.949L616.34 112.377L612.552 111.075C612.385 108.849 612.048 106.642 611.543 104.474L614.746 101.942L612.565 95.79L608.6 96.1229C607.643 94.1389 606.536 92.2413 605.288 90.449L607.346 86.8305L603.108 82.0251L599.565 83.9502C597.969 82.507 596.264 81.2049 594.468 80.0566L595.041 75.8591L589.412 73.1235L586.823 76.3512C584.825 75.6902 582.778 75.2061 580.705 74.9038L579.737 70.7932L573.55 70.5471L572.31 74.5999C570.223 74.7693 568.153 75.1276 566.123 75.6709L563.752 72.2695L557.947 74.5709L558.274 78.7974C556.401 79.8032 554.613 80.98 552.932 82.3146L549.498 80.129L544.973 84.6015L546.731 88.2924C545.36 89.9803 544.129 91.7915 543.052 93.7057L539.114 93.0833L536.552 99.0756L539.591 101.826C538.961 103.941 538.505 106.111 538.228 108.31L534.33 109.338L534.14 115.909L537.942 117.212C538.097 119.438 538.43 121.646 538.937 123.812L535.72 126.33L537.901 132.482L541.88 132.164C542.836 134.148 543.944 136.045 545.191 137.837L543.134 141.456L547.372 146.261L550.915 144.336C552.508 145.784 554.213 147.087 556.012 148.23L555.426 152.413L561.067 155.148L563.657 151.935C565.657 152.589 567.703 153.073 569.775 153.383L570.743 157.493L576.93 157.739L578.17 153.687C580.257 153.518 582.327 153.16 584.357 152.616L586.728 156.017L592.533 153.716L592.22 149.489C594.088 148.482 595.871 147.305 597.548 145.972L600.968 148.244ZM568.781 120.555C567.591 119.201 566.805 117.502 566.525 115.674C566.244 113.845 566.48 111.969 567.203 110.284C567.926 108.598 569.104 107.178 570.587 106.203C572.07 105.228 573.792 104.742 575.535 104.807C577.278 104.872 578.964 105.484 580.379 106.567C581.795 107.649 582.876 109.154 583.486 110.889C584.096 112.625 584.208 114.513 583.808 116.316C583.407 118.119 582.512 119.756 581.236 121.018C580.389 121.867 579.392 122.528 578.303 122.964C577.213 123.401 576.053 123.603 574.89 123.56C573.727 123.517 572.583 123.229 571.525 122.713C570.467 122.198 569.515 121.464 568.726 120.555H568.781Z" fill="#6366F1" fill-opacity="0.19"/>
<path d="M436.077 343.529L421.986 333.18C420.605 327.791 418.705 322.567 416.317 317.592L419.928 302.538L399.487 279.293L385.097 282.086C380.582 279.214 375.801 276.842 370.829 275.009L362.08 259.362L332.1 258.276L322.37 273.243C317.302 274.709 312.389 276.722 307.706 279.25L293.534 275.414L271.648 297.125L274.278 312.381C271.576 317.186 269.348 322.274 267.628 327.564L252.897 336.857L251.875 368.7L265.979 379.034C267.338 384.452 269.233 389.702 271.635 394.695L267.983 409.618L288.424 432.864L302.719 430.085C307.267 432.961 312.08 435.337 317.082 437.177L325.817 452.795L355.798 453.895L365.514 438.928C370.627 437.462 375.586 435.444 380.313 432.907L394.404 436.728L416.303 415.017L413.673 399.761C416.384 394.956 418.613 389.862 420.323 384.563L435.055 375.271L436.077 343.529ZM342.797 391.858C336.142 391.617 329.703 389.284 324.295 385.156C318.887 381.028 314.754 375.29 312.416 368.667C310.079 362.043 309.643 354.833 311.164 347.946C312.685 341.06 316.094 334.807 320.96 329.979C325.826 325.15 331.931 321.962 338.503 320.819C345.075 319.675 351.818 320.627 357.881 323.554C363.944 326.48 369.053 331.251 372.563 337.262C376.073 343.272 377.827 350.254 377.601 357.323C377.289 366.804 373.447 375.766 366.919 382.241C360.391 388.716 351.71 392.175 342.783 391.858H342.797Z" fill="#6366F1" fill-opacity="0.19"/>
<path d="M468.17 253.298H468.074L444.472 252.444C443.994 252.434 443.525 252.297 443.111 252.044C442.696 251.791 442.349 251.43 442.101 250.996L435.736 239.634C432.306 238.301 428.988 236.665 425.816 234.742L415.636 236.609C415.162 236.701 414.673 236.665 414.216 236.503C413.758 236.341 413.347 236.059 413.02 235.683L396.898 217.358C396.56 216.979 396.32 216.513 396.2 216.006C396.081 215.499 396.087 214.968 396.217 214.464L398.793 203.738C397.197 200.263 395.893 196.645 394.895 192.926L384.634 185.399C384.236 185.109 383.913 184.717 383.697 184.259C383.48 183.801 383.376 183.292 383.394 182.78L384.198 157.71C384.214 157.204 384.346 156.71 384.584 156.271C384.821 155.832 385.157 155.461 385.56 155.192L396.285 148.432C397.522 144.798 399.059 141.286 400.878 137.939L398.997 127.04C398.909 126.534 398.943 126.012 399.095 125.524C399.248 125.036 399.514 124.596 399.869 124.246L417.121 107.138C417.478 106.777 417.916 106.52 418.393 106.391C418.871 106.261 419.371 106.264 419.847 106.4L429.986 109.15C433.25 107.454 436.647 106.064 440.138 104.996L447.224 94.0965C447.488 93.6636 447.855 93.3133 448.289 93.0817C448.723 92.8501 449.207 92.7458 449.691 92.7794L473.28 93.6478C473.76 93.6586 474.229 93.7967 474.646 94.0495C475.062 94.3023 475.413 94.6618 475.665 95.0952L482.029 106.472C485.435 107.8 488.726 109.437 491.868 111.364L502.17 109.352C502.644 109.259 503.133 109.295 503.591 109.457C504.049 109.619 504.46 109.902 504.787 110.279L520.908 128.603C521.244 128.984 521.483 129.45 521.602 129.956C521.721 130.463 521.717 130.993 521.589 131.498L519 142.252C520.596 145.72 521.909 149.328 522.925 153.035L533.172 160.562C533.57 160.852 533.893 161.244 534.11 161.702C534.326 162.16 534.431 162.669 534.413 163.182L533.609 188.236C533.592 188.744 533.46 189.241 533.222 189.682C532.985 190.123 532.65 190.497 532.246 190.769L521.521 197.529C520.276 201.155 518.739 204.661 516.929 208.008L518.809 218.922C518.897 219.425 518.863 219.945 518.711 220.431C518.558 220.917 518.292 221.354 517.937 221.701L500.576 238.824C500.218 239.183 499.78 239.438 499.302 239.565C498.825 239.692 498.325 239.686 497.85 239.547L487.766 236.812C484.48 238.5 481.066 239.889 477.559 240.966L470.541 251.85C470.288 252.28 469.939 252.637 469.526 252.889C469.112 253.142 468.646 253.282 468.17 253.298ZM446.243 246.393L466.684 247.132L473.498 236.725C473.875 236.117 474.454 235.683 475.12 235.509C478.955 234.395 482.675 232.877 486.226 230.979C486.845 230.662 487.549 230.585 488.216 230.761L497.755 233.352L512.745 218.516L511.028 208.051C510.895 207.32 511.022 206.563 511.382 205.924C513.406 202.34 515.073 198.541 516.356 194.591C516.573 193.874 517.028 193.267 517.637 192.883L527.899 186.427L528.594 164.716L518.782 157.479C518.265 157.104 517.878 156.56 517.678 155.93C517.678 155.858 517.678 155.771 517.678 155.684C516.628 151.683 515.204 147.804 513.426 144.105C513.111 143.442 513.034 142.681 513.208 141.963L515.661 131.715L501.693 115.793L491.895 117.704C491.211 117.836 490.505 117.702 489.905 117.328C486.525 115.173 482.945 113.393 479.222 112.016C479.008 111.943 478.802 111.846 478.608 111.726C478.216 111.466 477.888 111.108 477.654 110.684L471.508 99.7559L451.067 99.0033L444.254 109.439C443.847 110.051 443.248 110.487 442.564 110.669C438.769 111.771 435.088 113.279 431.58 115.171C430.962 115.506 430.249 115.588 429.577 115.402L419.929 112.797L404.939 127.633L406.737 138.011C406.844 138.666 406.753 139.339 406.478 139.936L406.342 140.182C404.315 143.78 402.648 147.593 401.368 151.559C401.143 152.239 400.699 152.813 400.114 153.18L389.853 159.65L389.158 181.361L398.983 188.598C399.544 189.005 399.949 189.611 400.128 190.306C401.15 194.371 402.57 198.31 404.366 202.059C404.463 202.273 404.541 202.496 404.598 202.725C404.701 203.201 404.701 203.696 404.598 204.172L402.145 214.304L416.113 230.226L425.843 228.33C426.523 228.198 427.225 228.331 427.819 228.706C431.226 230.856 434.828 232.636 438.571 234.018C439.246 234.231 439.818 234.714 440.165 235.364L446.243 246.393ZM458.876 218.936C458.372 218.936 457.867 218.936 457.363 218.936C446.035 218.724 435.244 213.768 427.339 205.147C419.434 196.527 415.054 184.938 415.154 172.904C415.254 160.871 419.824 149.366 427.871 140.894C435.918 132.422 446.789 127.669 458.119 127.669C469.45 127.669 480.321 132.422 488.368 140.894C496.415 149.366 500.985 160.871 501.085 172.904C501.185 184.938 496.806 196.527 488.9 205.147C480.995 213.768 470.204 218.724 458.876 218.936ZM458.876 133.408C448.976 133.59 439.545 137.917 432.635 145.449C425.725 152.981 421.896 163.107 421.981 173.622C422.066 184.138 426.059 194.193 433.091 201.597C440.122 209.001 449.622 213.155 459.523 213.155C469.424 213.155 478.924 209.001 485.956 201.597C492.987 194.193 496.98 184.138 497.065 173.622C497.151 163.107 493.321 152.981 486.411 145.449C479.501 137.917 470.07 133.59 460.17 133.408H458.876Z" fill="#6366F1" fill-opacity="0.19"/>
<path d="M522.53 72.8338L512.745 70.0548L510.129 59.6624L513.958 55.6096L517.992 64.4822L526.359 68.7811L522.53 72.8338Z" fill="#E0E0E0"/>
<path d="M523.129 65.8864C523.553 65.4369 523.888 64.9032 524.117 64.3159C524.346 63.7285 524.464 63.099 524.464 62.4633C524.464 61.8276 524.346 61.198 524.117 60.6107C523.888 60.0234 523.553 59.4897 523.129 59.0402C522.706 58.5906 522.204 58.234 521.651 57.9907C521.098 57.7475 520.505 57.6222 519.907 57.6222C519.308 57.6222 518.715 57.7475 518.162 57.9907C517.609 58.234 517.107 58.5906 516.684 59.0402L521.549 51.282L528.062 54.7848L529.493 62.0218L523.129 65.8864Z" fill="#E0E0E0"/>
<path d="M513.181 56.449L520.349 48.8356L530.106 51.6002L532.736 61.9782L525.568 69.5916L515.797 66.7981L513.181 56.449ZM526.195 62.6729C526.833 61.9946 527.267 61.1306 527.443 60.1902C527.619 59.2497 527.528 58.275 527.182 57.3893C526.837 56.5036 526.252 55.7466 525.501 55.214C524.75 54.6814 523.868 54.3972 522.965 54.3972C522.062 54.3972 521.18 54.6814 520.429 55.214C519.679 55.7466 519.094 56.5036 518.748 57.3893C518.402 58.275 518.312 59.2497 518.487 60.1902C518.663 61.1306 519.097 61.9946 519.735 62.6729C520.599 63.5724 521.761 64.0739 522.971 64.0685C524.18 64.0631 525.339 63.5512 526.195 62.644V62.6729Z" fill="#F0F0F0"/>
<path d="M122.946 349.855L128.193 348.349L129.597 342.777L127.552 340.606L125.386 345.368L120.889 347.669L122.946 349.855Z" fill="#E0E0E0"/>
<path d="M122.648 346.12C122.238 345.623 122.021 344.978 122.042 344.318C122.062 343.657 122.319 343.029 122.759 342.562C123.199 342.094 123.79 341.822 124.412 341.8C125.034 341.778 125.641 342.008 126.109 342.444L123.506 338.29L119.922 340.142L119.159 344.05L122.648 346.12Z" fill="#E0E0E0"/>
<path d="M127.961 341.04L124.118 336.958L118.872 338.405L117.509 343.978L121.284 348.103L126.53 346.656L127.961 341.04ZM120.984 344.383C120.731 344.148 120.527 343.861 120.383 343.538C120.239 343.216 120.159 342.866 120.148 342.509C120.137 342.153 120.195 341.798 120.318 341.466C120.442 341.134 120.628 340.833 120.865 340.581C121.103 340.329 121.386 340.131 121.699 340C122.011 339.869 122.345 339.807 122.681 339.819C123.016 339.831 123.346 339.916 123.65 340.069C123.953 340.221 124.224 340.439 124.445 340.707C124.855 341.204 125.072 341.849 125.051 342.509C125.031 343.17 124.774 343.798 124.334 344.265C123.894 344.733 123.303 345.005 122.681 345.027C122.059 345.049 121.452 344.819 120.984 344.383Z" fill="#F0F0F0"/>
<path d="M104.058 44.3776L108.419 49.0094C108.964 49.5786 109.698 49.8976 110.463 49.8976C111.228 49.8976 111.962 49.5786 112.507 49.0094C113.04 48.4283 113.338 47.6493 113.338 46.8382C113.338 46.0272 113.04 45.2482 112.507 44.6671L108.16 40.0499C107.613 39.484 106.88 39.1674 106.116 39.1674C105.352 39.1674 104.619 39.484 104.072 40.0499C103.538 40.6266 103.238 41.4021 103.235 42.2108C103.233 43.0195 103.528 43.7971 104.058 44.3776Z" fill="#F0F0F0"/>
<path d="M100.993 32.8708C102.13 32.5347 103.336 32.5589 104.461 32.9403C105.586 33.3218 106.582 34.044 107.326 35.0181C108.071 35.9923 108.531 37.1761 108.65 38.4241C108.77 39.6721 108.544 40.9301 108 42.0435C107.456 43.157 106.617 44.0774 105.587 44.6919C104.558 45.3063 103.381 45.588 102.203 45.5023C101.025 45.4166 99.8956 44.9673 98.9543 44.2096C98.013 43.4519 97.3005 42.4187 96.9044 41.2369C96.6528 40.4025 96.5592 39.5236 96.6287 38.6506C96.6983 37.7777 96.9297 36.928 97.3097 36.1504C97.6897 35.3728 98.2107 34.6828 98.8428 34.1199C99.4748 33.5571 100.205 33.1325 100.993 32.8708Z" fill="#E0E0E0"/>
<path d="M96.2507 40.462L96.8818 42.3282L109.835 37.3858L109.204 35.5196L96.2507 40.462Z" fill="#F0F0F0"/>
<path d="M340.685 539.249C486.61 539.249 604.907 531.913 604.907 522.864C604.907 513.815 486.61 506.479 340.685 506.479C194.759 506.479 76.4629 513.815 76.4629 522.864C76.4629 531.913 194.759 539.249 340.685 539.249Z" fill="#F5F5F5"/>
<path d="M175.357 168.739H175.112C168.98 166.206 165.314 163.746 163.406 160.779C161.913 161.079 160.368 160.856 159.004 160.142C157.407 159.312 156.083 157.99 155.202 156.35C154.74 156.727 154.195 156.974 153.618 157.067C153.042 157.161 152.452 157.098 151.905 156.885C150.225 156.218 148.792 154.995 147.816 153.397C147.206 153.88 146.447 154.102 145.69 154.019C141.602 153.672 136.151 145.103 135.756 135.984C135.752 135.792 135.818 135.605 135.939 135.462C136.061 135.32 136.229 135.232 136.41 135.217C136.5 135.213 136.589 135.228 136.673 135.261C136.757 135.294 136.834 135.344 136.9 135.409C136.966 135.473 137.019 135.551 137.057 135.637C137.094 135.724 137.115 135.817 137.119 135.912C137.5 144.597 142.72 152.311 145.813 152.572C146.038 152.599 146.266 152.578 146.483 152.511C146.701 152.444 146.904 152.332 147.08 152.181C146.015 150.117 145.345 147.849 145.111 145.509C144.877 143.168 145.084 140.802 145.718 138.546C146.89 134.204 147.925 132.496 149.179 132.757C151.523 133.379 151.21 142.889 149.969 149.098C149.781 150.218 149.393 151.289 148.825 152.253C149.628 153.684 150.841 154.805 152.286 155.452C152.671 155.608 153.09 155.643 153.494 155.553C153.897 155.463 154.268 155.252 154.562 154.946C153.499 152.152 153.199 148.331 154.725 143.468C156.633 137.055 157.451 136.882 157.873 136.766C158.032 136.731 158.197 136.741 158.351 136.797C158.504 136.854 158.641 136.953 158.745 137.084C160.013 138.604 158.5 148.562 156.919 153.484C156.734 154.076 156.478 154.64 156.156 155.163C156.887 156.728 158.079 157.998 159.549 158.781C160.514 159.279 161.587 159.494 162.657 159.404C162.534 159.129 162.425 158.854 162.316 158.564C161.239 155.452 161.771 151.877 163.938 147.593C165.368 144.77 166.54 143.439 167.631 143.439C167.92 143.443 168.202 143.535 168.444 143.704C168.685 143.873 168.876 144.113 168.993 144.394C170.179 146.724 169.32 154.41 166.976 158.231C166.428 159.107 165.664 159.808 164.769 160.258C166.595 162.805 170.07 165.048 175.671 167.335C175.755 167.368 175.832 167.417 175.897 167.482C175.963 167.546 176.016 167.624 176.053 167.71C176.089 167.796 176.11 167.89 176.112 167.984C176.114 168.079 176.099 168.173 176.066 168.262C176.013 168.413 175.915 168.541 175.787 168.627C175.659 168.713 175.508 168.753 175.357 168.739ZM167.617 144.9C167.617 144.9 166.84 144.9 165.123 148.302C163.147 152.181 162.643 155.38 163.583 158.072C163.697 158.405 163.834 158.729 163.992 159.042C164.73 158.718 165.358 158.162 165.791 157.45C167.699 154.352 168.612 147.983 167.903 145.494C167.808 144.987 167.617 144.9 167.617 144.9ZM157.832 138.807C157.095 140.455 156.484 142.163 156.006 143.916C154.961 146.954 154.781 150.251 155.489 153.397L155.611 153.02C157.042 148.433 157.805 143.639 157.873 138.807H157.832ZM148.866 134.247C148.634 134.465 147.966 135.376 147.026 138.908C145.914 142.872 146.265 147.136 148.007 150.835C148.287 150.188 148.493 149.507 148.62 148.808C150.078 141.702 149.67 135.275 148.906 134.247H148.866Z" fill="#271F4B" fill-opacity="0.7"/>
<path d="M227.169 244.613C224.99 244.635 222.846 244.041 220.955 242.89C220.799 242.791 220.687 242.631 220.641 242.444C220.595 242.257 220.62 242.059 220.71 241.892C220.755 241.81 220.814 241.739 220.886 241.682C220.957 241.625 221.038 241.584 221.124 241.561C221.211 241.538 221.3 241.534 221.388 241.549C221.476 241.563 221.561 241.596 221.636 241.646C226.501 244.671 232.784 242.557 234.078 240.343C234.172 240.204 234.238 240.047 234.273 239.88C234.308 239.713 234.311 239.541 234.283 239.373C231.795 239.525 229.331 238.78 227.292 237.26C223.817 234.958 223.544 234.264 223.571 233.714C223.578 233.556 223.625 233.402 223.706 233.27C223.788 233.138 223.901 233.031 224.035 232.961C225.397 232.237 231.543 235.233 234.105 237.028C234.413 237.245 234.696 237.497 234.95 237.781C235.957 237.538 236.864 236.96 237.54 236.131C237.92 235.657 238.194 235.098 238.344 234.495H238.071C235.891 234.727 233.71 233.728 231.38 231.441C229.772 229.878 229.159 228.793 229.363 227.939C229.425 227.699 229.55 227.482 229.724 227.316C229.898 227.149 230.113 227.039 230.344 226.998C232.225 226.491 236.885 228.604 238.78 230.819C239.202 231.3 239.502 231.888 239.652 232.527C241.437 231.644 243.318 229.632 245.539 226.346C245.59 226.268 245.656 226.201 245.732 226.15C245.808 226.099 245.893 226.065 245.982 226.048C246.07 226.032 246.161 226.035 246.249 226.056C246.337 226.078 246.42 226.117 246.493 226.173C246.639 226.286 246.737 226.455 246.768 226.644C246.798 226.833 246.758 227.028 246.656 227.186C244.081 231.007 241.928 233.178 239.774 234.061C239.663 235.131 239.25 236.14 238.589 236.956C237.804 237.925 236.772 238.634 235.618 238.997C235.683 239.342 235.683 239.698 235.617 240.043C235.552 240.389 235.422 240.717 235.236 241.009C234.092 243.078 230.794 244.613 227.169 244.613ZM225.956 234.568C226.42 234.93 227.074 235.407 228.014 236.015C229.479 237.065 231.163 237.721 232.92 237.926C230.726 236.529 228.39 235.402 225.956 234.568ZM230.712 228.416C231.104 229.199 231.647 229.885 232.307 230.428C234.323 232.411 236.163 233.323 237.935 233.091H238.371C238.274 232.642 238.067 232.227 237.771 231.89C235.863 229.603 231.666 228.185 230.712 228.416Z" fill="#271F4B" fill-opacity="0.7"/>
<path d="M245.212 242.63L223.98 246.726L204.697 134.957L163.733 142.86L96.959 268.785L104.127 310.34L189.775 293.825L195.635 327.81L236.599 319.878L230.739 285.893L251.971 281.797L245.212 242.63ZM137.759 263.429L173.191 197.47L183.071 254.701L137.759 263.429Z" fill="#312E81"/>
<path d="M416.222 127.372C415.578 120.346 414.113 113.432 411.862 106.79C409.546 100.427 406.329 94.4776 402.322 89.1461C397.58 82.9434 391.689 77.8398 385.016 74.1509C377.748 69.9148 368.109 66.9669 356.098 65.3072C331.16 61.8527 311.727 66.552 297.8 79.405C283.873 92.2581 274.697 116.864 270.273 153.223C268.506 166.812 268.05 180.556 268.91 194.243C269.819 206.787 271.99 216.885 275.424 224.537C279.794 234.856 286.688 243.743 295.388 250.272C303.992 256.689 315.802 260.93 330.819 262.995C357.511 266.691 377.302 261.244 390.194 246.654C403.086 232.064 411.625 207.41 415.814 172.691C417.675 157.658 417.813 142.44 416.222 127.372Z" fill="#312E81"/>
<path d="M343.097 248.13C339.813 248.014 336.283 247.696 332.726 247.204C320.244 245.481 310.595 242.123 304.027 237.231C297.477 232.318 292.297 225.617 289.037 217.836L288.969 217.677C286.352 211.887 284.635 203.564 283.886 193.071C283.092 180.466 283.512 167.807 285.139 155.293C290.004 115.171 300.048 98.4241 307.611 91.4476C316.442 83.3131 328.366 79.6367 344.037 80.2157C347.253 80.3315 350.66 80.6354 354.162 81.1131C364.219 82.5605 372.191 84.8763 377.833 88.1475C382.708 90.814 387.024 94.5019 390.52 98.9886C393.579 103.041 396.038 107.566 397.811 112.406C399.621 117.804 400.793 123.419 401.299 129.124C402.753 142.946 402.62 156.905 400.904 170.694C397.129 201.871 389.825 223.785 379.209 235.827C371.333 244.743 359.518 248.854 343.083 248.188L343.097 248.13Z" fill="#271F4B" fill-opacity="0.7"/>
<path d="M369.767 127.792L369.944 122.306L366.769 121.206C366.634 119.351 366.351 117.511 365.924 115.706L368.649 113.593L366.823 108.44L363.498 108.73C362.716 107.074 361.805 105.49 360.773 103.997L362.49 100.943L358.947 96.9333L355.976 98.5544C354.647 97.3405 353.224 96.2463 351.724 95.2832L352.201 91.7805L347.486 89.508L345.333 92.2002C343.666 91.6263 341.956 91.2003 340.223 90.9265L339.419 87.4961L334.24 87.308L333.218 90.666C331.472 90.8144 329.74 91.1145 328.04 91.5634L326.036 88.6685L321.185 90.5936L321.458 94.1253C319.899 94.9565 318.408 95.9248 317.001 97.0201L314.14 95.1819L310.351 98.9307L311.878 102.101C310.731 103.511 309.705 105.028 308.811 106.631L305.514 106.095L303.36 111.103L305.909 113.39C305.356 115.162 304.954 116.984 304.71 118.833L301.466 119.701L301.289 125.172L304.464 126.272C304.597 128.133 304.88 129.978 305.309 131.787L302.584 133.886L304.41 139.039L307.735 138.749C308.509 140.41 309.421 141.994 310.46 143.482L308.73 146.536L312.273 150.545L315.244 148.939C316.573 150.148 317.995 151.237 319.495 152.196L319.005 155.698L323.72 157.971L325.887 155.293C327.558 155.864 329.272 156.285 331.01 156.552L331.814 159.997L336.979 160.185L338.001 156.813C339.753 156.671 341.49 156.371 343.193 155.915L345.169 158.81L350.021 156.885L349.762 153.368C351.315 152.526 352.805 151.558 354.218 150.473L357.08 152.297L360.868 148.548L359.355 145.378C360.497 143.972 361.519 142.461 362.408 140.862L365.706 141.383L367.859 136.375L365.324 134.088C365.866 132.319 366.263 130.503 366.51 128.661L369.767 127.792ZM334.881 145.552C330.844 145.395 326.942 143.972 323.667 141.462C320.391 138.952 317.89 135.468 316.477 131.449C315.064 127.43 314.804 123.056 315.73 118.881C316.655 114.705 318.724 110.914 321.677 107.986C324.629 105.058 328.331 103.125 332.317 102.431C336.302 101.736 340.393 102.311 344.071 104.083C347.749 105.855 350.851 108.745 352.984 112.387C355.117 116.03 356.187 120.262 356.058 124.55C355.971 127.408 355.355 130.22 354.243 132.824C353.131 135.428 351.545 137.773 349.577 139.724C347.61 141.676 345.298 143.195 342.776 144.195C340.254 145.195 337.571 145.656 334.881 145.552Z" fill="#312E81"/>
<path opacity="0.3" d="M391.27 228.503L391.652 224.798L389.553 223.9C389.55 222.639 389.45 221.381 389.254 220.137L391.148 218.849L390.18 215.274H387.918C387.471 214.111 386.928 212.992 386.296 211.93L387.577 209.962L385.397 207.067L383.312 207.993C382.467 207.105 381.556 206.292 380.586 205.561L381.091 203.217L378.024 201.422L376.416 203.144C375.321 202.666 374.191 202.283 373.037 202.001L372.655 199.642L369.18 199.222L368.322 201.451C367.138 201.457 365.957 201.573 364.792 201.798L363.579 199.743L360.213 200.799V203.202C359.118 203.683 358.065 204.264 357.066 204.939L355.212 203.492L352.487 205.808L353.359 208.022C352.528 208.92 351.767 209.888 351.083 210.917L348.875 210.396L347.199 213.653L348.807 215.346C348.35 216.512 347.99 217.718 347.731 218.95L345.496 219.341L345.128 223.032L347.213 223.958C347.214 225.21 347.319 226.46 347.526 227.692L345.605 228.981L346.586 232.556H348.862C349.317 233.713 349.864 234.827 350.497 235.885L349.134 237.853L351.315 240.748L353.427 239.807C354.266 240.698 355.178 241.507 356.153 242.224L355.676 244.613L358.742 246.393L360.336 244.7C361.433 245.167 362.563 245.54 363.716 245.814L364.111 248.188L367.586 248.593L368.431 246.379C369.636 246.377 370.839 246.27 372.028 246.06L373.241 248.101L376.594 247.059V244.656C377.689 244.167 378.746 243.586 379.755 242.919L381.581 244.367L384.307 242.036L383.421 239.822C384.261 238.924 385.031 237.956 385.724 236.927L387.918 237.448L389.608 234.191L388 232.512C388.438 231.347 388.789 230.147 389.049 228.923L391.27 228.503ZM373.732 227.056C373.155 228.176 372.279 229.09 371.213 229.681C370.147 230.273 368.94 230.515 367.745 230.378C366.549 230.24 365.419 229.729 364.497 228.91C363.575 228.09 362.903 226.998 362.565 225.772C362.228 224.547 362.24 223.242 362.601 222.024C362.961 220.805 363.654 219.728 364.591 218.928C365.528 218.128 366.668 217.641 367.866 217.529C369.063 217.417 370.265 217.685 371.32 218.299C372.73 219.124 373.775 220.508 374.227 222.149C374.678 223.789 374.501 225.554 373.732 227.056Z" fill="#312E81"/>
<path d="M410.58 165.946L406.492 162.964C406.089 161.414 405.542 159.911 404.856 158.477L405.892 154.135L400.005 147.433L395.917 148.244C394.62 147.424 393.251 146.74 391.829 146.203L389.308 141.687L380.681 141.383L377.874 145.725C376.413 146.146 374.997 146.728 373.65 147.462L369.561 146.348L363.252 152.615L364.015 156.957C363.232 158.328 362.588 159.784 362.094 161.299L357.855 163.977L357.556 173.139L361.644 176.121C362.04 177.682 362.588 179.196 363.279 180.637L362.243 184.979L368.131 191.681L372.219 190.885C373.516 191.703 374.885 192.387 376.307 192.925L378.814 197.427L387.454 197.745L390.248 193.403C391.721 192.978 393.15 192.396 394.513 191.666L398.601 192.766L404.911 186.513L404.161 182.171C404.936 180.795 405.58 179.34 406.083 177.829L410.321 175.151L410.58 165.946ZM383.693 179.87C381.775 179.8 379.92 179.127 378.362 177.937C376.803 176.747 375.612 175.093 374.939 173.185C374.266 171.276 374.141 169.198 374.58 167.213C375.019 165.229 376.002 163.427 377.405 162.037C378.808 160.646 380.568 159.728 382.462 159.399C384.356 159.071 386.299 159.346 388.046 160.191C389.792 161.035 391.264 162.411 392.275 164.144C393.285 165.877 393.789 167.889 393.723 169.926C393.63 172.656 392.523 175.236 390.643 177.099C388.763 178.963 386.263 179.96 383.693 179.87Z" fill="#C9D4FE"/>
<path d="M440.166 92.808L440.875 90.9987C441.357 90.7103 441.813 90.376 442.238 90H443.818L445.672 87.1051L445.072 85.5564C445.302 85.0405 445.484 84.5026 445.617 83.9498L446.98 82.6182L446.408 79.2167L444.691 78.4641C444.421 77.9508 444.107 77.4661 443.75 77.0167V75.3377L441.093 73.3692L439.621 74.0205C439.083 73.8193 438.526 73.6833 437.959 73.6152L436.705 72.1678L433.516 72.7757L432.794 74.5995C432.288 74.8779 431.809 75.2075 431.363 75.5837H429.796L427.943 78.4785L428.542 80.0273C428.359 80.6007 428.231 81.1923 428.161 81.7931L426.798 83.1392L427.37 86.5262L429.087 87.2788C429.347 87.7947 429.658 88.2798 430.014 88.7262V90.3908L432.739 92.3592L434.198 91.7224C434.743 91.9106 435.304 92.0415 435.874 92.1132L437.127 93.5606L440.166 92.808ZM433.353 83.4287C433.224 82.6735 433.309 81.8946 433.597 81.1907C433.885 80.4868 434.363 79.8895 434.971 79.4743C435.579 79.0592 436.289 78.8448 437.011 78.8585C437.734 78.8721 438.436 79.1131 439.03 79.5509C439.623 79.9887 440.081 80.6037 440.345 81.3181C440.61 82.0324 440.668 82.814 440.514 83.5638C440.36 84.3137 440 84.9982 439.48 85.5307C438.959 86.0631 438.302 86.4197 437.591 86.5551C436.639 86.7325 435.66 86.5036 434.866 85.9181C434.072 85.3326 433.528 84.4379 433.353 83.4287Z" fill="#312E81"/>
<path d="M402.839 83.2117L401.79 82.2709C404.039 79.3085 406.818 76.8488 409.966 75.0338L410.607 76.3075C407.612 78.0392 404.972 80.3861 402.839 83.2117Z" fill="#312E81"/>
<path d="M413.714 74.976L413.183 73.6444C418.215 71.3216 423.718 70.3857 429.181 70.9232L429.045 72.3706C423.809 71.8465 418.534 72.7429 413.714 74.976Z" fill="#312E81"/>
<path d="M411.139 84.992L410.021 84.1815C413.304 79.4725 418.083 76.1866 423.472 74.9325L423.731 76.3799C418.695 77.548 414.224 80.6057 411.139 84.992Z" fill="#312E81"/>
<path d="M320.707 224.349C320.521 224.343 320.345 224.26 320.217 224.118L317.368 220.991C315.916 220.851 314.48 220.57 313.076 220.152L308.62 222.236C308.521 222.293 308.411 222.323 308.299 222.323C308.188 222.323 308.077 222.293 307.979 222.236L300.511 216.982C300.415 216.915 300.337 216.822 300.284 216.713C300.232 216.604 300.207 216.482 300.212 216.36V211.207C299.3 209.996 298.497 208.697 297.813 207.328L293.984 205.764C293.877 205.72 293.782 205.648 293.708 205.554C293.634 205.461 293.584 205.349 293.561 205.229L291.79 195.908C291.766 195.788 291.772 195.665 291.805 195.549C291.838 195.432 291.899 195.327 291.981 195.242L294.924 192.217C295.065 190.676 295.329 189.15 295.715 187.657L293.752 182.924C293.698 182.82 293.67 182.703 293.67 182.584C293.67 182.465 293.698 182.348 293.752 182.244L298.699 174.312C298.76 174.208 298.847 174.123 298.95 174.067C299.054 174.011 299.169 173.985 299.285 173.994L304.136 174.066C305.273 173.093 306.496 172.24 307.788 171.519L309.274 167.451C309.313 167.339 309.379 167.238 309.464 167.16C309.55 167.081 309.653 167.027 309.764 167.003L318.54 165.121C318.653 165.095 318.769 165.1 318.879 165.135C318.989 165.171 319.088 165.236 319.167 165.324L322.015 168.45C323.472 168.591 324.913 168.872 326.322 169.29L330.764 167.205C330.865 167.148 330.977 167.118 331.091 167.118C331.205 167.118 331.318 167.148 331.418 167.205L338.873 172.459C338.967 172.53 339.045 172.623 339.099 172.731C339.154 172.839 339.183 172.959 339.186 173.082L339.104 178.235C340.02 179.445 340.827 180.744 341.516 182.114L345.332 183.691C345.438 183.733 345.533 183.803 345.607 183.894C345.68 183.985 345.731 184.095 345.754 184.212L347.54 193.534C347.561 193.653 347.554 193.776 347.521 193.892C347.488 194.007 347.429 194.113 347.349 194.2L344.392 197.239C344.255 198.776 343.991 200.297 343.601 201.784L345.564 206.517C345.617 206.624 345.645 206.743 345.645 206.864C345.645 206.986 345.617 207.105 345.564 207.212L340.685 215.071C340.621 215.17 340.535 215.25 340.436 215.305C340.336 215.361 340.225 215.39 340.113 215.39L335.248 215.317C334.107 216.277 332.889 217.13 331.609 217.865L330.124 221.932C330.083 222.047 330.016 222.148 329.927 222.227C329.839 222.306 329.733 222.359 329.62 222.381L320.843 224.349H320.707ZM313.035 218.56C313.098 218.546 313.163 218.546 313.226 218.56C314.697 219.015 316.209 219.311 317.736 219.443C317.9 219.463 318.053 219.539 318.172 219.66L320.898 222.699L328.938 220.977L330.383 217.011C330.45 216.851 330.565 216.718 330.71 216.635C332.071 215.887 333.354 214.989 334.539 213.957C334.664 213.845 334.825 213.788 334.989 213.798L339.717 213.87L344.242 206.633L342.334 202.03C342.28 201.871 342.28 201.697 342.334 201.538C342.755 199.973 343.034 198.369 343.165 196.747C343.179 196.572 343.252 196.407 343.37 196.284L346.231 193.389L344.61 184.849L340.889 183.315C340.73 183.253 340.598 183.129 340.521 182.968C339.814 181.524 338.97 180.161 338 178.9C337.903 178.768 337.85 178.605 337.85 178.437V173.4L331.037 168.595L326.717 170.621C326.563 170.68 326.394 170.68 326.24 170.621C324.763 170.168 323.248 169.872 321.716 169.738C321.552 169.718 321.399 169.642 321.28 169.521L318.554 166.482L310.514 168.219L309.083 172.242C309.026 172.408 308.915 172.547 308.77 172.633C307.403 173.379 306.115 174.276 304.927 175.311C304.868 175.367 304.799 175.411 304.724 175.438C304.649 175.465 304.57 175.476 304.491 175.47L299.762 175.398L295.224 182.635L297.132 187.238C297.175 187.335 297.198 187.441 297.198 187.549C297.198 187.656 297.175 187.763 297.132 187.86C296.728 189.388 296.463 190.953 296.341 192.535C296.329 192.711 296.256 192.875 296.137 192.998L293.275 195.893L294.911 204.433L298.617 205.967C298.783 206.04 298.918 206.174 298.999 206.343C299.701 207.778 300.542 209.131 301.506 210.382C301.607 210.512 301.661 210.676 301.656 210.845V215.882L308.47 220.687L312.803 218.661C312.874 218.613 312.953 218.578 313.035 218.56ZM319.726 213.87C316.446 213.867 313.228 212.92 310.414 211.129C307.6 209.339 305.296 206.772 303.746 203.702C302.195 200.632 301.457 197.173 301.61 193.692C301.763 190.212 302.801 186.841 304.613 183.937C306.347 181.152 308.731 178.891 311.534 177.378C314.336 175.864 317.46 175.149 320.601 175.302C323.742 175.455 326.791 176.472 329.451 178.252C332.111 180.032 334.29 182.515 335.776 185.458C337.262 188.4 338.003 191.702 337.928 195.041C337.852 198.379 336.962 201.639 335.344 204.503C333.727 207.366 331.437 209.735 328.699 211.377C325.962 213.018 322.87 213.878 319.726 213.87ZM305.758 184.734C303.924 187.673 302.951 191.124 302.963 194.651C302.976 198.177 303.972 201.621 305.827 204.546C307.681 207.471 310.311 209.746 313.383 211.084C316.455 212.422 319.831 212.762 323.086 212.062C326.34 211.362 329.325 209.653 331.665 207.15C334.005 204.648 335.593 201.465 336.23 198.004C336.866 194.543 336.522 190.959 335.242 187.706C333.961 184.452 331.8 181.675 329.034 179.725C327.199 178.421 325.139 177.516 322.973 177.061C320.807 176.607 318.577 176.613 316.413 177.078C314.249 177.544 312.194 178.46 310.365 179.774C308.536 181.088 306.97 182.773 305.758 184.734Z" fill="white"/>
<path d="M580.296 255.685L558.901 252.617L573.046 139.994L531.782 134.088L431.689 231.962L426.429 273.836L512.677 286.197L508.37 320.457L549.634 326.363L553.94 292.117L575.335 295.185L580.296 255.685ZM472.067 240.169L524.887 189.032L517.637 246.697L472.067 240.169Z" fill="#312E81"/>
<path d="M537.098 325.292H536.921C536.744 325.257 536.588 325.149 536.486 324.991C536.384 324.834 536.344 324.64 536.376 324.452L568.264 139.27C568.3 139.084 568.403 138.92 568.55 138.812C568.697 138.704 568.878 138.661 569.055 138.691C569.231 138.726 569.388 138.834 569.49 138.991C569.592 139.149 569.631 139.343 569.6 139.531L537.78 324.698C537.748 324.866 537.663 325.016 537.539 325.124C537.415 325.233 537.259 325.292 537.098 325.292Z" fill="#271F4B" fill-opacity="0.7"/>
<path d="M565.306 142.382C565.295 142.696 565.167 142.994 564.95 143.208C564.733 143.423 564.444 143.537 564.148 143.525C563.851 143.514 563.571 143.378 563.369 143.147C563.168 142.916 563.06 142.61 563.071 142.295C563.082 141.98 563.21 141.683 563.427 141.468C563.644 141.254 563.933 141.14 564.229 141.151C564.526 141.163 564.806 141.299 565.008 141.53C565.209 141.76 565.317 142.067 565.306 142.382Z" fill="#271F4B" fill-opacity="0.7"/>
<path d="M560.767 167.422C560.759 167.657 560.686 167.883 560.556 168.073C560.427 168.263 560.247 168.409 560.04 168.49C559.833 168.572 559.607 168.587 559.393 168.533C559.178 168.478 558.983 168.358 558.832 168.186C558.682 168.014 558.583 167.799 558.547 167.567C558.512 167.335 558.543 167.098 558.634 166.884C558.726 166.671 558.876 166.491 559.064 166.368C559.252 166.245 559.47 166.183 559.691 166.192C559.838 166.197 559.982 166.234 560.115 166.298C560.249 166.363 560.369 166.456 560.469 166.57C560.569 166.684 560.647 166.818 560.698 166.964C560.749 167.111 560.773 167.266 560.767 167.422Z" fill="#271F4B" fill-opacity="0.7"/>
<path d="M556.23 192.506C556.225 192.662 556.19 192.815 556.129 192.957C556.068 193.099 555.981 193.226 555.874 193.333C555.766 193.439 555.64 193.521 555.502 193.576C555.365 193.63 555.218 193.655 555.071 193.649C554.925 193.646 554.781 193.611 554.648 193.548C554.514 193.484 554.394 193.394 554.294 193.28C554.194 193.167 554.116 193.034 554.064 192.889C554.013 192.743 553.989 192.589 553.995 192.433C553.998 192.276 554.031 192.122 554.092 191.978C554.152 191.834 554.238 191.705 554.346 191.597C554.454 191.49 554.581 191.406 554.719 191.35C554.858 191.295 555.005 191.27 555.153 191.276C555.448 191.291 555.726 191.428 555.928 191.658C556.129 191.888 556.237 192.192 556.23 192.506Z" fill="#271F4B" fill-opacity="0.7"/>
<path d="M547.29 218.559C547.259 218.85 547.129 219.118 546.924 219.313C546.719 219.508 546.454 219.615 546.179 219.615C545.904 219.615 545.639 219.508 545.434 219.313C545.229 219.118 545.099 218.85 545.068 218.559C545.051 218.393 545.067 218.225 545.115 218.066C545.163 217.908 545.242 217.761 545.346 217.637C545.451 217.512 545.58 217.413 545.723 217.345C545.866 217.277 546.022 217.242 546.179 217.242C546.336 217.242 546.491 217.277 546.635 217.345C546.778 217.413 546.907 217.512 547.012 217.637C547.116 217.761 547.195 217.908 547.243 218.066C547.291 218.225 547.307 218.393 547.29 218.559Z" fill="#271F4B" fill-opacity="0.7"/>
<path d="M547.14 242.543C547.137 242.7 547.104 242.854 547.044 242.996C546.983 243.139 546.896 243.268 546.788 243.374C546.68 243.481 546.553 243.563 546.415 243.617C546.277 243.671 546.129 243.694 545.982 243.686C545.761 243.678 545.548 243.6 545.369 243.462C545.19 243.325 545.053 243.134 544.976 242.914C544.899 242.694 544.885 242.455 544.936 242.226C544.987 241.998 545.101 241.791 545.263 241.631C545.425 241.471 545.628 241.366 545.846 241.329C546.064 241.291 546.288 241.323 546.488 241.421C546.689 241.519 546.859 241.677 546.975 241.877C547.091 242.077 547.148 242.308 547.14 242.543Z" fill="#271F4B" fill-opacity="0.7"/>
<path d="M542.603 267.584C542.597 267.819 542.526 268.047 542.398 268.239C542.27 268.431 542.091 268.579 541.884 268.663C541.677 268.747 541.452 268.763 541.236 268.711C541.02 268.658 540.823 268.538 540.672 268.367C540.52 268.196 540.419 267.98 540.383 267.748C540.347 267.516 540.377 267.278 540.468 267.063C540.56 266.849 540.709 266.668 540.898 266.545C541.086 266.421 541.305 266.359 541.526 266.368C541.82 266.379 542.098 266.513 542.3 266.741C542.501 266.968 542.61 267.271 542.603 267.584Z" fill="#271F4B" fill-opacity="0.7"/>
<path d="M538.066 292.624C538.055 292.94 537.927 293.239 537.711 293.455C537.494 293.672 537.205 293.789 536.907 293.782C536.761 293.776 536.616 293.74 536.483 293.675C536.349 293.61 536.229 293.518 536.129 293.403C536.029 293.289 535.951 293.155 535.9 293.009C535.849 292.863 535.825 292.707 535.831 292.551C535.835 292.395 535.869 292.242 535.929 292.1C535.989 291.958 536.075 291.829 536.182 291.723C536.289 291.616 536.415 291.532 536.552 291.477C536.689 291.422 536.836 291.396 536.982 291.401C537.129 291.405 537.274 291.441 537.407 291.505C537.541 291.569 537.662 291.66 537.763 291.774C537.863 291.887 537.942 292.021 537.994 292.167C538.046 292.312 538.07 292.468 538.066 292.624Z" fill="#271F4B" fill-opacity="0.7"/>
<path d="M533.513 317.678C533.505 317.913 533.432 318.14 533.302 318.33C533.173 318.52 532.993 318.665 532.786 318.747C532.579 318.828 532.354 318.843 532.139 318.789C531.924 318.735 531.729 318.614 531.578 318.442C531.428 318.27 531.329 318.055 531.294 317.823C531.258 317.592 531.289 317.354 531.381 317.141C531.472 316.927 531.622 316.747 531.81 316.624C531.998 316.501 532.216 316.44 532.437 316.448C532.584 316.452 532.729 316.487 532.864 316.551C532.998 316.615 533.119 316.707 533.219 316.822C533.32 316.937 533.398 317.072 533.448 317.219C533.498 317.366 533.521 317.522 533.513 317.678Z" fill="#271F4B" fill-opacity="0.7"/>
<path d="M546.173 219.211C546.02 219.211 545.871 219.155 545.752 219.052C545.633 218.949 545.55 218.806 545.519 218.647C545.499 218.553 545.497 218.457 545.512 218.363C545.527 218.269 545.56 218.178 545.608 218.098C545.656 218.017 545.719 217.947 545.792 217.892C545.866 217.837 545.949 217.799 546.037 217.778L549.417 217.011C549.505 216.99 549.597 216.988 549.686 217.005C549.776 217.022 549.861 217.058 549.937 217.11C550.014 217.163 550.079 217.231 550.13 217.311C550.181 217.391 550.216 217.481 550.234 217.575C550.252 217.669 550.253 217.765 550.236 217.858C550.219 217.951 550.184 218.04 550.135 218.119C550.086 218.199 550.022 218.267 549.948 218.32C549.874 218.373 549.79 218.41 549.703 218.429L546.323 219.197L546.173 219.211Z" fill="#271F4B" fill-opacity="0.7"/>
<path d="M557.47 205.88C555.863 210.308 554.498 214.832 553.382 219.428C552.36 224.537 552.306 235.972 552.306 235.972" fill="#271F4B" fill-opacity="0.7"/>
<path d="M552.305 236.696C552.125 236.688 551.953 236.608 551.827 236.47C551.7 236.333 551.627 236.15 551.624 235.957C551.624 235.494 551.706 224.378 552.728 219.283C553.837 214.647 555.202 210.085 556.816 205.62C556.843 205.524 556.889 205.436 556.95 205.36C557.01 205.285 557.085 205.223 557.17 205.179C557.254 205.136 557.346 205.111 557.439 205.107C557.533 205.103 557.627 205.119 557.714 205.155C557.801 205.191 557.881 205.246 557.947 205.316C558.014 205.386 558.066 205.47 558.101 205.562C558.136 205.655 558.152 205.754 558.149 205.853C558.146 205.953 558.124 206.051 558.083 206.141C556.477 210.535 555.112 215.025 553.995 219.587C553 224.566 552.932 235.856 552.919 235.972C552.919 236.152 552.857 236.326 552.744 236.46C552.63 236.593 552.474 236.678 552.305 236.696Z" fill="#271F4B" fill-opacity="0.7"/>
<path d="M303.141 361.622C305.035 329.2 301.56 270.247 358.945 278.063C420.445 286.414 402.852 362.809 402.852 362.809L303.141 361.622Z" fill="#271F4B" fill-opacity="0.7"/>
<path d="M342.741 342.14C356.575 342.14 367.789 330.229 367.789 315.536C367.789 300.844 356.575 288.933 342.741 288.933C328.908 288.933 317.694 300.844 317.694 315.536C317.694 330.229 328.908 342.14 342.741 342.14Z" fill="white"/>
<path d="M346.041 288.976C334.171 286.834 321.511 296.112 320.244 305.52L367.272 310.123C365.61 299.398 355.444 290.684 346.041 288.976Z" fill="#271F4B" fill-opacity="0.7"/>
<path d="M361.916 314.87C361.575 321.833 358.005 327.289 353.944 327.058C349.883 326.826 346.858 321.022 347.13 314.031C347.403 307.04 351.041 301.612 355.102 301.844C359.163 302.075 362.243 307.923 361.916 314.87Z" fill="#271F4B" fill-opacity="0.7"/>
<path d="M342.743 343.587C337.52 343.587 332.413 341.942 328.07 338.86C323.727 335.778 320.342 331.397 318.343 326.271C316.344 321.145 315.821 315.505 316.84 310.064C317.86 304.623 320.375 299.624 324.068 295.701C327.762 291.778 332.468 289.107 337.591 288.025C342.714 286.942 348.024 287.498 352.85 289.621C357.675 291.744 361.8 295.339 364.702 299.952C367.604 304.565 369.153 309.989 369.153 315.536C369.146 322.974 366.361 330.104 361.41 335.363C356.458 340.622 349.745 343.58 342.743 343.587ZM342.743 290.395C338.058 290.395 333.478 291.871 329.583 294.635C325.688 297.4 322.652 301.33 320.86 305.927C319.068 310.525 318.6 315.584 319.515 320.464C320.43 325.344 322.687 329.826 326 333.344C329.314 336.862 333.535 339.256 338.131 340.225C342.726 341.194 347.488 340.694 351.816 338.788C356.144 336.882 359.842 333.655 362.442 329.516C365.043 325.378 366.43 320.512 366.427 315.536C366.42 308.868 363.922 302.476 359.482 297.762C355.041 293.048 349.021 290.399 342.743 290.395Z" fill="#312E81"/>
<path opacity="0.3" d="M395.862 360.812H395.699C395.611 360.791 395.529 360.752 395.455 360.697C395.382 360.642 395.32 360.572 395.273 360.491C395.226 360.41 395.195 360.32 395.182 360.226C395.168 360.132 395.173 360.035 395.195 359.943C395.195 359.755 399.583 340.128 395.072 320.284C395.029 320.092 395.059 319.89 395.156 319.721C395.253 319.553 395.409 319.433 395.59 319.387C395.771 319.341 395.961 319.373 396.12 319.476C396.278 319.579 396.391 319.745 396.435 319.937C401.027 340.201 396.598 360.088 396.557 360.276C396.517 360.437 396.426 360.577 396.299 360.675C396.173 360.772 396.019 360.821 395.862 360.812Z" fill="white"/>
<path opacity="0.3" d="M392.06 309.399C391.93 309.398 391.802 309.358 391.691 309.284C391.58 309.209 391.491 309.104 391.433 308.98C389.74 305.003 387.569 301.277 384.974 297.892C384.861 297.744 384.808 297.555 384.826 297.365C384.844 297.175 384.931 297.001 385.069 296.879C385.139 296.818 385.219 296.771 385.306 296.743C385.392 296.715 385.483 296.705 385.573 296.714C385.663 296.724 385.751 296.752 385.83 296.798C385.91 296.844 385.98 296.906 386.037 296.981C388.696 300.463 390.926 304.291 392.674 308.372C392.712 308.457 392.735 308.55 392.739 308.644C392.744 308.739 392.73 308.834 392.7 308.923C392.669 309.012 392.622 309.093 392.562 309.163C392.501 309.232 392.428 309.288 392.347 309.327C392.257 309.371 392.159 309.396 392.06 309.399Z" fill="white"/>
<path d="M175.425 513.716H174.921C173.113 513.663 171.4 512.849 170.158 511.453C168.916 510.058 168.247 508.196 168.298 506.277C168.348 504.357 169.115 502.538 170.428 501.219C171.742 499.899 173.495 499.188 175.302 499.242H175.425C179.363 499.242 188.834 494.162 208.648 460.987C209.174 460.106 209.873 459.356 210.698 458.789C211.522 458.222 212.452 457.85 213.424 457.7C214.396 457.551 215.387 457.626 216.329 457.921C217.271 458.216 218.142 458.723 218.883 459.409C234.443 473.617 251.414 485.983 269.495 496.289C270.331 496.694 271.083 497.274 271.703 497.994C272.323 498.715 272.8 499.561 273.104 500.483C273.408 501.404 273.533 502.381 273.473 503.355C273.412 504.33 273.166 505.281 272.75 506.151C272.334 507.022 271.757 507.794 271.053 508.422C270.348 509.049 269.532 509.519 268.652 509.802C267.773 510.086 266.848 510.177 265.934 510.072C265.021 509.966 264.136 509.664 263.335 509.186C246.531 499.702 230.646 488.483 215.912 475.693C199.3 502.253 186.981 513.716 175.425 513.716Z" fill="#271F4B" fill-opacity="0.7"/>
<path d="M217.589 458.107H217.003C215.932 457.942 214.966 457.333 214.317 456.413C213.669 455.493 213.39 454.338 213.541 453.2C214.509 445.963 213.31 418.998 204.711 398.01C204.33 397.083 204.265 396.043 204.529 395.07C204.793 394.098 205.368 393.253 206.155 392.683C224.825 379.179 264.59 377.558 266.28 377.5C266.816 377.481 267.352 377.575 267.854 377.775C268.357 377.976 268.818 378.28 269.21 378.67C269.603 379.059 269.919 379.527 270.141 380.047C270.363 380.566 270.486 381.127 270.504 381.698C270.522 382.268 270.434 382.836 270.245 383.37C270.056 383.904 269.77 384.394 269.403 384.81C269.036 385.227 268.595 385.563 268.106 385.799C267.617 386.034 267.089 386.166 266.552 386.185C266.184 386.185 231.421 387.632 213.569 398.053C221.173 418.954 222.904 444.993 221.636 454.416C221.489 455.444 221 456.382 220.257 457.059C219.515 457.736 218.568 458.108 217.589 458.107Z" fill="#271F4B" fill-opacity="0.7"/>
<path d="M224.457 452.491C221.731 445.673 209.466 446.44 202.285 452.288C198.442 455.4 193.236 464.794 192.746 468.21C192.582 469.021 192.606 469.863 192.817 470.662C193.027 471.462 193.417 472.195 193.954 472.798C194.49 473.402 195.156 473.859 195.895 474.128C196.634 474.398 197.424 474.473 198.197 474.347C202.898 473.912 209.344 466.661 209.344 466.661C205.051 471.133 210.597 474.289 218.883 467.819C223.407 464.215 227.495 460.118 224.457 452.491Z" fill="#312E81"/>
<path d="M458.849 363.533C458.786 363.548 458.721 363.548 458.658 363.533C458.571 363.508 458.49 363.465 458.419 363.406C458.348 363.347 458.29 363.273 458.246 363.189C458.203 363.105 458.176 363.013 458.167 362.918C458.158 362.823 458.168 362.727 458.195 362.636C460.007 355.92 461.983 351.823 464.586 349.609C464.178 348.052 464.255 346.397 464.804 344.89C465.439 343.131 466.56 341.618 468.02 340.548C467.623 340.093 467.341 339.538 467.201 338.935C467.06 338.333 467.066 337.703 467.216 337.103C467.71 335.29 468.73 333.689 470.132 332.529C469.627 331.929 469.35 331.149 469.356 330.344C469.356 326.001 476.864 319.459 485.381 318.214C485.562 318.188 485.746 318.238 485.891 318.355C486.037 318.471 486.133 318.645 486.158 318.837C486.184 319.029 486.136 319.223 486.026 319.378C485.916 319.533 485.753 319.635 485.572 319.662C477.478 320.834 470.691 327.058 470.718 330.344C470.716 330.834 470.891 331.306 471.209 331.661C473.042 330.341 475.104 329.421 477.276 328.956C479.447 328.492 481.684 328.491 483.855 328.954C488.039 329.808 489.742 330.749 489.551 332.095C489.17 334.628 480.271 335.164 474.302 334.411C473.233 334.308 472.192 333.988 471.236 333.47C469.951 334.442 468.995 335.827 468.511 337.422C468.394 337.843 468.395 338.292 468.513 338.714C468.632 339.135 468.863 339.511 469.178 339.795C471.713 338.348 475.27 337.827 479.971 338.927C486.145 340.374 486.376 341.17 486.526 341.648C486.574 341.817 486.578 341.996 486.537 342.167C486.496 342.338 486.412 342.494 486.294 342.618C485 344.065 475.529 343.385 470.773 342.14C470.199 342.001 469.644 341.782 469.124 341.489C467.716 342.397 466.633 343.777 466.044 345.411C465.651 346.469 465.542 347.621 465.731 348.74C465.973 348.586 466.223 348.446 466.48 348.321C469.301 346.873 472.708 347.134 476.919 349.044C479.644 350.304 481.007 351.433 481.143 352.576C481.149 352.869 481.08 353.159 480.943 353.414C480.807 353.669 480.607 353.879 480.367 354.023C478.282 355.471 471.005 355.268 467.216 353.126C466.345 352.623 465.619 351.878 465.117 350.969C462.896 353.14 461.097 357.005 459.462 363.07C459.413 363.201 459.328 363.315 459.22 363.397C459.111 363.479 458.982 363.526 458.849 363.533ZM466.235 350.029C466.614 350.777 467.192 351.391 467.897 351.794C470.977 353.531 477.028 353.922 479.29 352.952C479.753 352.75 479.821 352.59 479.821 352.59C479.821 352.59 479.753 351.78 476.415 350.26C472.599 348.523 469.601 348.277 467.107 349.507C466.806 349.661 466.515 349.835 466.235 350.029ZM470.787 340.519L471.127 340.62C475.565 341.707 480.132 342.073 484.673 341.706C483.062 341.071 481.402 340.587 479.712 340.258C476.777 339.414 473.673 339.505 470.787 340.519ZM472.504 332.385C473.133 332.624 473.787 332.78 474.452 332.848C481.266 333.702 487.248 332.703 488.08 331.791C487.848 331.574 486.935 330.952 483.555 330.271C479.752 329.466 475.803 330.221 472.504 332.385Z" fill="#271F4B" fill-opacity="0.7"/>
<path d="M281.447 511.299C282.347 510.995 282.047 510.069 281.039 510.069H262.587C227.456 506.117 202.913 511.415 218.38 512.66C233.847 513.905 217.29 513.644 205.992 518.189C194.695 522.734 290.005 523.877 298.659 518.189C306.617 512.949 268.992 515.54 281.447 511.299Z" fill="#271F4B" fill-opacity="0.7"/>
<path d="M413.551 517.075L253.02 511.415L246.356 346.091L435.927 350.593L413.551 517.075Z" fill="#312E81"/>
<path d="M303.142 513.905C302.97 513.905 302.805 513.837 302.678 513.714C302.552 513.59 302.474 513.421 302.46 513.239L289.596 347.191C289.585 347 289.644 346.812 289.761 346.666C289.878 346.52 290.043 346.428 290.223 346.41C290.402 346.401 290.578 346.465 290.714 346.589C290.851 346.712 290.938 346.886 290.959 347.076L303.891 513.123C303.899 513.218 303.888 513.314 303.861 513.405C303.833 513.496 303.789 513.58 303.731 513.652C303.673 513.725 303.601 513.785 303.521 513.828C303.441 513.871 303.354 513.897 303.264 513.905H303.142Z" fill="#271F4B" fill-opacity="0.7"/>
<path d="M413.551 517.074L456.695 510.098L470.282 356.368L435.927 350.593L413.551 517.074Z" fill="#312E81"/>
<path opacity="0.2" d="M413.551 517.074L456.695 510.098L470.282 356.368L435.927 350.593L413.551 517.074Z" fill="black"/>
<path d="M266.729 479.557L262.777 381.321C262.679 378.894 263.052 376.472 263.871 374.204C264.69 371.936 265.938 369.871 267.538 368.136C269.139 366.401 271.057 365.033 273.175 364.116C275.293 363.2 277.566 362.755 279.852 362.809L399.855 365.703C402.218 365.76 404.543 366.348 406.676 367.429C408.809 368.51 410.703 370.059 412.231 371.974C413.76 373.888 414.889 376.126 415.544 378.538C416.199 380.95 416.365 383.482 416.031 385.967L402.73 484.884C402.155 489.216 400.094 493.17 396.943 495.988C393.792 498.806 389.773 500.289 385.655 500.154L282.918 496.535C278.701 496.397 274.688 494.57 271.686 491.422C268.683 488.273 266.913 484.035 266.729 479.557Z" fill="#271F4B" fill-opacity="0.7"/>
<path d="M279.308 394.29L297.869 394.913L297.719 399.993L286.095 399.602L285.986 403.395L296.765 403.756L296.615 408.62L285.836 408.243L285.699 412.948L297.651 413.353L297.487 418.737L278.586 418.1L279.308 394.29Z" fill="#C7D2FE"/>
<path d="M300.254 416.996L300.963 393.186L312.519 393.577C314.175 393.568 315.824 393.821 317.411 394.329C318.535 394.729 319.497 395.526 320.136 396.587C320.61 397.36 320.929 398.228 321.073 399.138C321.217 400.047 321.183 400.978 320.973 401.873C320.763 402.768 320.382 403.607 319.854 404.339C319.325 405.071 318.661 405.679 317.901 406.126C317.127 406.549 316.294 406.842 315.435 406.994C316.068 407.211 316.67 407.523 317.22 407.921C317.618 408.313 317.974 408.75 318.283 409.223C318.634 409.674 318.944 410.158 319.21 410.671L322.358 417.691L314.535 417.416L311.047 410.019C310.77 409.313 310.362 408.673 309.848 408.138C309.359 407.762 308.775 407.55 308.171 407.53H307.558L307.272 417.184L300.254 416.996ZM307.64 403.072L310.556 403.173C311.175 403.133 311.79 403.041 312.396 402.898C312.852 402.824 313.266 402.571 313.554 402.189C313.849 401.803 314.017 401.325 314.031 400.828C314.057 400.497 314.013 400.164 313.902 399.854C313.791 399.543 313.617 399.263 313.391 399.033C312.63 398.512 311.732 398.263 310.829 398.324L307.776 398.223L307.64 403.072Z" fill="#C7D2FE"/>
<path d="M323.985 416.996L324.694 393.186L336.236 393.577C337.893 393.566 339.542 393.82 341.129 394.329C342.255 394.725 343.218 395.523 343.854 396.587C344.546 397.747 344.87 399.111 344.781 400.481C344.785 401.636 344.494 402.771 343.94 403.765C343.386 404.758 342.588 405.574 341.633 406.126C340.857 406.547 340.025 406.84 339.166 406.994C339.796 407.21 340.393 407.522 340.938 407.921C341.345 408.301 341.707 408.734 342.014 409.209C342.363 409.661 342.673 410.146 342.941 410.656L346.089 417.662L338.267 417.401L334.778 410.005C334.499 409.3 334.092 408.66 333.579 408.123C333.092 407.733 332.499 407.52 331.889 407.515H331.29L330.99 417.184L323.985 416.996ZM331.358 403.072L334.288 403.159C334.907 403.134 335.523 403.046 336.127 402.898C336.58 402.826 336.99 402.572 337.272 402.189C337.577 401.809 337.746 401.327 337.749 400.828C337.779 400.498 337.738 400.165 337.629 399.855C337.52 399.544 337.347 399.263 337.122 399.033C336.362 398.499 335.456 398.249 334.547 398.324L331.508 398.223L331.358 403.072Z" fill="#C7D2FE"/>
<path d="M349.298 407.245C349.193 405.583 349.435 403.918 350.008 402.367C350.581 400.817 351.47 399.421 352.612 398.28C353.753 397.138 355.118 396.279 356.609 395.764C358.101 395.25 359.68 395.092 361.236 395.303C362.805 395.248 364.369 395.529 365.834 396.128C367.3 396.727 368.637 397.633 369.766 398.792C370.774 400.025 371.536 401.462 372.004 403.017C372.473 404.573 372.639 406.213 372.492 407.838C372.503 410.203 371.979 412.536 370.966 414.641C370.047 416.364 368.673 417.762 367.014 418.665C365.058 419.658 362.894 420.097 360.731 419.938C358.575 419.958 356.442 419.463 354.49 418.491C352.828 417.533 351.471 416.072 350.593 414.294C349.562 412.114 349.114 409.676 349.298 407.245ZM356.221 407.505C356.016 409.33 356.406 411.174 357.325 412.73C357.754 413.24 358.276 413.652 358.859 413.943C359.442 414.233 360.074 414.396 360.717 414.422C361.361 414.448 362.003 414.335 362.604 414.092C363.206 413.849 363.756 413.479 364.22 413.005C365.23 411.38 365.709 409.448 365.583 407.505C365.766 405.761 365.365 404.003 364.452 402.541C364.039 402.035 363.528 401.63 362.954 401.352C362.38 401.075 361.757 400.932 361.127 400.934C360.491 400.885 359.852 400.99 359.26 401.241C358.668 401.492 358.136 401.882 357.706 402.381C356.674 403.859 356.15 405.667 356.221 407.505Z" fill="#C7D2FE"/>
<path d="M375.993 420.054L376.702 396.23L388.244 396.621C389.901 396.618 391.549 396.871 393.136 397.373C394.258 397.78 395.218 398.575 395.862 399.631C396.55 400.793 396.874 402.156 396.789 403.525C396.795 404.682 396.506 405.82 395.951 406.817C395.397 407.814 394.598 408.632 393.641 409.184C392.862 409.594 392.031 409.882 391.174 410.038C391.805 410.259 392.401 410.576 392.946 410.979C393.353 411.36 393.715 411.792 394.022 412.267C394.373 412.718 394.684 413.202 394.949 413.715L398.097 420.735L390.275 420.474L386.786 413.063C386.509 412.362 386.101 411.727 385.587 411.196C385.098 410.808 384.507 410.59 383.897 410.574H383.297L382.998 420.243L375.993 420.054ZM383.366 406.116L386.295 406.217C386.915 406.192 387.531 406.105 388.135 405.957C388.586 405.879 388.995 405.627 389.28 405.247C389.602 404.844 389.771 404.328 389.757 403.8C389.786 403.472 389.745 403.141 389.637 402.833C389.528 402.525 389.355 402.246 389.13 402.02C388.37 401.485 387.463 401.235 386.554 401.31L383.515 401.209L383.366 406.116Z" fill="#C7D2FE"/>
<path d="M387.018 460.51C386.762 460.515 386.508 460.462 386.273 460.355C386.038 460.247 385.827 460.088 385.655 459.887L373.99 446.325L361.398 458.541C361.049 458.881 360.588 459.059 360.115 459.037C359.642 459.016 359.197 458.796 358.877 458.425L347.212 444.863L334.62 457.079C334.271 457.419 333.81 457.597 333.337 457.576C332.864 457.554 332.419 457.334 332.099 456.963L320.42 443.401L307.842 455.617C307.659 455.794 307.443 455.929 307.209 456.013C306.975 456.098 306.726 456.131 306.48 456.109C306.006 456.08 305.562 455.857 305.239 455.487L293.574 441.939L280.996 454.141C280.645 454.481 280.181 454.66 279.706 454.639C279.232 454.617 278.784 454.396 278.462 454.025C278.302 453.842 278.179 453.626 278.099 453.392C278.019 453.157 277.984 452.908 277.995 452.659C278.007 452.41 278.065 452.166 278.166 451.94C278.267 451.715 278.409 451.514 278.584 451.347L292.484 437.843C292.835 437.503 293.299 437.324 293.774 437.346C294.249 437.367 294.697 437.588 295.019 437.959L306.684 451.521L319.262 439.305C319.619 438.972 320.082 438.796 320.557 438.813C321.031 438.84 321.476 439.063 321.797 439.435L333.462 452.998L346.054 440.781C346.225 440.611 346.427 440.48 346.648 440.393C346.868 440.307 347.102 440.268 347.337 440.279C347.571 440.29 347.802 440.35 348.014 440.456C348.227 440.562 348.417 440.712 348.575 440.897L360.24 454.459L372.831 442.243C373.18 441.904 373.642 441.725 374.115 441.747C374.587 441.769 375.033 441.989 375.352 442.359L388.38 457.383C388.613 457.66 388.765 458.002 388.818 458.369C388.871 458.735 388.822 459.11 388.677 459.448C388.533 459.785 388.299 460.071 388.004 460.27C387.709 460.469 387.367 460.572 387.018 460.568V460.51Z" fill="#C7D2FE"/>
<path d="M171.364 520.592L162.834 516.264L155.229 476.938L159.359 472.118L171.364 520.592Z" fill="#312E81"/>
<path d="M171.363 520.592L182.688 513.557L172.985 481.164L159.357 472.118L171.363 520.592Z" fill="#312E81"/>
<path opacity="0.2" d="M171.363 520.592L182.688 513.557L172.985 481.164L159.357 472.118L171.363 520.592Z" fill="black"/>
<path d="M357.038 527.742H356.098C354.291 527.69 352.577 526.878 351.334 525.484C350.091 524.09 349.42 522.229 349.468 520.309C349.517 518.39 350.282 516.57 351.594 515.249C352.906 513.929 354.659 513.216 356.466 513.268C366.959 513.629 389.172 506.783 401.872 493.699C402.639 492.9 403.573 492.304 404.598 491.962C426.116 485.101 434.115 498.953 434.442 499.546L422.722 506.913C422.764 507.006 422.814 507.093 422.872 507.174C422.75 506.986 419.697 502.832 409.994 505.379C394.064 520.809 369.616 527.742 357.038 527.742Z" fill="#271F4B" fill-opacity="0.7"/>
<path d="M356.207 537.352L331.391 535.702L329.442 487.098L362.789 488.415L356.207 537.352Z" fill="#312E81"/>
<path d="M356.206 537.353L362.011 531.216L365.609 500.921L362.788 488.416L356.206 537.353Z" fill="#312E81"/>
<path opacity="0.2" d="M356.206 537.353L362.011 531.216L365.609 500.921L362.788 488.416L356.206 537.353Z" fill="black"/>
<path d="M500.002 518.956C499.111 518.955 498.245 518.645 497.535 518.073C483.363 506.639 464.216 486.331 456.871 466.748C456.761 466.465 456.683 466.168 456.64 465.865C453.055 443.227 449.635 395.593 449.485 393.581C449.445 393.011 449.511 392.438 449.679 391.895C449.847 391.351 450.115 390.849 450.466 390.415C451.175 389.54 452.182 389 453.267 388.913C454.351 388.827 455.423 389.201 456.247 389.955C457.072 390.708 457.58 391.778 457.662 392.93C457.662 393.407 461.164 441.505 464.652 463.954C471.984 483.002 491.907 502.557 502.509 511.155C503.192 511.705 503.695 512.469 503.946 513.339C504.198 514.209 504.186 515.141 503.912 516.003C503.638 516.865 503.115 517.614 502.419 518.144C501.722 518.674 500.886 518.958 500.029 518.956H500.002Z" fill="#271F4B" fill-opacity="0.7"/>
<path d="M518.904 521.142C515.742 521.142 512.158 519.622 508.247 516.626C507.369 515.95 506.779 514.932 506.608 513.794C506.437 512.657 506.698 511.494 507.334 510.561C507.97 509.628 508.929 509.002 510 508.82C511.071 508.638 512.166 508.916 513.044 509.591C516.423 512.182 518.263 512.486 518.904 512.486C519.988 512.486 521.028 512.944 521.794 513.758C522.561 514.572 522.992 515.677 522.992 516.828C522.992 517.98 522.561 519.085 521.794 519.899C521.028 520.713 519.988 521.171 518.904 521.171V521.142Z" fill="#271F4B" fill-opacity="0.7"/>
<path d="M509.392 516.495C513.766 502.701 531.7 505.422 537.887 507.478C543.171 509.107 548.24 511.442 552.972 514.425C556.311 516.741 556.365 520.635 551.909 522.849C546.458 525.571 532.613 523.153 532.613 523.153C539.753 526.468 532.613 531.838 520.062 526.569C515.987 524.861 507.852 521.561 509.392 516.495Z" fill="#312E81"/>
<path d="M465.867 399.486C464.245 411.21 455.101 419.852 447.661 418.694C440.22 417.536 439.92 407.114 441.542 395.332C443.164 383.55 446.107 375.069 453.548 376.226C460.988 377.384 467.489 387.806 465.867 399.486Z" fill="#271F4B" fill-opacity="0.7"/>
<path d="M286.011 352.735C286.628 352.735 287.128 352.204 287.128 351.548C287.128 350.893 286.628 350.361 286.011 350.361C285.394 350.361 284.894 350.893 284.894 351.548C284.894 352.204 285.394 352.735 286.011 352.735Z" fill="#271F4B" fill-opacity="0.7"/>
<path d="M297.363 360.088C297.363 360.322 297.297 360.552 297.175 360.747C297.052 360.942 296.877 361.094 296.673 361.184C296.469 361.274 296.244 361.298 296.027 361.252C295.811 361.206 295.611 361.093 295.455 360.927C295.299 360.761 295.193 360.55 295.149 360.319C295.106 360.089 295.128 359.85 295.213 359.634C295.298 359.417 295.441 359.231 295.625 359.101C295.808 358.97 296.024 358.901 296.245 358.901C296.542 358.901 296.826 359.026 297.036 359.248C297.245 359.471 297.363 359.773 297.363 360.088Z" fill="#271F4B" fill-opacity="0.7"/>
<path d="M298.618 500.342C298.618 500.577 298.552 500.806 298.429 501.002C298.307 501.197 298.132 501.349 297.928 501.439C297.724 501.529 297.499 501.552 297.282 501.506C297.065 501.461 296.866 501.348 296.71 501.182C296.554 501.016 296.447 500.804 296.404 500.574C296.361 500.344 296.383 500.105 296.468 499.888C296.552 499.671 296.696 499.486 296.879 499.355C297.063 499.225 297.279 499.155 297.5 499.155C297.797 499.155 298.081 499.28 298.29 499.503C298.5 499.726 298.618 500.028 298.618 500.342Z" fill="#271F4B" fill-opacity="0.7"/>
<path d="M308.852 508.897C308.852 509.131 308.787 509.361 308.664 509.556C308.541 509.751 308.366 509.903 308.162 509.993C307.958 510.083 307.733 510.106 307.517 510.061C307.3 510.015 307.101 509.902 306.944 509.736C306.788 509.57 306.682 509.358 306.639 509.128C306.596 508.898 306.618 508.659 306.702 508.442C306.787 508.226 306.93 508.04 307.114 507.91C307.298 507.779 307.514 507.71 307.735 507.71C308.031 507.71 308.315 507.835 308.525 508.057C308.734 508.28 308.852 508.582 308.852 508.897Z" fill="#271F4B" fill-opacity="0.7"/>
<path d="M112.44 523.125C110.478 523.027 108.562 522.463 106.833 521.474C105.104 520.484 103.607 519.094 102.451 517.408C102.395 517.33 102.354 517.241 102.33 517.146C102.307 517.051 102.302 516.952 102.316 516.855C102.33 516.758 102.363 516.664 102.412 516.581C102.461 516.498 102.525 516.426 102.601 516.37C102.677 516.314 102.763 516.275 102.853 516.255C102.944 516.235 103.037 516.236 103.128 516.255C103.219 516.275 103.304 516.315 103.38 516.371C103.456 516.427 103.52 516.499 103.569 516.582C106.117 520.49 111.745 522.56 114.198 521.33C114.444 521.219 114.663 521.051 114.839 520.838C113.599 520.259 112.513 519.364 111.677 518.233C110.84 517.102 110.279 515.77 110.042 514.353C109.728 512.515 109.483 510.011 110.9 509.693C112.863 509.23 115.425 514.252 116.351 518.059C116.519 518.689 116.579 519.346 116.529 519.998C117.315 520.247 118.141 520.316 118.954 520.201C119.321 520.171 119.677 520.06 120.001 519.876C120.325 519.692 120.609 519.437 120.835 519.13C119.938 518.411 119.194 517.499 118.652 516.454C118.109 515.409 117.78 514.254 117.687 513.065C117.169 509.099 117.564 508.419 117.973 508.072C118.106 507.964 118.264 507.897 118.43 507.879C118.596 507.861 118.763 507.893 118.913 507.97C120.371 508.622 122.129 514.238 122.47 517.422C122.511 517.753 122.511 518.089 122.47 518.421C123.058 518.661 123.68 518.788 124.31 518.797C125.465 518.845 126.608 518.527 127.594 517.885C127.403 517.755 127.226 517.61 127.049 517.465C125.686 516.177 125.059 514.122 125.305 511.198C125.495 508.926 125.972 507.681 126.831 507.29C127.108 507.172 127.411 507.142 127.704 507.204C127.997 507.265 128.266 507.416 128.48 507.637C129.4 508.716 130.087 509.995 130.494 511.385C130.901 512.775 131.019 514.242 130.837 515.685C130.719 516.286 130.482 516.853 130.142 517.35C132.65 517.813 136.166 517.06 139.205 516.264C139.294 516.241 139.387 516.237 139.478 516.253C139.569 516.268 139.656 516.302 139.734 516.353C139.813 516.404 139.881 516.471 139.935 516.55C139.989 516.629 140.028 516.719 140.049 516.814C140.071 516.909 140.075 517.008 140.06 517.104C140.046 517.201 140.014 517.293 139.966 517.377C139.917 517.46 139.854 517.532 139.78 517.59C139.705 517.647 139.621 517.689 139.532 517.711C135.839 518.681 131.859 519.477 129.052 518.609C127.682 519.715 126.004 520.306 124.283 520.288C123.519 520.277 122.762 520.125 122.048 519.839C121.731 520.36 121.305 520.796 120.804 521.115C120.304 521.434 119.741 521.626 119.159 521.677C118.134 521.817 117.094 521.724 116.106 521.402C115.788 521.971 115.312 522.421 114.743 522.691C114.012 523.004 113.228 523.152 112.44 523.125ZM111.268 511.14C111.08 512.124 111.117 513.142 111.377 514.107C111.57 515.265 112.022 516.356 112.696 517.288C113.369 518.22 114.245 518.966 115.248 519.463C115.229 519.12 115.174 518.78 115.084 518.45C114.021 514.31 111.977 511.459 111.268 511.14ZM118.859 509.881C118.868 510.879 118.945 511.876 119.091 512.863C119.241 514.627 119.975 516.279 121.162 517.523C120.827 514.851 120.047 512.263 118.859 509.881ZM127.43 508.622C127.43 508.622 126.913 508.897 126.722 511.314C126.531 513.731 126.926 515.396 127.989 516.365C128.241 516.582 128.515 516.766 128.807 516.915C129.165 516.508 129.419 516.01 129.543 515.468C129.785 513.19 129.206 510.898 127.921 509.056C127.635 508.68 127.471 508.622 127.43 508.622Z" fill="#271F4B" fill-opacity="0.7"/>
<path d="M311.891 534.067L315.584 527.264L311.891 520.461H307.939L310.174 527.264L307.939 534.067H311.891Z" fill="#271F4B" fill-opacity="0.7"/>
<path d="M308.198 530.811C307.742 530.842 307.286 530.773 306.856 530.609C306.427 530.445 306.033 530.19 305.7 529.858C305.367 529.526 305.102 529.126 304.921 528.681C304.739 528.236 304.646 527.756 304.646 527.272C304.646 526.787 304.739 526.307 304.921 525.862C305.102 525.418 305.367 525.017 305.7 524.685C306.033 524.354 306.427 524.098 306.856 523.934C307.286 523.77 307.742 523.702 308.198 523.733L301.929 522.401L300.253 527.786L303.06 532.33L308.198 530.811Z" fill="#271F4B" fill-opacity="0.7"/>
<path d="M308.743 520.461H301.343L297.65 527.264L301.343 534.067H308.743L312.436 527.264L308.743 520.461ZM305.05 530.81C304.389 530.813 303.742 530.608 303.191 530.22C302.641 529.832 302.211 529.279 301.956 528.631C301.701 527.984 301.633 527.27 301.76 526.581C301.888 525.892 302.204 525.259 302.671 524.762C303.137 524.264 303.732 523.925 304.38 523.787C305.028 523.649 305.7 523.719 306.311 523.987C306.922 524.255 307.444 524.709 307.812 525.293C308.179 525.876 308.375 526.562 308.375 527.264C308.375 528.202 308.025 529.102 307.402 529.767C306.779 530.431 305.933 530.807 305.05 530.81Z" fill="#312E81"/>
<path d="M569.475 519.998L566.736 514.947L569.475 509.895H572.405L570.756 514.947L572.405 519.998H569.475Z" fill="#312E81"/>
<path d="M572.216 517.581C572.556 517.608 572.898 517.56 573.22 517.44C573.542 517.32 573.837 517.131 574.087 516.885C574.337 516.638 574.537 516.339 574.673 516.007C574.809 515.675 574.88 515.316 574.88 514.954C574.88 514.592 574.809 514.233 574.673 513.901C574.537 513.569 574.337 513.27 574.087 513.024C573.837 512.777 573.542 512.588 573.22 512.468C572.898 512.348 572.556 512.3 572.216 512.327L576.876 511.343L578.117 515.338L576.045 518.71L572.216 517.581Z" fill="#312E81"/>
<path d="M571.821 509.895H577.272L579.998 514.947L577.272 519.998H571.821L569.096 514.947L571.821 509.895ZM574.547 517.581C575.038 517.584 575.519 517.432 575.928 517.144C576.338 516.856 576.658 516.446 576.848 515.965C577.038 515.484 577.089 514.954 576.995 514.442C576.9 513.93 576.665 513.459 576.319 513.089C575.973 512.719 575.531 512.467 575.049 512.364C574.568 512.261 574.068 512.313 573.614 512.512C573.16 512.711 572.772 513.048 572.499 513.482C572.226 513.915 572.08 514.425 572.08 514.947C572.078 515.293 572.141 515.637 572.265 515.957C572.389 516.278 572.572 516.569 572.803 516.814C573.033 517.059 573.307 517.253 573.609 517.384C573.911 517.516 574.234 517.583 574.56 517.581H574.547Z" fill="#271F4B" fill-opacity="0.7"/>
<path d="M467.421 526.714H473.581C474.352 526.71 475.09 526.382 475.634 525.802C476.178 525.221 476.483 524.436 476.483 523.617C476.483 522.798 476.178 522.012 475.634 521.432C475.09 520.851 474.352 520.523 473.581 520.519H467.421C466.648 520.519 465.906 520.846 465.359 521.426C464.812 522.007 464.505 522.795 464.505 523.617C464.505 524.438 464.812 525.226 465.359 525.807C465.906 526.388 466.648 526.714 467.421 526.714Z" fill="#271F4B" fill-opacity="0.7"/>
<path d="M457.514 520.867C458.085 519.763 458.949 518.86 459.997 518.271C461.046 517.682 462.234 517.431 463.415 517.551C464.596 517.67 465.719 518.154 466.644 518.943C467.569 519.731 468.257 520.791 468.622 521.99C468.987 523.188 469.014 524.475 468.699 525.69C468.385 526.905 467.742 527.995 466.851 528.827C465.96 529.659 464.859 530.195 463.684 530.37C462.509 530.545 461.311 530.351 460.239 529.812C458.765 529.005 457.652 527.611 457.141 525.936C456.631 524.26 456.764 522.438 457.514 520.867Z" fill="#312E81"/>
<path d="M459.176 529.81L460.864 530.656L466.733 517.433L465.045 516.587L459.176 529.81Z" fill="#271F4B" fill-opacity="0.7"/>
</svg>
