<svg width="889" height="773" viewBox="0 0 889 773" fill="none" xmlns="http://www.w3.org/2000/svg">
<rect x="889" y="714" width="889" height="681" rx="101" transform="rotate(180 889 714)" fill="url(#paint0_linear_433_2543)"/>
<mask id="mask0_433_2543" style="mask-type:alpha" maskUnits="userSpaceOnUse" x="0" y="0" width="889" height="773">
<rect x="889" y="773" width="889" height="773" rx="170" transform="rotate(180 889 773)" fill="#C4C4C4"/>
</mask>
<g mask="url(#mask0_433_2543)">
<path d="M625.626 471.364C625.67 471.109 625.744 470.862 625.846 470.628C626.106 469.933 626.438 469.273 626.838 468.662C628.291 466.352 630.44 464.669 632.911 463.903C634.621 463.365 636.422 463.267 638.172 463.618C640.183 464.046 642.055 465.046 643.598 466.515C645.286 468.162 646.485 470.321 647.041 472.715C647.668 475.294 647.517 478.024 646.612 480.502C645.707 482.981 644.095 485.077 642.015 486.481C640.087 487.795 637.842 488.448 635.569 488.358C633.52 488.269 631.529 487.591 629.799 486.391C628.306 485.345 627.061 483.931 626.163 482.263C624.867 479.845 624.38 477.012 624.786 474.246C624.882 473.506 625.058 472.78 625.309 472.084C625.383 471.832 625.485 471.59 625.612 471.364C625.378 472.353 625.194 473.355 625.061 474.366C624.781 477.05 625.339 479.757 626.645 482.053C627.588 483.743 628.906 485.147 630.477 486.136C632.049 487.125 633.824 487.667 635.638 487.712C637.775 487.784 639.883 487.151 641.684 485.896C643.101 484.923 644.291 483.605 645.162 482.045C646.032 480.486 646.559 478.728 646.7 476.909C646.842 475.09 646.594 473.261 645.977 471.564C645.36 469.867 644.39 468.35 643.144 467.13C641.696 465.726 639.933 464.763 638.035 464.338C636.379 463.965 634.665 464.026 633.035 464.518C630.645 465.218 628.537 466.765 627.045 468.917C626.025 470.313 625.695 471.409 625.626 471.364Z" fill="#E0E0E0"/>
<path d="M615.242 459.7H614.856L613.672 459.52L609.017 458.799L609.141 458.724L605.367 469.233L605.298 469.008C606.882 470.163 608.631 471.469 610.491 472.851L610.601 472.926V473.061C610.341 475.498 610.383 477.962 610.725 480.387V480.537L610.614 480.627L605.546 484.68L605.629 484.335C606.937 487.607 608.315 491.09 609.761 494.738L609.444 494.558L615.614 493.282H615.793L615.903 493.432C617.293 495.347 618.909 497.054 620.709 498.506L620.861 498.626V498.837C620.558 500.923 620.227 503.235 619.897 505.592L619.704 505.217L629.344 509.39L628.945 509.525C630.047 507.769 631.259 505.832 632.498 503.881L632.608 503.685H632.815C635.036 503.972 637.282 503.937 639.494 503.58H639.701L639.825 503.776L643.53 509.3L643.103 509.18L652.647 504.676L652.44 505.097C652.068 502.98 651.683 500.683 651.283 498.371V498.131L651.462 497.996C653.216 496.483 654.781 494.727 656.117 492.772L656.461 492.622H656.64H656.847L657.233 492.697L658.018 492.832L659.574 493.087L662.659 493.627L662.273 493.868C663.568 490.305 664.849 486.802 666.116 483.359L666.24 483.824L661.075 479.936L660.896 479.816V479.576C661.154 477.155 661.121 474.707 660.8 472.295V472.07L660.965 471.935L666.047 467.912L665.937 468.362L661.805 457.959L662.163 458.169L655.993 459.415H655.8L655.676 459.25C654.299 457.329 652.691 455.617 650.898 454.161L650.746 454.04V453.83C651.077 451.518 651.407 449.327 651.724 447.075L651.917 447.42L642.276 443.217L642.607 443.112C641.354 445.093 640.183 446.955 639.04 448.741L638.957 448.876H638.778C636.552 448.551 634.297 448.551 632.071 448.876H631.92L631.837 448.756C630.46 446.73 629.303 444.913 628.16 443.202L628.422 443.277L618.878 447.795L618.974 447.6L620.076 454.341V454.416C618.714 455.576 617.459 456.878 616.33 458.304L615.517 459.34C615.441 459.468 615.348 459.584 615.242 459.685L615.476 459.31C615.641 459.054 615.889 458.694 616.247 458.214C617.337 456.775 618.56 455.462 619.897 454.296V454.416C619.566 452.584 619.181 450.377 618.699 447.705V447.555H618.823L628.339 443.052L628.504 442.977L628.601 443.127L632.319 448.636L632.099 448.546C634.377 448.155 636.695 448.109 638.985 448.411L638.737 448.531L642.276 442.871L642.4 442.676L642.607 442.766L652.247 446.925L652.468 447.03V447.285C652.151 449.477 651.834 451.789 651.503 454.04L651.38 453.725C653.229 455.208 654.888 456.955 656.31 458.919L655.993 458.799L662.177 457.538H662.425L662.535 457.808L666.666 468.197L666.777 468.467L666.556 468.647L661.488 472.685L661.626 472.325C661.964 474.811 661.996 477.336 661.722 479.831L661.571 479.471L666.749 483.344L666.983 483.524L666.887 483.809C665.62 487.262 664.339 490.765 663.044 494.318L662.948 494.603H662.659L659.56 494.078L658.018 493.807L657.233 493.672H656.847H656.64H656.461C656.613 493.672 656.117 493.838 656.806 493.522C655.435 495.529 653.829 497.331 652.027 498.882L652.151 498.491C652.55 500.803 652.936 503.1 653.308 505.232V505.532L653.046 505.652L643.502 510.156L643.254 510.291L643.089 510.036L639.384 504.496L639.715 504.646C637.434 505.02 635.118 505.055 632.829 504.751L633.145 504.601L629.592 510.231L629.441 510.471L629.193 510.366L619.552 506.162L619.318 506.057V505.787C619.663 503.43 619.993 501.118 620.31 499.032L620.42 499.347C618.58 497.857 616.931 496.105 615.517 494.138L615.807 494.243L609.637 495.489H609.403L609.32 495.264L605.188 484.845L605.106 484.635L605.271 484.515L610.367 480.492L610.27 480.747C609.963 478.256 609.963 475.732 610.27 473.241L610.353 473.451L605.188 469.548L605.078 469.458V469.323L608.976 458.814V458.724H609.058L613.644 459.58L614.829 459.82L615.242 459.7Z" fill="#E0E0E0"/>
<path d="M625.624 471.365C625.624 471.365 625.789 470.899 626.23 470.029C626.879 468.749 627.738 467.609 628.764 466.666C630.38 465.202 632.344 464.268 634.428 463.974C636.512 463.68 638.63 464.038 640.535 465.006C642.44 465.974 644.053 467.512 645.186 469.441C646.32 471.37 646.927 473.61 646.937 475.901C646.947 478.191 646.36 480.438 645.244 482.379C644.127 484.32 642.528 485.874 640.632 486.862C638.736 487.85 636.621 488.23 634.534 487.958C632.448 487.686 630.475 486.773 628.846 485.326C627.47 484.096 626.374 482.536 625.643 480.768C624.912 479 624.566 477.071 624.632 475.133C624.664 474.473 624.737 473.815 624.852 473.166C624.852 472.851 624.976 472.521 625.059 472.205L625.183 471.725V471.5V471.395C625.191 471.468 625.217 471.537 625.258 471.595C625.299 471.653 625.354 471.698 625.417 471.725L625.844 471.56C625.631 472.042 625.461 472.544 625.334 473.061C624.723 475.511 624.868 478.112 625.747 480.462C626.59 482.749 628.063 484.695 629.962 486.032C631.275 486.965 632.756 487.581 634.305 487.841C635.854 488.1 637.436 487.996 638.946 487.536C640.455 487.075 641.857 486.269 643.058 485.171C644.259 484.073 645.231 482.708 645.91 481.168C647.077 478.576 647.359 475.616 646.705 472.818C646.052 470.02 644.505 467.568 642.343 465.9C640.315 464.351 637.873 463.576 635.399 463.699C632.925 463.821 630.558 464.833 628.667 466.576C627.633 467.527 626.773 468.684 626.133 469.984C625.913 470.419 625.775 470.764 625.679 471.005C625.582 471.245 625.541 471.38 625.541 471.365C625.539 471.236 625.562 471.108 625.61 470.989C625.714 470.617 625.847 470.256 626.009 469.909C626.611 468.556 627.454 467.346 628.488 466.351C630.414 464.499 632.854 463.403 635.417 463.24C637.981 463.077 640.521 463.855 642.632 465.45C644.09 466.556 645.298 468.01 646.164 469.701C647.03 471.391 647.532 473.275 647.631 475.208C647.735 477.372 647.337 479.53 646.474 481.483C645.546 483.556 644.118 485.316 642.343 486.572C640.451 487.946 638.233 488.689 635.96 488.707C633.687 488.726 631.459 488.02 629.549 486.677C627.522 485.261 625.948 483.195 625.045 480.762C624.101 478.256 623.946 475.479 624.604 472.866C624.742 472.28 624.935 471.711 625.183 471.17L625.321 470.899L625.61 471.005C625.858 471.095 625.885 471.455 625.858 471.38V471.485V471.575V471.71V471.95L625.734 472.401C625.665 472.701 625.596 473.016 625.541 473.316C625.438 473.927 625.369 474.543 625.334 475.163C625.296 476.393 625.426 477.622 625.72 478.811C626.295 481.099 627.502 483.139 629.178 484.654C630.853 486.169 632.915 487.085 635.085 487.278C637.367 487.469 639.645 486.849 641.576 485.509C643.508 484.169 644.988 482.183 645.795 479.848C646.603 477.513 646.693 474.955 646.053 472.559C645.413 470.164 644.077 468.059 642.246 466.561C640.039 464.763 637.284 463.957 634.548 464.309C632.489 464.576 630.542 465.471 628.929 466.891C627.906 467.795 627.03 468.881 626.34 470.104C625.871 470.929 625.679 471.425 625.624 471.365Z" fill="#E0E0E0"/>
<path d="M615.242 459.7L608.962 458.604H609.058C608.053 461.321 606.745 464.924 605.12 469.337V469.172L610.394 473.135L610.174 473.331L610.091 473.135H610.38C610.111 475.596 610.144 478.085 610.477 480.536H610.146L610.243 480.311L610.491 480.536L605.271 484.68V484.44L609.54 495.218L609.306 495.083L615.683 493.792V494.257L615.421 494.152L615.683 493.777C617.087 495.725 618.721 497.462 620.544 498.941L620.186 499.242L620.076 498.956H620.53C620.214 501.088 619.869 503.46 619.511 505.952L619.374 505.667L629.455 510.035L629.152 510.14L632.829 504.286L633.159 504.721L632.87 504.856L632.801 504.301C635.054 504.594 637.333 504.559 639.577 504.196L639.508 504.766L639.219 504.631L639.549 504.18L643.392 509.93L643.048 509.825L653.06 505.126L652.881 505.472C652.509 503.34 652.096 500.968 651.683 498.476H652.261L652.151 498.806L651.669 498.431C653.46 496.899 655.053 495.112 656.406 493.117L656.764 493.642L656.461 493.777L656.393 493.132L662.838 494.242L662.494 494.453C663.747 491.045 665.124 487.247 666.515 483.404L666.639 483.824L661.24 479.801L661.722 479.365L661.86 479.681L661.24 479.786C661.505 477.334 661.468 474.856 661.13 472.415L661.764 472.505L661.64 472.82L661.144 472.385L666.405 468.196L666.295 468.632C664.918 465.254 663.54 461.531 661.984 457.763L662.356 457.973L655.952 459.294L656.021 458.574L656.296 458.679L655.897 459.264C654.497 457.33 652.867 455.609 651.049 454.145L651.572 453.695L651.683 453.98L651.022 454.07C651.325 451.893 651.669 449.491 652.013 447.074L652.233 447.495L642.194 443.171L642.607 443.021C641.478 444.838 640.224 446.849 638.957 448.846L638.53 448.275L638.737 448.17L638.847 448.906C636.607 448.622 634.342 448.668 632.113 449.041L632.195 448.305L632.388 448.395L631.961 448.981L628.16 443.321L628.587 443.457L618.823 448.095L619.029 447.66C619.415 449.822 619.828 452.164 620.241 454.505H619.553V454.4L620.117 454.836C618.572 456.142 617.184 457.655 615.986 459.339L615.696 459.745C615.696 459.745 615.696 459.745 615.628 459.745H615.517C615.614 459.745 615.187 459.339 615.035 459.519H614.966L615.586 458.724C615.999 458.168 616.454 457.628 616.895 457.118C617.803 456.101 618.774 455.153 619.8 454.28L619.677 454.656C619.291 452.359 618.919 450.152 618.547 447.855L619.222 447.975L619.139 448.14L618.685 447.6L628.243 443.171V443.892H628.022L628.394 443.291C629.661 445.183 630.914 447.069 632.154 448.951L631.81 448.786C634.155 448.408 636.537 448.383 638.888 448.711L638.558 448.861L642.194 443.111L642.593 443.697L642.304 443.787V443.066L651.944 447.285L651.517 447.825L651.352 447.51L651.999 447.375C651.655 449.717 651.325 452.028 650.98 454.31L650.843 453.95C652.768 455.495 654.488 457.324 655.952 459.384L655.608 459.249L661.956 457.973L661.86 458.664L661.543 458.484L662.012 458.003L666.143 468.407H665.51L665.606 468.016L666.129 468.407L660.896 472.55L661.034 472.205C661.398 474.785 661.426 477.408 661.116 479.996L660.979 479.666L666.308 483.659L665.813 484.049L665.702 483.644H666.308C665 487.247 663.719 490.745 662.466 494.152L662.012 493.732L662.356 493.522L662.466 494.152L656.076 493.056L656.365 492.921C654.952 495.028 653.273 496.908 651.38 498.506L651.49 498.191L652.674 505.126L652.123 505.036L652.302 504.646L652.688 505.096L643.13 509.6V509.014L643.502 509.134L643.199 509.615L639.398 503.91L639.66 504.03C637.298 504.431 634.896 504.467 632.526 504.135L632.774 504.015L629.138 509.675L628.849 509.24L629.207 509.119V509.66L619.566 505.472L619.869 505.096L620.048 505.426L619.594 505.517C619.966 502.964 620.282 500.743 620.599 498.581L620.682 498.821C618.77 497.286 617.06 495.473 615.6 493.432L615.82 493.522L609.485 494.813L609.554 494.378L609.83 494.543L609.54 494.828L605.409 484.44H605.753L605.684 484.74L605.395 484.515L610.573 480.401L610.504 480.581C610.152 478.056 610.119 475.49 610.408 472.955V473.105L605.133 469.172L605.326 469.007L605.395 469.217H605.147L608.976 458.709L609.086 458.814H608.976V458.649L615.187 459.685C614.669 459.676 614.153 459.621 613.644 459.519L608.962 458.829H608.728L608.934 458.709L609.045 458.634L609.237 458.514L609.155 458.739C608.246 461.336 607.048 464.744 605.409 469.247L605.285 469.623L605.175 469.247V469.037L605.064 468.647L605.367 468.872L610.656 472.775H610.739V472.865C610.476 475.363 610.522 477.887 610.876 480.371V480.491H610.794L605.629 484.635L605.202 484.98L605.34 484.425L605.422 484.124L605.56 483.569L605.767 484.094C607.006 487.217 608.342 490.549 609.898 494.468L610.146 495.068L609.623 494.768L609.334 494.603L608.81 494.303L609.403 494.182L615.724 492.876H615.862L615.944 492.981C617.374 494.991 619.057 496.769 620.944 498.266L621.067 498.356V498.506L620.09 505.441L619.979 506.192L619.635 505.532L619.456 505.201L619.112 504.541L619.759 504.826L629.4 508.984L630.088 509.285L629.372 509.51L629.028 509.63L628.312 509.87L628.738 509.21L632.374 503.385L632.471 503.235H632.636C634.958 503.54 637.308 503.495 639.618 503.1H639.784L639.88 503.25L643.695 508.939L644.177 509.66L643.392 509.435L643.02 509.315L642.235 509.089L642.979 508.729L652.523 504.226L653.294 503.85L652.895 504.661L652.715 505.051L652.316 505.862L652.151 504.961L650.966 498.026V497.815L651.118 497.695C652.968 496.13 654.609 494.291 655.993 492.231L656.103 492.066H656.282L662.673 493.162L663.568 493.312L662.783 493.792L662.439 494.017L661.654 494.498L661.984 493.582C663.237 490.159 664.518 486.661 665.826 483.073L666.157 482.143L666.432 483.103L666.543 483.509L666.818 484.485L666.061 483.914L660.717 479.921L660.552 479.801V479.576C660.843 477.051 660.81 474.494 660.455 471.98V471.769L660.621 471.634L665.84 467.476L666.611 466.875L666.364 467.881C666.364 468.001 666.364 468.136 666.267 468.272L666.005 469.292L665.634 468.317C664.256 464.894 662.879 461.426 661.502 457.913L661.116 456.952L661.97 457.448L662.301 457.628L663.155 458.138L662.191 458.334L655.856 459.61H655.649L655.511 459.429C654.093 457.419 652.419 455.639 650.54 454.145L650.374 454.01V453.785C650.719 451.488 651.049 449.176 651.393 446.834L651.545 445.768L652.041 446.714L652.206 447.029L652.702 447.975L651.765 447.57L642.125 443.366L641.188 442.961L642.152 442.631L642.442 442.541L643.406 442.226L642.827 443.126L639.191 448.891L639.067 449.086H638.861C636.576 448.741 634.259 448.741 631.975 449.086H631.755L631.631 448.891C630.391 447.019 629.138 445.133 627.871 443.231L627.279 442.346L628.256 442.631H628.491L629.482 442.931L628.532 443.366L618.974 447.87L618.038 448.305L618.52 447.33L618.602 447.15L619.084 446.159L619.263 447.27C619.635 449.521 620.007 451.773 620.393 454.07V454.31L620.214 454.445C619.215 455.294 618.271 456.217 617.39 457.208C616.95 457.718 616.523 458.228 616.11 458.709L615.476 459.534V459.61H615.393C615.256 459.79 614.815 459.369 614.925 459.384C614.919 459.309 614.919 459.234 614.925 459.159C614.975 459.007 615.04 458.861 615.118 458.724L615.435 458.303C616.624 456.566 618.012 455.002 619.566 453.65L620.585 452.749L620.131 454.085V454.19L619.69 455.496L619.442 454.13C619.029 451.788 618.616 449.446 618.23 447.285V446.984L618.492 446.849L628.27 442.211L628.532 442.09L628.697 442.346L632.498 447.99L633.256 449.116L632.071 448.576L631.878 448.486L630.708 447.96L631.961 447.75C634.241 447.381 636.556 447.335 638.847 447.615L640.114 447.78L638.944 448.35L638.737 448.456L637.58 449.026L638.296 447.885L641.946 442.06L642.097 441.805L642.373 441.925L652.413 446.249L652.66 446.369V446.669C652.316 449.086 651.972 451.488 651.669 453.665L651.476 455.001L651.008 453.74L650.898 453.455L650.429 452.209L651.421 453.004C653.288 454.514 654.964 456.286 656.406 458.273L657.164 459.339L656.007 458.859L655.732 458.754L654.575 458.273L655.787 458.033L662.191 456.727H662.466L662.576 456.997L666.873 467.881L666.983 468.151L666.763 468.317L661.488 472.505L660.524 473.271L660.992 472.07L661.116 471.754L661.571 470.568L661.75 471.844C662.085 474.331 662.118 476.855 661.846 479.35L661.709 480.611L661.227 479.456L661.089 479.125L660.607 477.969L661.571 478.69L666.956 482.713L667.176 482.878L667.08 483.133L663.044 494.182L662.948 494.438H662.7L656.255 493.327L655.153 493.132L656.186 492.681L656.489 492.546L657.508 492.081L656.847 493.056C655.461 495.087 653.836 496.909 652.013 498.476L651.159 499.196L651.531 498.101L651.655 497.755L652.041 496.659L652.233 497.815C652.647 500.262 653.06 502.679 653.418 504.811V505.066L653.211 505.171L643.199 509.855L642.992 509.96L642.855 509.75L639.012 504L638.434 503.115L639.343 503.535L639.646 503.67L640.555 504.09L639.577 504.256C637.295 504.618 634.98 504.648 632.691 504.346L631.741 504.211L632.608 503.79L632.898 503.64L633.779 503.205L633.228 504.075C631.934 506.132 630.653 508.144 629.537 509.93L629.413 510.11L629.22 510.02L619.139 505.622L618.96 505.547V505.336C619.332 502.874 619.676 500.457 619.993 498.341L620.131 497.44L620.448 498.281L620.544 498.566L620.861 499.407L620.2 498.866C618.342 497.359 616.679 495.587 615.256 493.597L614.774 492.921L615.517 493.222L615.765 493.327L616.509 493.642L615.738 493.792L609.361 495.053H609.196L609.127 494.888C607.64 491.075 606.221 487.472 604.913 484.094L604.844 483.944L604.968 483.839L610.215 479.726L610.697 479.335L610.463 479.951L610.38 480.161L610.146 480.777L610.064 480.116C609.736 477.628 609.713 475.104 609.995 472.61L610.064 472.025L610.284 472.55L610.367 472.745L610.587 473.286L610.146 472.955L604.885 468.962L604.803 468.887V468.782L608.824 458.093L613.507 458.994L614.691 459.249L615.242 459.7Z" fill="#E0E0E0"/>
<path d="M292.73 507.213C293.165 506.278 293.712 505.41 294.355 504.631L293.433 501.914L297.123 499.317L299.024 501.328C299.917 501.015 300.842 500.823 301.778 500.758L302.894 498.131L307.191 499.137V502.034C308.054 502.498 308.852 503.094 309.56 503.805L312.052 502.8L314.449 506.823L312.589 508.895C312.884 509.892 313.06 510.926 313.113 511.972L315.523 513.173L314.6 517.872H311.956C311.521 518.807 310.974 519.675 310.331 520.454L311.24 523.171L307.645 525.858L305.745 523.847C304.852 524.161 303.927 524.353 302.99 524.417L301.875 527.044L297.564 526.038V523.141C296.708 522.672 295.915 522.076 295.209 521.37L292.703 522.375L290.237 518.352L292.083 516.28C291.79 515.283 291.614 514.249 291.56 513.203L289.149 511.987L290.072 507.303H292.73V507.213ZM297.812 511.266C297.615 512.262 297.693 513.3 298.037 514.247C298.38 515.195 298.974 516.01 299.743 516.589C300.512 517.168 301.421 517.486 302.356 517.502C303.29 517.518 304.208 517.231 304.993 516.678C305.778 516.125 306.395 515.331 306.766 514.396C307.136 513.46 307.244 512.426 307.076 511.424C306.907 510.422 306.469 509.497 305.818 508.766C305.167 508.035 304.331 507.531 303.417 507.318C302.194 507.037 300.919 507.294 299.869 508.034C298.819 508.773 298.079 509.935 297.812 511.266Z" fill="#E0E0E0"/>
<path d="M297.808 511.266C297.86 510.842 297.977 510.431 298.153 510.05C298.61 508.979 299.393 508.114 300.37 507.603C301.049 507.25 301.793 507.07 302.546 507.077C303.409 507.099 304.251 507.374 304.983 507.873C305.382 508.135 305.74 508.464 306.044 508.849C306.377 509.237 306.647 509.683 306.843 510.17C307.263 511.196 307.379 512.341 307.173 513.442C306.956 514.542 306.42 515.537 305.645 516.28C305.286 516.64 304.877 516.934 304.433 517.15C303.995 517.364 303.531 517.506 303.055 517.571C302.2 517.687 301.331 517.558 300.535 517.195C299.839 516.862 299.229 516.346 298.759 515.694C298.055 514.796 297.657 513.662 297.629 512.482C297.615 512.05 297.666 511.619 297.781 511.206C297.781 511.206 297.781 511.656 297.781 512.467C297.841 513.609 298.248 514.696 298.938 515.559C299.405 516.152 299.995 516.615 300.659 516.91C301.424 517.242 302.253 517.356 303.069 517.241C303.507 517.17 303.933 517.034 304.336 516.835C304.754 516.626 305.14 516.347 305.479 516.01C306.214 515.308 306.721 514.366 306.924 513.324C307.128 512.283 307.017 511.197 306.609 510.23C306.425 509.768 306.174 509.342 305.865 508.969C305.578 508.607 305.244 508.294 304.873 508.038C304.174 507.561 303.371 507.296 302.546 507.272C301.664 507.247 300.794 507.495 300.036 507.986C299.278 508.478 298.663 509.193 298.263 510.05C297.905 510.845 297.85 511.281 297.808 511.266Z" fill="#E0E0E0"/>
<path d="M292.731 507.213H292.056H290.073C289.838 508.414 289.549 509.99 289.177 511.897L291.601 513.098C291.662 514.119 291.843 515.128 292.138 516.1L290.348 518.352V518.217C291.092 519.493 291.904 520.829 292.744 522.24H292.62L295.113 521.234C295.818 521.931 296.605 522.522 297.454 522.99V523.066C297.454 523.966 297.454 524.957 297.454 525.963L297.358 525.843L301.669 526.834L301.517 526.909L302.633 524.282V524.206H302.715C303.652 524.152 304.577 523.966 305.47 523.651H305.552L307.453 525.678H307.288L310.978 523.081V523.246L310.056 520.529V520.438C310.695 519.675 311.237 518.822 311.667 517.901V517.811H311.736H314.394L314.27 517.931C314.573 516.34 314.89 514.779 315.179 513.233L315.262 513.398L312.851 512.182H312.769V512.092C312.723 511.071 312.552 510.061 312.259 509.089V508.999C312.893 508.309 313.512 507.618 314.118 506.928V507.108C313.306 505.727 312.507 504.39 311.722 503.084H311.874L309.381 504.09H309.312C308.609 503.398 307.826 502.808 306.985 502.334H306.916V502.259C306.916 501.268 306.916 500.292 306.916 499.361L306.998 499.482L302.701 498.476L302.825 498.401L301.696 501.028C300.76 501.084 299.834 501.271 298.942 501.583C298.253 500.848 297.633 500.172 297.041 499.557H297.234L293.543 502.154V501.838L294.452 504.556C293.968 505.136 293.535 505.765 293.157 506.432L292.882 506.943L292.799 507.108C292.814 507.044 292.837 506.984 292.868 506.928L293.116 506.417C293.479 505.733 293.904 505.089 294.383 504.496C294.121 503.76 293.819 502.874 293.447 501.793C294.48 501.043 295.692 500.172 297.124 499.166L299.038 501.193H298.942C299.859 500.86 300.813 500.663 301.779 500.607H301.696C302.054 499.782 302.426 498.911 302.812 497.98V497.905H302.894L307.205 498.896H307.288V499.001V501.883V501.778C308.155 502.256 308.961 502.857 309.684 503.565H309.56L312.053 502.559H312.149V502.649C312.934 503.955 313.733 505.291 314.545 506.672L314.614 506.762H314.532L312.686 508.849V508.699C312.992 509.703 313.169 510.749 313.209 511.806L313.141 511.686L315.551 512.902H315.647V513.022C315.358 514.524 315.041 516.115 314.738 517.706V517.811H314.642H311.984L312.094 517.736C311.659 518.68 311.108 519.554 310.455 520.333V520.183C310.772 521.114 311.075 522.045 311.364 522.9V523.021H311.268L307.728 525.858L307.632 525.933L307.563 525.843L305.662 523.831H305.786C304.864 524.162 303.905 524.354 302.936 524.402L303.046 524.327L301.93 526.954V527.044H301.834L297.537 526.038H297.441V525.933C297.441 524.927 297.441 523.936 297.441 523.036V523.156C296.574 522.677 295.773 522.071 295.058 521.354H295.168L292.675 522.345H292.593L290.155 518.352V518.277L292.014 516.205V516.31C291.719 515.309 291.548 514.269 291.505 513.218V513.293L289.095 512.062C289.467 510.155 289.783 508.579 290.031 507.393H292.786L292.731 507.213Z" fill="#E0E0E0"/>
<path d="M686.125 472.145C686.693 471.303 687.365 470.55 688.122 469.908L687.64 467.056L691.675 465.164L693.245 467.506C694.195 467.363 695.159 467.363 696.109 467.506L697.61 465.119L701.742 466.891L701.329 469.743C702.102 470.366 702.797 471.098 703.395 471.92L705.998 471.394L707.747 475.793L705.598 477.504C705.723 478.541 705.723 479.59 705.598 480.627L707.788 482.263L706.163 486.767L703.532 486.316C702.957 487.151 702.286 487.903 701.535 488.553L702.017 491.405L697.996 493.207L696.44 490.865C695.489 491.001 694.526 491.001 693.575 490.865L692.06 493.252L687.929 491.48L688.342 488.613C687.57 487.994 686.879 487.261 686.29 486.436L683.673 486.977L681.938 482.563L684.073 480.867C683.948 479.83 683.948 478.781 684.073 477.744L681.883 476.108L683.508 471.604L686.138 472.055L686.125 472.145ZM690.518 477.084C690.176 478.027 690.098 479.06 690.295 480.052C690.491 481.044 690.953 481.95 691.621 482.656C692.289 483.362 693.135 483.836 694.05 484.019C694.966 484.202 695.91 484.085 696.765 483.683C697.619 483.281 698.345 482.612 698.852 481.761C699.358 480.91 699.621 479.914 699.608 478.899C699.596 477.885 699.308 476.897 698.78 476.061C698.253 475.225 697.511 474.578 696.646 474.201C696.07 473.951 695.455 473.826 694.835 473.835C694.215 473.845 693.602 473.987 693.033 474.255C692.464 474.523 691.948 474.911 691.517 475.396C691.085 475.881 690.746 476.455 690.518 477.084Z" fill="#E0E0E0"/>
<path d="M690.519 477.084C690.634 476.675 690.811 476.29 691.042 475.943C691.655 474.968 692.561 474.256 693.604 473.932C694.325 473.709 695.083 473.668 695.821 473.812C696.474 473.954 697.093 474.238 697.643 474.649C698.192 475.059 698.659 475.586 699.016 476.198C699.281 476.661 699.471 477.168 699.581 477.7C699.845 478.783 699.782 479.931 699.402 480.972C699.02 482.014 698.345 482.897 697.474 483.494C696.651 484.059 695.69 484.336 694.719 484.29C693.857 484.262 693.019 483.976 692.295 483.464C691.523 482.928 690.909 482.159 690.527 481.251C690.146 480.342 690.014 479.333 690.147 478.345C690.195 477.921 690.312 477.509 690.491 477.129C690.386 477.533 690.307 477.944 690.257 478.36C690.134 479.496 690.367 480.644 690.918 481.618C691.292 482.284 691.801 482.849 692.406 483.269C693.11 483.732 693.911 483.991 694.733 484.02C695.638 484.05 696.53 483.783 697.295 483.254C698.127 482.697 698.77 481.859 699.126 480.867C699.486 479.883 699.549 478.8 699.305 477.775C699.083 476.814 698.604 475.946 697.928 475.283C697.447 474.815 696.881 474.462 696.268 474.246C695.654 474.03 695.006 473.955 694.365 474.027C693.723 474.099 693.103 474.316 692.542 474.664C691.982 475.012 691.495 475.484 691.111 476.048C690.684 476.664 690.546 477.099 690.519 477.084Z" fill="#E0E0E0"/>
<path d="M686.125 472.146H685.96L685.464 472.071L683.495 471.755C683.095 472.896 682.545 474.398 681.897 476.259V476.169L684.101 477.805C683.977 478.837 683.977 479.881 684.101 480.913L681.966 482.624V482.504L683.715 486.903H683.591L686.208 486.362H686.277C686.865 487.178 687.551 487.905 688.315 488.524V488.599C688.191 489.485 688.053 490.46 687.902 491.451L687.833 491.316L691.965 493.073H691.813L693.314 490.686H693.397C694.334 490.813 695.283 490.813 696.22 490.686H696.303L697.873 493.028H697.708L701.756 491.136L701.674 491.286C701.522 490.385 701.357 489.425 701.178 488.449V488.359H701.247C701.991 487.722 702.653 486.98 703.216 486.152H703.506L706.122 486.602L705.984 486.692L707.61 482.189V482.369L705.42 480.733H705.351C705.475 479.706 705.475 478.667 705.351 477.64V477.55H705.42L707.568 475.854V476.019L705.833 471.62L705.971 471.695L703.354 472.221H703.285C702.697 471.404 702.012 470.677 701.247 470.059C701.385 469.068 701.536 468.122 701.66 467.192V467.327L697.528 465.555H697.652L696.137 467.942C695.196 467.806 694.242 467.806 693.3 467.942L691.744 465.6H691.841L687.792 467.477V467.402C687.984 468.543 688.136 469.474 688.26 470.254C687.691 470.739 687.165 471.282 686.69 471.875L686.346 472.311L686.235 472.461L686.332 472.296L686.662 471.83C687.124 471.225 687.641 470.671 688.205 470.179C688.067 469.413 687.902 468.468 687.695 467.342L691.73 465.42L693.3 467.762H693.218C694.173 467.618 695.141 467.618 696.096 467.762H696.014C696.482 466.997 696.978 466.261 697.515 465.36V465.285H697.597L701.729 467.042H701.812V467.147L701.412 469.999V469.879C702.181 470.427 702.884 471.078 703.506 471.815H703.382L705.998 471.275H706.095V471.365L707.83 475.764V475.869H707.747L705.599 477.565V477.43C705.73 478.481 705.73 479.546 705.599 480.598V480.462L707.789 482.099H707.885V482.219L706.26 486.722V486.828H706.15L703.533 486.377H703.657C703.075 487.226 702.395 487.988 701.633 488.644V488.494L702.128 491.331H702.032L697.997 493.343H697.9L697.831 493.253L696.275 490.896H696.399C695.435 491.038 694.458 491.038 693.493 490.896H693.617L692.116 493.283V493.373H692.02L687.888 491.601H687.792V491.511C687.943 490.505 688.081 489.53 688.205 488.644V488.764C687.424 488.134 686.724 487.392 686.125 486.557H686.235L683.619 487.083H683.536V487.008L681.801 482.594V482.519L683.963 480.823V480.913C683.833 479.867 683.833 478.806 683.963 477.76V477.835L681.787 476.199C682.462 474.382 683.013 472.896 683.426 471.695L685.368 472.056L685.864 472.146H686.125Z" fill="#E0E0E0"/>
<path d="M666.447 410.01C667.408 408.61 668.533 407.353 669.793 406.272L668.981 401.513L675.729 398.345L678.346 402.249C679.936 402.016 681.548 402.016 683.138 402.249L685.603 398.255L692.489 401.258L691.801 406.032C693.091 407.071 694.245 408.299 695.23 409.68L699.596 408.794L702.502 416.15L698.921 419.002C699.134 420.731 699.134 422.483 698.921 424.211L702.584 426.959L699.83 434.465L695.45 433.714C694.494 435.118 693.368 436.375 692.104 437.452L692.916 442.211L686.168 445.378L683.551 441.475C681.965 441.701 680.359 441.701 678.773 441.475L676.252 445.453L669.366 442.451L670.055 437.677C668.771 436.63 667.618 435.403 666.626 434.029L662.26 434.915L659.354 427.559L662.948 424.707C662.735 422.973 662.735 421.216 662.948 419.482L659.285 416.75L662.04 409.244L666.419 409.995L666.447 410.01ZM673.787 418.267C673.208 419.847 673.073 421.579 673.397 423.244C673.722 424.908 674.492 426.43 675.61 427.618C676.729 428.805 678.145 429.604 679.68 429.914C681.215 430.223 682.8 430.03 684.234 429.357C685.668 428.685 686.887 427.564 687.737 426.136C688.586 424.709 689.028 423.038 689.007 421.337C688.985 419.635 688.501 417.979 687.616 416.577C686.731 415.176 685.484 414.092 684.033 413.463C683.071 413.043 682.043 412.835 681.007 412.849C679.971 412.864 678.948 413.101 677.996 413.547C677.044 413.994 676.182 414.64 675.46 415.45C674.738 416.26 674.169 417.217 673.787 418.267Z" fill="#F5F5F5"/>
<path d="M673.787 418.266C673.979 417.583 674.272 416.939 674.654 416.359C675.302 415.358 676.136 414.516 677.102 413.89C678.068 413.263 679.145 412.866 680.261 412.724C681.378 412.583 682.51 412.7 683.582 413.067C684.654 413.435 685.643 414.045 686.485 414.858C687.077 415.406 687.584 416.055 687.986 416.78C688.421 417.531 688.746 418.352 688.95 419.212C689.39 421.03 689.284 422.955 688.647 424.703C688.01 426.451 686.875 427.931 685.41 428.925C684.721 429.396 683.968 429.745 683.179 429.96C682.427 430.188 681.646 430.284 680.866 430.246C679.517 430.196 678.202 429.776 677.042 429.025C675.882 428.275 674.914 427.218 674.227 425.952C673.298 424.251 672.942 422.249 673.222 420.293C673.305 419.587 673.496 418.902 673.787 418.266C673.787 418.266 673.553 418.987 673.401 420.323C673.27 421.49 673.365 422.675 673.678 423.8C673.991 424.926 674.517 425.968 675.221 426.86C675.924 427.751 676.791 428.473 677.766 428.978C678.74 429.484 679.801 429.762 680.879 429.795C681.618 429.818 682.356 429.722 683.069 429.51C683.818 429.304 684.53 428.964 685.176 428.504C686.556 427.564 687.627 426.171 688.234 424.526C688.827 422.87 688.928 421.054 688.523 419.332C688.336 418.52 688.034 417.745 687.628 417.035C687.072 416.055 686.338 415.21 685.471 414.551C684.604 413.893 683.623 413.435 682.587 413.207C681.414 412.947 680.201 412.993 679.048 413.342C677.351 413.832 675.856 414.932 674.806 416.465C674.062 417.56 673.842 418.296 673.787 418.266Z" fill="#F5F5F5"/>
<path d="M666.448 410.01H666.172L665.346 409.89L662.054 409.364H662.137C661.448 411.271 660.553 413.868 659.452 416.87V416.72L663.129 419.437H663.197V419.527C663.02 421.25 663.048 422.991 663.28 424.707V424.797H663.211L659.631 427.664V427.439C660.549 429.771 661.522 432.223 662.55 434.795L662.357 434.675L666.723 433.789H666.833L666.902 433.894C667.883 435.251 669.027 436.458 670.304 437.482H670.4V437.617C670.194 439.118 669.96 440.739 669.725 442.391L669.601 442.166L676.487 445.168L676.24 445.258C677.011 444.012 677.878 442.646 678.746 441.265V441.145H678.87C680.442 441.376 682.036 441.376 683.608 441.145H683.745L683.814 441.265L686.431 445.183L686.169 445.093L692.917 441.925L692.78 442.196C692.532 440.694 692.256 439.073 691.967 437.437V437.287L692.077 437.197C693.324 436.13 694.436 434.889 695.383 433.504L695.465 433.384H695.589L699.982 434.134L699.735 434.299C700.653 431.777 701.571 429.275 702.489 426.793L702.572 427.078L698.922 424.346L698.812 424.256V424.121C699.003 422.404 698.98 420.667 698.743 418.957V418.807H698.839L702.434 415.954L702.365 416.24C701.373 413.733 700.409 411.271 699.459 408.884L699.693 409.019L695.328 409.89H695.204L695.135 409.784C694.156 408.421 693.011 407.209 691.733 406.182L691.65 406.092V405.971C691.885 404.335 692.119 402.744 692.339 401.198L692.463 401.408L685.577 398.405H685.784L683.263 402.384V402.474H683.167C681.59 402.24 679.992 402.24 678.416 402.474H678.333V402.399L675.73 398.465H675.895L669.078 401.618V401.483C669.395 403.389 669.657 404.951 669.863 406.257C668.915 407.061 668.039 407.961 667.246 408.944L666.668 409.694C666.544 409.86 666.489 409.95 666.475 409.935L666.64 409.664L667.191 408.899C667.96 407.879 668.828 406.953 669.78 406.137C669.546 404.831 669.271 403.284 668.94 401.378V401.288L675.675 398.09H675.771L675.84 398.18L678.471 402.083H678.319C679.919 401.811 681.546 401.781 683.153 401.993L683.002 402.068L685.508 398.06L685.577 397.94H685.715L692.601 400.942H692.738V401.107C692.518 402.609 692.298 404.245 692.064 405.881L691.981 405.686C693.29 406.734 694.462 407.972 695.465 409.364L695.272 409.274L699.638 408.388H699.79L699.859 408.554C700.777 410.935 701.75 413.387 702.778 415.909V416.075L702.64 416.18L699.046 419.032L699.129 418.807C699.376 420.556 699.404 422.334 699.211 424.091L699.115 423.866L702.778 426.598L702.916 426.718V426.898C701.998 429.34 701.08 431.842 700.162 434.404L700.093 434.584H699.914L695.52 433.834L695.741 433.729C694.773 435.15 693.633 436.423 692.353 437.512L692.435 437.272C692.725 438.908 693 440.529 693.248 442.031V442.226H693.083L686.334 445.393H686.169L686.059 445.243L683.456 441.325L683.663 441.415C682.054 441.646 680.424 441.646 678.815 441.415L679.008 441.31L676.501 445.303L676.405 445.453H676.253L669.367 442.451L669.216 442.376V442.211C669.464 440.544 669.698 438.908 669.904 437.437L669.987 437.632C668.683 436.577 667.516 435.335 666.517 433.939L666.709 434.014L662.33 434.9H662.192V434.75L659.3 427.394V427.259H659.41L663.005 424.406V424.571C662.792 422.823 662.792 421.051 663.005 419.302V419.437L659.355 416.69H659.272V416.6C660.388 413.598 661.324 411.076 662.027 409.169L665.277 409.769L666.103 409.935L666.448 410.01Z" fill="#F5F5F5"/>
<path d="M246.593 561.094C246.593 561.094 246.593 560.404 246.593 559.097C246.593 557.791 246.593 555.84 246.593 553.303C246.593 548.214 246.593 540.753 246.593 531.175C246.593 512.02 246.51 484.412 246.455 450.53L246.731 450.83L71.4132 450.92L71.7712 450.53C71.7712 489.666 71.7712 527.092 71.7712 561.094L71.4407 560.734L197.537 560.914L233.757 561.004H243.398H245.891H246.758H245.932H243.48H233.84L197.702 561.109L71.3856 561.274H71V560.914C71 526.866 71 489.486 71 450.35V449.959H71.3718L246.689 450.05H246.965V450.35C246.965 484.307 246.855 511.989 246.813 531.175C246.813 540.738 246.813 548.169 246.744 553.243C246.744 555.75 246.744 557.671 246.744 558.977C246.744 560.283 246.593 561.094 246.593 561.094Z" fill="#E0E0E0"/>
<path d="M246.66 463.921C246.66 464.131 207.438 464.311 159.07 464.311C110.703 464.311 71.4805 464.131 71.4805 463.921C71.4805 463.711 110.689 463.516 159.07 463.516C207.451 463.516 246.66 463.696 246.66 463.921Z" fill="#E0E0E0"/>
<path d="M140.604 482.146H86.4521V541.173H140.604V482.146Z" fill="#F5F5F5"/>
<path d="M233.868 491.963C233.608 492.011 233.346 492.036 233.083 492.038L230.797 492.113L222.396 492.233L194.686 492.353L166.963 492.233L158.562 492.113L156.276 492.038C156.009 492.035 155.742 492.01 155.478 491.963C155.739 491.895 156.008 491.865 156.276 491.873H158.562L166.963 491.738L194.686 491.633L222.396 491.738L230.797 491.873H233.083C233.347 491.864 233.611 491.894 233.868 491.963Z" fill="#E0E0E0"/>
<path d="M235.617 505.069C235.347 505.111 235.074 505.111 234.804 505.069L232.477 505.144L223.883 505.264L195.554 505.384L167.211 505.264L158.631 505.144L156.29 505.069C156.021 505.109 155.747 505.109 155.478 505.069C155.744 505.003 156.017 504.978 156.29 504.993L158.631 504.918L167.211 504.798L195.554 504.678L223.883 504.798L232.477 504.918L234.804 504.993C235.077 504.976 235.351 505.001 235.617 505.069Z" fill="#E0E0E0"/>
<path d="M235.617 518.249C235.351 518.318 235.078 518.348 234.804 518.339L232.477 518.414L223.883 518.535L195.554 518.64L167.211 518.535L158.631 518.414L156.29 518.339C156.017 518.347 155.744 518.317 155.478 518.249C155.746 518.203 156.018 518.178 156.29 518.174H158.631L167.211 518.054L195.554 517.934L223.883 518.054L232.477 518.174H234.804C235.076 518.177 235.348 518.202 235.617 518.249Z" fill="#E0E0E0"/>
<path d="M235.617 531.446C235.349 531.503 235.077 531.529 234.804 531.521H232.477L223.883 531.641L195.554 531.761L167.211 531.641L158.631 531.521H156.29C156.018 531.527 155.745 531.502 155.478 531.446C155.744 531.38 156.017 531.355 156.29 531.371L158.631 531.296L167.211 531.161L195.554 531.056L223.883 531.161L232.477 531.296L234.804 531.371C235.077 531.354 235.351 531.379 235.617 531.446Z" fill="#E0E0E0"/>
<path d="M751.051 711.909C751.051 712.119 619.625 712.299 457.557 712.299C295.488 712.299 164.034 712.134 164.034 711.909C164.034 711.684 295.433 711.519 457.557 711.519C619.68 711.519 751.051 711.684 751.051 711.909Z" fill="#F1F3F4" fill-opacity="0.47"/>
<path d="M608.478 422.849L634.692 436.09C634.692 436.09 593.679 501.622 585.288 512.176C576.898 522.73 494.223 535.933 494.223 535.933L490.275 497.112L560.749 483.68L608.478 422.849Z" fill="#6366F1"/>
<path d="M581.596 515.285C581.442 515.285 581.254 512.944 580.366 509.336C579.84 507.226 579.165 505.166 578.349 503.176C577.315 500.764 576.104 498.453 574.726 496.268C573.295 494.12 571.7 492.117 569.959 490.281C568.528 488.791 566.991 487.437 565.362 486.232C562.576 484.159 560.645 483.258 560.714 483.104C560.782 482.95 561.226 483.219 562.115 483.603C563.361 484.164 564.562 484.844 565.704 485.637C567.412 486.79 569.025 488.113 570.523 489.59C572.328 491.441 573.976 493.478 575.444 495.673C576.869 497.909 578.088 500.3 579.084 502.812C579.892 504.857 580.527 506.984 580.981 509.163C581.3 510.624 581.506 512.114 581.596 513.615C581.684 514.167 581.684 514.733 581.596 515.285Z" fill="white"/>
<path d="M576.194 500.47C575.342 500.881 574.462 501.215 573.562 501.468C571.853 502.062 569.358 502.868 566.282 503.809C560.113 505.728 551.552 508.069 542 510.333C532.447 512.597 523.749 514.267 517.443 515.342C514.282 515.879 511.718 516.263 509.941 516.493C509.027 516.669 508.101 516.759 507.173 516.762C508.06 516.458 508.969 516.24 509.89 516.109L517.341 514.632C523.612 513.403 532.293 511.6 541.829 509.354C551.364 507.109 559.926 504.826 566.129 503.118L573.477 501.103C574.362 500.794 575.272 500.582 576.194 500.47Z" fill="white"/>
<path d="M615.309 427.128C615.497 427.301 604.885 441.118 591.625 457.966C578.364 474.814 567.461 488.343 567.188 488.17C566.914 487.997 577.612 474.162 590.873 457.314C604.133 440.465 615.036 426.937 615.309 427.128Z" fill="white"/>
<path d="M581.902 473.758C582.007 473.696 582.123 473.662 582.241 473.659C582.36 473.657 582.477 473.686 582.584 473.744C582.69 473.802 582.783 473.887 582.855 473.993C582.927 474.099 582.975 474.222 582.996 474.353C583.007 474.492 582.986 474.632 582.935 474.759C582.884 474.886 582.804 474.996 582.704 475.079C582.603 475.161 582.486 475.212 582.362 475.228C582.239 475.244 582.114 475.223 582 475.168C581.885 475.114 581.786 475.027 581.71 474.916C581.635 474.805 581.587 474.674 581.57 474.536C581.553 474.397 581.569 474.257 581.615 474.127C581.661 473.998 581.737 473.884 581.834 473.797" fill="white"/>
<path d="M538.975 504.998C539.079 504.931 539.196 504.894 539.316 504.889C539.435 504.884 539.554 504.912 539.662 504.971C539.77 505.029 539.864 505.117 539.934 505.225C540.005 505.334 540.051 505.46 540.069 505.593C540.083 505.733 540.063 505.875 540.013 506.004C539.962 506.133 539.883 506.246 539.782 506.329C539.68 506.413 539.562 506.465 539.437 506.481C539.312 506.497 539.186 506.476 539.07 506.42C538.955 506.364 538.855 506.275 538.78 506.162C538.705 506.049 538.658 505.916 538.643 505.776C538.628 505.636 538.646 505.494 538.695 505.364C538.745 505.234 538.824 505.121 538.924 505.037" fill="white"/>
<path d="M559.618 499.856C559.724 499.793 559.841 499.759 559.961 499.758C560.08 499.756 560.199 499.787 560.305 499.847C560.412 499.907 560.505 499.995 560.576 500.103C560.646 500.211 560.693 500.337 560.712 500.47C560.71 500.602 560.68 500.733 560.625 500.85C560.57 500.968 560.491 501.069 560.394 501.145C560.297 501.222 560.186 501.272 560.069 501.291C559.952 501.311 559.833 501.299 559.721 501.256C559.614 501.197 559.523 501.109 559.453 501.001C559.384 500.893 559.339 500.767 559.322 500.635C559.305 500.503 559.317 500.368 559.357 500.243C559.396 500.117 559.463 500.004 559.55 499.913" fill="white"/>
<path d="M593.608 459.001C593.712 458.934 593.829 458.896 593.949 458.892C594.068 458.887 594.187 458.915 594.295 458.974C594.403 459.032 594.496 459.12 594.567 459.228C594.638 459.337 594.684 459.463 594.702 459.596C594.715 459.736 594.696 459.878 594.646 460.007C594.595 460.136 594.515 460.248 594.414 460.332C594.313 460.416 594.194 460.468 594.07 460.484C593.945 460.5 593.818 460.479 593.703 460.423C593.588 460.367 593.488 460.278 593.413 460.165C593.338 460.052 593.29 459.919 593.276 459.779C593.261 459.639 593.279 459.497 593.328 459.367C593.378 459.237 593.456 459.124 593.557 459.04" fill="white"/>
<path d="M605.879 443.382C605.983 443.303 606.103 443.256 606.228 443.246C606.353 443.236 606.478 443.262 606.591 443.323C606.704 443.384 606.801 443.477 606.872 443.593C606.943 443.709 606.985 443.843 606.996 443.984C607.006 444.124 606.983 444.265 606.93 444.392C606.877 444.519 606.795 444.629 606.692 444.709C606.59 444.79 606.47 444.839 606.346 444.852C606.221 444.865 606.095 444.841 605.981 444.782C605.869 444.719 605.774 444.624 605.704 444.507C605.634 444.39 605.592 444.255 605.582 444.114C605.571 443.974 605.593 443.833 605.645 443.704C605.697 443.576 605.778 443.465 605.879 443.382Z" fill="white"/>
<g opacity="0.3">
<path d="M556.63 487.498C556.818 488.86 546.189 491.931 532.894 494.349C519.599 496.766 508.628 497.611 508.44 496.268C508.252 494.924 518.864 491.854 532.176 489.436C545.488 487.018 556.425 486.135 556.63 487.498Z" fill="white"/>
</g>
<path d="M521.102 508.587C521.205 508.508 521.326 508.461 521.451 508.451C521.576 508.441 521.701 508.467 521.814 508.528C521.927 508.589 522.023 508.682 522.094 508.798C522.165 508.914 522.208 509.048 522.218 509.189C522.229 509.329 522.206 509.47 522.153 509.597C522.1 509.724 522.018 509.834 521.915 509.915C521.813 509.995 521.693 510.045 521.568 510.057C521.443 510.07 521.318 510.046 521.204 509.987C521.092 509.924 520.997 509.829 520.927 509.712C520.857 509.595 520.815 509.46 520.804 509.319C520.794 509.179 520.816 509.038 520.868 508.909C520.92 508.781 521 508.67 521.102 508.587Z" fill="white"/>
<path d="M482.875 491.413C486.463 490.114 490.315 490.056 493.932 491.247C497.549 492.437 500.764 494.822 503.159 498.091C505.466 501.434 507.032 505.346 507.727 509.504C508.423 513.661 508.228 517.945 507.158 522.001C505.124 530.118 495.486 541.075 488.959 544.126" fill="#263238"/>
<path d="M641.695 427.128C643.935 423.853 645.87 420.329 647.471 416.612C649.08 412.877 649.628 408.677 649.043 404.58C648.735 402.542 647.976 400.623 646.835 399.001C645.695 397.378 644.209 396.103 642.515 395.293C640.798 394.549 638.905 394.497 637.157 395.144C635.409 395.791 633.915 397.098 632.929 398.843L639.884 383.491C640.738 381.572 641.593 379.212 640.465 377.504C639.869 376.776 639.056 376.319 638.18 376.22C637.305 376.12 636.427 376.386 635.714 376.967C634.323 378.182 633.23 379.773 632.536 381.591L622.282 403.256L613.191 387.272C612.268 385.66 610.953 383.817 609.261 384.124C608.599 384.323 608.017 384.766 607.607 385.383C607.198 385.999 606.986 386.752 607.005 387.521C607.097 389.065 607.494 390.566 608.167 391.915C610.816 398.21 615.618 412.544 615.618 412.544L641.695 427.128Z" fill="#6366F1"/>
<path d="M488.958 543.032C488.822 542.878 491.3 540.748 494.273 536.354C496.016 533.802 497.357 530.933 498.238 527.872C499.265 524.104 499.625 520.147 499.297 516.224C498.822 509.04 496.735 502.109 493.231 496.075C492.289 494.192 490.987 492.567 489.42 491.316C488.799 490.928 488.147 490.606 487.472 490.357C487.664 490.315 487.861 490.315 488.053 490.357C488.59 490.462 489.109 490.663 489.591 490.952C491.292 492.135 492.721 493.752 493.76 495.672C497.503 501.724 499.722 508.798 500.186 516.147C500.563 520.224 500.196 524.344 499.109 528.256C498.161 531.397 496.72 534.321 494.854 536.891C493.626 538.615 492.258 540.208 490.77 541.65C490.215 542.186 489.607 542.65 488.958 543.032Z" fill="#455A64"/>
<path d="M608.475 422.849C615.585 427.955 623.009 432.489 630.69 436.416C633.749 438.009 637.526 439.486 640.294 437.28C641.233 436.403 641.93 435.245 642.305 433.94C642.681 432.636 642.718 431.238 642.413 429.911C641.754 427.259 640.501 424.841 638.773 422.888C633.753 416.564 627.233 411.978 619.976 409.666C617.43 408.703 614.711 408.465 612.064 408.975C610.743 409.24 609.508 409.893 608.485 410.867C607.462 411.841 606.686 413.102 606.236 414.521C605.756 415.987 605.708 417.588 606.098 419.087C606.489 420.586 607.298 421.905 608.407 422.849" fill="#263238"/>
<path d="M641.44 433.652C641.303 433.652 640.312 431.349 638.022 428.087C635.035 423.809 631.229 420.341 626.887 417.94C622.544 415.538 617.776 414.264 612.936 414.213C609.227 414.213 606.937 414.712 606.903 414.539C607.407 414.282 607.943 414.113 608.493 414.04C609.959 413.731 611.444 413.551 612.936 413.503C617.91 413.36 622.84 414.573 627.305 417.04C631.77 419.506 635.635 423.152 638.569 427.665C639.46 429.011 640.243 430.443 640.91 431.944C641.171 432.476 641.35 433.053 641.44 433.652Z" fill="#455A64"/>
<path d="M408.384 361.807C408.384 361.807 351.991 373.513 352.709 430.218C353.427 486.922 401.172 477.385 415.048 475.389C421.337 474.488 433.846 472.492 445.688 470.573C470.757 466.505 489.469 452.804 490.956 424.403C491.143 421.074 491.04 417.732 490.648 414.425C487.145 384.451 462.213 348.374 408.384 361.807Z" fill="#6366F1"/>
<path d="M469.241 418.665L397.28 435.802C393.659 436.666 389.88 435.88 386.775 433.617C383.67 431.353 381.492 427.798 380.721 423.732C379.957 419.663 380.661 415.42 382.679 411.934C384.698 408.447 387.865 406.003 391.487 405.137L463.447 387.982C467.071 387.123 470.849 387.913 473.954 390.18C477.058 392.447 479.235 396.004 480.006 400.071C480.387 402.086 480.411 404.165 480.076 406.19C479.741 408.215 479.054 410.146 478.054 411.873C477.055 413.6 475.762 415.089 474.249 416.254C472.737 417.42 471.035 418.239 469.241 418.665Z" fill="#263238"/>
<path d="M407.001 423.828C409.473 423.828 411.478 421.577 411.478 418.8C411.478 416.023 409.473 413.772 407.001 413.772C404.528 413.772 402.523 416.023 402.523 418.8C402.523 421.577 404.528 423.828 407.001 423.828Z" fill="white"/>
<path d="M457.277 411.815C459.75 411.815 461.754 409.564 461.754 406.787C461.754 404.01 459.75 401.759 457.277 401.759C454.804 401.759 452.8 404.01 452.8 406.787C452.8 409.564 454.804 411.815 457.277 411.815Z" fill="white"/>
<path d="M430.362 391.742C429.456 389.879 428.652 387.957 427.952 385.985C426.147 381.361 423.796 377.03 420.963 373.109C418.21 369.14 414.564 366.066 410.402 364.205C408.635 363.558 406.831 363.045 405.002 362.67C405.504 362.559 406.021 362.559 406.523 362.67C407.913 362.789 409.284 363.098 410.607 363.591C414.973 365.324 418.804 368.428 421.646 372.533C424.521 376.516 426.827 380.977 428.482 385.755C429.131 387.674 429.61 389.075 429.917 390.111C430.137 390.627 430.286 391.177 430.362 391.742Z" fill="white"/>
<path d="M432.172 472.741C432.053 472.626 433.676 470.822 435.59 467.541C438.166 463.198 439.858 458.271 440.546 453.11C441.101 447.919 441.061 442.67 440.426 437.49C440.046 435.342 439.789 433.17 439.657 430.985C439.877 431.524 440.038 432.091 440.136 432.674C440.375 433.787 440.699 435.379 441.041 437.375C441.882 442.613 442.009 447.964 441.417 453.245C440.736 458.556 438.911 463.602 436.103 467.944C435.264 469.248 434.333 470.474 433.317 471.609C432.984 472.044 432.599 472.425 432.172 472.741Z" fill="white"/>
<g opacity="0.3">
<path d="M484.547 448.121C477.926 443.552 470.371 440.969 462.606 440.618C454.881 440.302 447.149 440.9 439.536 442.403C421.866 445.397 403.769 450.079 389.466 462.091C385.26 465.267 381.913 469.682 379.794 474.852C379.794 474.852 387.381 478.364 402.522 477.232C417.662 476.1 448.883 469.997 448.883 469.997C448.883 469.997 464.861 466.966 473.884 459.386C482.907 451.806 484.547 448.121 484.547 448.121Z" fill="black"/>
</g>
<path d="M484.379 398.478C484.693 399.418 484.906 400.398 485.011 401.395C485.396 404.262 485.161 407.19 484.327 409.934C482.944 414.288 480.239 417.957 476.689 420.296C472.605 423.137 467.29 424.672 461.514 426.053L420.792 436.147L409.018 439.025C405.002 439.946 400.935 441.155 396.646 441.769C392.238 442.646 387.696 441.778 383.795 439.313C379.89 436.514 377.061 432.173 375.866 427.147C374.674 422.117 375.23 416.766 377.421 412.179C379.552 407.757 382.947 404.269 387.059 402.278C389.053 401.428 391.112 400.785 393.211 400.359L399.277 398.766L411 395.696L432.703 389.939C439.538 388.308 445.741 386.101 451.586 384.834C454.359 384.19 457.168 383.76 459.993 383.549C462.524 383.311 465.07 383.408 467.581 383.836C471.632 384.484 475.469 386.288 478.722 389.075C480.738 390.869 482.358 393.161 483.456 395.772C483.751 396.446 483.997 397.145 484.191 397.864C484.272 398.101 484.335 398.345 484.379 398.593C484.379 398.593 484.088 397.615 483.302 395.868C482.152 393.326 480.511 391.104 478.5 389.363C475.27 386.69 471.49 384.98 467.512 384.393C465.038 384.001 462.533 383.93 460.044 384.182C457.241 384.421 454.455 384.87 451.705 385.525C445.912 386.868 439.743 389.075 432.908 390.745L411.222 396.502L399.499 399.629L393.433 401.222C391.385 401.652 389.377 402.294 387.435 403.141C383.509 405.059 380.267 408.396 378.224 412.621C376.134 416.982 375.603 422.073 376.737 426.859C377.886 431.617 380.573 435.722 384.273 438.373C388.009 440.713 392.347 441.539 396.56 440.714C400.747 440.1 404.831 438.91 408.847 437.989L420.638 435.149L461.394 425.343C466.651 424.439 471.738 422.565 476.45 419.798C479.944 417.563 482.625 414.016 484.02 409.781C484.864 407.093 485.15 404.225 484.857 401.395C484.635 399.476 484.327 398.497 484.379 398.478Z" fill="white"/>
<path d="M353.496 439.601C354.288 438.551 355.215 437.639 356.247 436.896C360.998 432.958 366.341 430.014 372.02 428.203C373.171 427.751 374.374 427.486 375.592 427.416C375.677 427.723 370.277 429.335 364.176 432.655C358.076 435.975 353.667 439.851 353.496 439.601Z" fill="white"/>
<path d="M412.093 369.752C412.197 369.673 412.317 369.626 412.442 369.616C412.567 369.606 412.692 369.632 412.805 369.693C412.918 369.754 413.015 369.847 413.086 369.963C413.157 370.079 413.199 370.214 413.21 370.354C413.22 370.494 413.197 370.635 413.144 370.762C413.091 370.889 413.009 370.999 412.906 371.08C412.804 371.16 412.684 371.21 412.56 371.222C412.435 371.235 412.309 371.211 412.195 371.152C412.087 371.085 411.995 370.989 411.928 370.872C411.861 370.755 411.82 370.621 411.81 370.483C411.8 370.344 411.821 370.205 411.87 370.077C411.919 369.95 411.996 369.838 412.093 369.752Z" fill="white"/>
<path d="M421.029 384.431C421.133 384.352 421.253 384.305 421.378 384.295C421.503 384.285 421.628 384.311 421.741 384.372C421.854 384.433 421.951 384.526 422.022 384.642C422.093 384.758 422.136 384.893 422.146 385.033C422.156 385.173 422.134 385.314 422.08 385.441C422.027 385.569 421.945 385.678 421.843 385.759C421.74 385.84 421.621 385.889 421.496 385.902C421.371 385.914 421.246 385.89 421.132 385.832C421.027 385.761 420.938 385.664 420.873 385.547C420.808 385.43 420.769 385.298 420.759 385.161C420.749 385.024 420.769 384.886 420.816 384.759C420.863 384.632 420.936 384.52 421.029 384.431Z" fill="white"/>
<path d="M366.91 425.497C367.015 425.43 367.134 425.393 367.255 425.389C367.375 425.385 367.495 425.415 367.604 425.476C367.712 425.537 367.805 425.626 367.875 425.737C367.945 425.848 367.989 425.977 368.004 426.111C368.006 426.246 367.979 426.379 367.925 426.498C367.871 426.618 367.791 426.721 367.694 426.799C367.596 426.876 367.483 426.926 367.364 426.943C367.246 426.96 367.125 426.945 367.013 426.898C366.908 426.834 366.818 426.743 366.75 426.633C366.682 426.522 366.639 426.395 366.624 426.261C366.609 426.128 366.623 425.993 366.663 425.867C366.704 425.74 366.771 425.627 366.859 425.536" fill="white"/>
<path d="M355.734 432.309C355.838 432.234 355.958 432.191 356.081 432.183C356.205 432.176 356.328 432.204 356.439 432.266C356.55 432.328 356.644 432.421 356.714 432.536C356.783 432.651 356.825 432.784 356.835 432.923C356.845 433.061 356.823 433.2 356.771 433.327C356.719 433.453 356.639 433.562 356.538 433.643C356.438 433.724 356.32 433.774 356.197 433.789C356.074 433.804 355.95 433.783 355.836 433.729C355.731 433.665 355.641 433.574 355.573 433.463C355.506 433.352 355.462 433.225 355.447 433.092C355.432 432.959 355.446 432.823 355.487 432.697C355.528 432.571 355.595 432.457 355.682 432.366" fill="white"/>
<g opacity="0.3">
<path d="M423.629 362.728C423.765 363.458 418.69 365.069 410.675 367.967C402.661 370.865 391.656 375.182 381.437 383.319C376.698 387.19 372.494 391.826 368.962 397.078C366.092 401.379 363.789 406.123 362.126 411.163C359.324 419.836 359.683 425.843 358.914 425.862C358.64 425.862 358.23 424.423 358.025 421.678C357.837 417.799 358.206 413.912 359.119 410.165C360.471 404.552 362.674 399.242 365.63 394.468C369.237 388.617 373.704 383.497 378.839 379.327C383.953 375.268 389.499 371.941 395.347 369.425C400.06 367.39 404.904 365.761 409.838 364.551C418.228 362.498 423.509 362.095 423.629 362.728Z" fill="white"/>
</g>
<g opacity="0.3">
<path d="M369.116 453.801C368.364 454.876 365.117 453.379 362.725 449.618C360.332 445.857 360.144 441.942 361.289 441.462C362.434 440.983 364.348 443.592 366.416 446.72C368.484 449.848 369.885 452.707 369.116 453.801Z" fill="white"/>
</g>
<path d="M486.035 484.601C489.453 485.694 489.248 541.267 488.513 569.629C488.12 584.827 487.112 600.697 480.208 613.765C472.518 628.33 457.873 637.636 442.818 638.711C424.721 640.093 406.812 630.249 394.423 615.338C382.034 600.428 374.685 580.97 370.738 561.071C366.79 541.171 366.021 520.773 365.27 500.297C365.27 500.374 423.918 464.931 486.035 484.601Z" fill="#6366F1"/>
<g opacity="0.2">
<path d="M368.02 527.239C367.61 545.162 370.429 565.829 375.539 580.778C381.076 596.973 389.107 611.481 402.539 623.762C406.307 626.927 410.309 629.726 414.501 632.129C418.037 634.179 421.769 635.769 425.626 636.868C432 638.922 435.742 630.056 436.99 622.745C438.237 615.434 435.896 607.777 431.863 601.809C427.68 596.011 422.604 591.104 416.876 587.321C411.159 583.555 405.637 579.429 400.334 574.963C391.633 566.603 384.713 556.156 380.084 544.394C375.479 532.672 371.658 520.582 368.652 508.222" fill="black"/>
</g>
<path d="M409.852 603.095C409.959 603.033 410.078 603 410.198 602.999C410.319 602.997 410.438 603.028 410.546 603.087C410.654 603.147 410.748 603.235 410.82 603.343C410.893 603.451 410.942 603.576 410.963 603.709C410.962 603.845 410.932 603.977 410.876 604.097C410.82 604.216 410.739 604.319 410.64 604.396C410.541 604.473 410.428 604.522 410.308 604.54C410.189 604.557 410.068 604.542 409.955 604.496C409.85 604.435 409.76 604.346 409.692 604.237C409.624 604.128 409.581 604.002 409.566 603.87C409.55 603.738 409.564 603.604 409.605 603.479C409.646 603.354 409.713 603.242 409.801 603.153" fill="white"/>
<path d="M431.795 602.079C431.9 602.004 432.019 601.961 432.143 601.953C432.267 601.946 432.39 601.974 432.501 602.036C432.611 602.098 432.706 602.191 432.776 602.306C432.845 602.421 432.887 602.554 432.897 602.693C432.907 602.831 432.885 602.971 432.833 603.097C432.781 603.223 432.7 603.332 432.6 603.413C432.499 603.494 432.382 603.544 432.259 603.559C432.136 603.574 432.012 603.553 431.898 603.499C431.791 603.437 431.7 603.347 431.63 603.237C431.561 603.127 431.516 603 431.5 602.867C431.483 602.733 431.495 602.598 431.534 602.47C431.574 602.343 431.64 602.229 431.727 602.136" fill="white"/>
<path d="M455.755 576.671C455.858 576.603 455.975 576.566 456.095 576.561C456.215 576.556 456.334 576.584 456.442 576.643C456.549 576.702 456.643 576.789 456.714 576.898C456.785 577.006 456.831 577.132 456.848 577.266C456.862 577.406 456.842 577.548 456.792 577.677C456.742 577.806 456.662 577.918 456.561 578.002C456.46 578.085 456.341 578.138 456.216 578.154C456.091 578.17 455.965 578.149 455.85 578.093C455.734 578.037 455.634 577.948 455.559 577.835C455.484 577.721 455.437 577.588 455.422 577.448C455.407 577.308 455.425 577.166 455.475 577.036C455.524 576.907 455.603 576.794 455.703 576.709" fill="white"/>
<path d="M444.751 513.864C444.857 513.802 444.975 513.768 445.094 513.767C445.214 513.765 445.332 513.796 445.439 513.856C445.546 513.916 445.638 514.004 445.709 514.112C445.78 514.22 445.826 514.346 445.845 514.478C445.842 514.611 445.812 514.742 445.757 514.86C445.702 514.977 445.623 515.079 445.527 515.157C445.431 515.235 445.321 515.287 445.204 515.309C445.087 515.331 444.967 515.323 444.854 515.284C444.747 515.222 444.656 515.133 444.586 515.023C444.517 514.913 444.472 514.786 444.456 514.653C444.439 514.519 444.451 514.383 444.49 514.256C444.53 514.129 444.596 514.014 444.683 513.922" fill="white"/>
<path d="M467.204 524.169C467.308 524.102 467.425 524.064 467.544 524.06C467.664 524.055 467.783 524.083 467.891 524.142C467.999 524.2 468.092 524.288 468.163 524.396C468.234 524.505 468.28 524.631 468.298 524.764C468.309 524.903 468.288 525.043 468.237 525.17C468.186 525.297 468.106 525.407 468.006 525.489C467.905 525.571 467.788 525.623 467.664 525.639C467.541 525.654 467.416 525.634 467.301 525.579C467.187 525.524 467.087 525.437 467.012 525.326C466.937 525.215 466.888 525.084 466.872 524.946C466.855 524.808 466.871 524.667 466.917 524.538C466.963 524.408 467.038 524.295 467.136 524.208" fill="white"/>
<path d="M385.008 595.784C385.113 595.721 385.231 595.688 385.351 595.686C385.47 595.685 385.588 595.715 385.695 595.775C385.802 595.835 385.895 595.923 385.965 596.031C386.036 596.14 386.083 596.265 386.101 596.398C386.1 596.531 386.07 596.661 386.015 596.778C385.959 596.896 385.88 596.997 385.784 597.074C385.687 597.15 385.576 597.2 385.459 597.22C385.342 597.239 385.222 597.227 385.11 597.185C385.004 597.125 384.912 597.037 384.843 596.929C384.773 596.821 384.728 596.695 384.711 596.563C384.695 596.431 384.707 596.296 384.746 596.171C384.786 596.045 384.852 595.932 384.939 595.841" fill="white"/>
<path d="M381.385 574.887C381.49 574.824 381.608 574.791 381.728 574.789C381.847 574.788 381.965 574.818 382.072 574.878C382.179 574.938 382.272 575.026 382.342 575.134C382.413 575.243 382.46 575.368 382.478 575.501C382.477 575.634 382.447 575.764 382.392 575.881C382.336 575.999 382.257 576.1 382.161 576.177C382.064 576.253 381.953 576.303 381.836 576.323C381.719 576.342 381.599 576.33 381.487 576.288C381.381 576.228 381.289 576.14 381.22 576.032C381.15 575.924 381.105 575.798 381.088 575.666C381.072 575.534 381.084 575.4 381.123 575.274C381.163 575.148 381.229 575.035 381.316 574.944" fill="white"/>
<path d="M379.795 555.966C379.901 555.903 380.018 555.87 380.138 555.868C380.257 555.867 380.376 555.897 380.483 555.957C380.589 556.017 380.682 556.105 380.753 556.213C380.823 556.322 380.87 556.447 380.889 556.58C380.891 556.714 380.864 556.847 380.809 556.967C380.755 557.087 380.676 557.19 380.578 557.267C380.481 557.345 380.368 557.394 380.249 557.412C380.13 557.429 380.01 557.414 379.898 557.367C379.792 557.303 379.702 557.212 379.635 557.101C379.567 556.99 379.524 556.863 379.509 556.73C379.494 556.597 379.507 556.461 379.548 556.335C379.589 556.209 379.656 556.096 379.744 556.004" fill="white"/>
<path d="M378.205 535.932C378.311 535.869 378.428 535.836 378.548 535.835C378.667 535.833 378.786 535.864 378.892 535.924C378.999 535.984 379.092 536.071 379.163 536.18C379.233 536.288 379.28 536.414 379.299 536.546C379.297 536.679 379.267 536.809 379.212 536.927C379.157 537.044 379.078 537.145 378.981 537.222C378.884 537.299 378.773 537.349 378.656 537.368C378.539 537.387 378.42 537.375 378.308 537.333C378.201 537.273 378.11 537.186 378.04 537.077C377.971 536.969 377.926 536.844 377.909 536.712C377.892 536.58 377.904 536.445 377.944 536.319C377.983 536.193 378.05 536.08 378.137 535.99" fill="white"/>
<path d="M480.531 519.256C480.635 519.177 480.755 519.131 480.88 519.12C481.005 519.11 481.13 519.137 481.243 519.198C481.356 519.258 481.453 519.351 481.524 519.467C481.595 519.583 481.638 519.718 481.648 519.858C481.658 519.998 481.636 520.139 481.582 520.266C481.529 520.394 481.447 520.503 481.345 520.584C481.242 520.665 481.123 520.714 480.998 520.727C480.873 520.74 480.748 520.715 480.634 520.657C480.522 520.593 480.426 520.498 480.356 520.381C480.286 520.264 480.244 520.129 480.234 519.989C480.224 519.848 480.246 519.707 480.298 519.579C480.35 519.451 480.43 519.339 480.531 519.256Z" fill="white"/>
<path d="M459.415 600.197C459.519 600.13 459.635 600.093 459.755 600.088C459.875 600.083 459.994 600.111 460.102 600.17C460.21 600.229 460.303 600.316 460.374 600.424C460.445 600.533 460.491 600.659 460.508 600.792C460.522 600.933 460.503 601.074 460.452 601.204C460.402 601.333 460.322 601.445 460.221 601.529C460.12 601.612 460.001 601.665 459.876 601.681C459.751 601.697 459.625 601.676 459.51 601.62C459.395 601.564 459.294 601.475 459.219 601.361C459.144 601.248 459.097 601.115 459.082 600.975C459.067 600.835 459.086 600.693 459.135 600.563C459.184 600.434 459.263 600.321 459.363 600.236" fill="white"/>
<path d="M461.821 620.039C461.925 619.961 462.046 619.914 462.171 619.904C462.295 619.893 462.421 619.92 462.534 619.981C462.646 620.042 462.743 620.135 462.814 620.251C462.885 620.366 462.928 620.501 462.938 620.641C462.948 620.781 462.926 620.922 462.873 621.05C462.819 621.177 462.738 621.286 462.635 621.367C462.532 621.448 462.413 621.497 462.288 621.51C462.163 621.523 462.038 621.499 461.924 621.44C461.816 621.373 461.724 621.276 461.657 621.16C461.589 621.043 461.549 620.909 461.539 620.77C461.529 620.632 461.549 620.493 461.598 620.365C461.648 620.237 461.724 620.126 461.821 620.039Z" fill="white"/>
<g opacity="0.3">
<path d="M472.432 499.472C472.603 500.067 467.306 502.734 458.249 505.478C452.944 507.089 447.564 508.37 442.134 509.316C428.812 511.643 415.288 512.158 401.856 510.851C396.386 510.315 390.944 509.457 385.554 508.28C376.36 506.207 370.909 503.962 371.045 503.348C371.319 501.832 393.808 507.647 421.901 506.457C449.995 505.267 472.056 498.052 472.432 499.472Z" fill="white"/>
</g>
<path d="M407.822 628.041C407.822 628.041 407.48 627.792 406.882 627.235C406.284 626.679 405.43 625.796 404.387 624.626C401.381 621.311 398.937 617.41 397.176 613.112C396.01 610.142 395.051 607.075 394.305 603.939C393.417 600.62 392.596 597.031 391.639 593.251C389.845 585.671 388.102 577.305 386.513 568.439C383.854 553.258 381.966 537.921 380.856 522.499C380.463 516.608 380.241 511.83 380.139 508.51V504.672C380.109 504.225 380.109 503.776 380.139 503.329C380.232 503.763 380.284 504.207 380.292 504.653C380.292 505.632 380.446 506.879 380.549 508.491C380.754 511.792 381.079 516.57 381.557 522.442C382.565 534.205 384.325 550.439 387.47 568.132C389.042 576.959 390.751 585.402 392.596 592.906C393.468 596.743 394.305 600.255 395.177 603.594C395.881 606.704 396.789 609.75 397.894 612.709C399.564 616.961 401.877 620.856 404.729 624.223C405.72 625.432 406.541 626.334 407.087 626.948C407.354 627.293 407.6 627.658 407.822 628.041Z" fill="white"/>
<path d="M447.606 566.828C447.845 566.828 449.674 582.064 451.707 600.947C453.741 619.829 455.125 635.161 454.937 635.2C454.749 635.238 452.852 619.944 450.818 601.062C448.785 582.179 447.349 566.847 447.606 566.828Z" fill="white"/>
<path d="M421.869 480.686C422.333 481.082 422.747 481.547 423.1 482.068C423.834 482.989 424.808 484.351 426.175 486.04C428.756 489.436 432.259 494.176 436.087 499.473L437.505 501.391L437.676 501.622C437.77 501.699 437.842 501.806 437.881 501.929C437.934 502.066 437.98 502.207 438.018 502.351V502.677C438.103 503.099 438.138 503.502 438.189 503.905C438.326 505.517 438.411 507.072 438.479 508.549C438.616 511.485 438.667 514.152 438.719 516.378C438.77 518.604 438.719 520.408 438.719 521.656C438.76 522.298 438.72 522.944 438.599 523.574C438.28 521.192 438.103 518.788 438.069 516.378C437.95 514.076 437.796 511.447 437.642 508.588C437.642 507.11 437.454 505.575 437.3 504.001C437.3 503.617 437.215 503.214 437.146 502.85V502.562V502.408C437.146 502.408 436.941 502.159 436.856 501.986L435.438 500.067C431.61 494.809 428.175 489.993 425.731 486.5C424.501 484.735 423.527 483.315 422.86 482.298C422.472 481.809 422.139 481.267 421.869 480.686Z" fill="white"/>
<path d="M449.126 595.784C448.434 596.043 447.717 596.21 446.99 596.283C445.589 596.551 443.573 596.858 441.095 597.204C436.105 597.914 429.133 598.662 421.528 599.123C413.924 599.583 406.918 599.583 401.893 599.468C399.399 599.468 397.365 599.315 395.964 599.219C395.229 599.214 394.497 599.13 393.776 598.969C394.499 598.831 395.232 598.779 395.964 598.816H401.911C406.918 598.816 413.873 598.605 421.494 598.183C429.116 597.76 436.037 597.108 441.026 596.59L446.939 595.976C447.661 595.835 448.394 595.771 449.126 595.784Z" fill="white"/>
<path d="M488.856 521.655C488.856 521.655 488.463 522.058 487.677 522.596C486.571 523.369 485.43 524.08 484.26 524.726C480.38 526.85 476.344 528.59 472.195 529.926C468.061 531.3 463.847 532.352 459.584 533.073C457.828 533.466 456.042 533.659 454.252 533.649C455.963 533.101 457.704 532.677 459.464 532.382C462.694 531.653 467.137 530.463 471.939 528.986C476.046 527.633 480.075 525.999 484.003 524.092C486.891 522.596 488.703 521.521 488.856 521.655Z" fill="white"/>
<path d="M456.054 560.872C463.875 552.089 463.875 537.849 456.054 529.066C448.233 520.283 435.552 520.283 427.73 529.066C419.909 537.849 419.909 552.089 427.73 560.872C435.552 569.655 448.233 569.655 456.054 560.872Z" fill="#263238"/>
<path d="M447.236 560.242C454.734 556.922 458.416 547.404 455.459 538.985C452.503 530.565 444.028 526.431 436.529 529.751C429.031 533.071 425.35 542.588 428.306 551.008C431.263 559.427 439.738 563.562 447.236 560.242Z" fill="white"/>
<path d="M449.655 548.501C449.498 547.621 449.395 546.73 449.348 545.834C449.211 544.145 449.023 541.727 448.818 538.791L449.006 539.098L441.196 534.819H441.623L434.378 540.211C434.19 540.614 434.617 539.674 434.566 539.77V540.365V540.998V542.265C434.566 543.109 434.651 543.934 434.685 544.74C434.771 546.371 434.839 547.945 434.925 549.461L434.685 549.077L442.41 553.548H442.085C444.306 551.955 446.135 550.689 447.417 549.806C448.093 549.319 448.795 548.876 449.518 548.482C448.975 549.081 448.373 549.609 447.724 550.056C446.511 551.034 444.717 552.435 442.444 554.162L442.29 554.277H442.119L434.31 549.998L434.104 549.883V549.595C434.019 548.079 433.916 546.506 433.831 544.874C433.831 544.068 433.746 543.243 433.694 542.399V541.132V540.499V539.77C433.694 539.866 434.087 538.926 433.899 539.309L441.179 533.975L441.384 533.821L441.589 533.956L449.313 538.427L449.501 538.523V538.734C449.621 541.785 449.689 544.26 449.723 545.949C449.782 546.8 449.76 547.656 449.655 548.501Z" fill="#6366F1"/>
<g opacity="0.2">
<path d="M365.27 500.374C365.27 500.374 423.935 464.394 486.035 484.6C486.035 484.6 459.462 512.905 365.27 500.374Z" fill="black"/>
</g>
<path d="M253.562 481.991C253.562 481.991 249.443 463.051 247.239 462.149C245.035 461.247 218.598 465.507 218.598 465.507C218.598 465.507 210.054 452.075 208.687 450.271C207.32 448.467 204.5 452.938 205.423 454.972C206.346 457.006 212.652 476.637 216.565 477.309C221.16 477.612 225.769 477.541 230.355 477.098L233.568 489.456L253.562 481.991Z" fill="#6366F1"/>
<path d="M367.835 555.295C351.156 562.126 340.493 565.581 323.798 572.566C314.535 576.403 302.744 580.702 294.012 583.216C288.185 584.904 281.503 585.422 275.864 582.659C271.062 580.318 267.542 575.617 264.38 570.915C249.564 548.924 241.311 521.023 235.552 494.157L255.597 489.917L291.859 546.871L357.77 521.56L368.638 551.649C368.868 551.92 369.034 552.252 369.119 552.614C369.205 552.976 369.208 553.356 369.128 553.72C369.048 554.083 368.887 554.418 368.661 554.693C368.435 554.969 368.151 555.176 367.835 555.295Z" fill="#6366F1"/>
<path d="M368.518 507.742C364.469 509.134 360.832 511.734 357.995 515.263C355.157 518.792 353.225 523.12 352.405 527.785C351.584 532.449 351.906 537.277 353.335 541.753C354.764 546.229 357.247 550.186 360.52 553.202C363.255 555.716 367.1 557.654 370.295 553.816C371.287 552.584 372.001 551.104 372.38 549.498C375.935 535.541 374.551 520.581 368.518 507.742Z" fill="#263238"/>
<path d="M358.399 514.939C358.399 514.939 358.399 514.766 358.639 514.498C358.909 514.112 359.225 513.77 359.579 513.481C359.865 513.264 360.193 513.126 360.535 513.078C360.935 513.074 361.331 513.166 361.698 513.346C362.131 513.543 362.509 513.868 362.791 514.287L363.646 515.553C366.785 520.259 368.945 525.695 369.968 531.461C371.049 537.226 370.902 543.196 369.541 548.885C369.101 550.634 368.251 552.218 367.08 553.472C366.664 553.945 366.137 554.278 365.56 554.431C365.56 554.431 366.089 554.047 366.841 553.184C367.857 551.902 368.579 550.36 368.943 548.693C370.084 543.098 370.136 537.292 369.097 531.672C368.09 526.036 366.059 520.692 363.133 515.975C362.552 515.054 362.159 514.056 361.424 513.845C361.164 513.677 360.87 513.588 360.57 513.588C360.27 513.588 359.975 513.677 359.715 513.845C358.861 514.44 358.451 515.016 358.399 514.939Z" fill="#455A64"/>
<path d="M291.859 546.966C292.04 547.493 292.139 548.051 292.149 548.616C292.341 550.135 292.404 551.67 292.337 553.202C292.262 555.486 291.952 557.753 291.414 559.957C289.556 567.624 285.312 574.29 279.452 578.744C278.334 579.625 277.157 580.407 275.932 581.085C275.501 581.371 275.034 581.584 274.548 581.718C274.548 581.545 276.376 580.471 279.076 578.168C282.6 575.185 285.562 571.448 287.792 567.172C288.99 564.815 289.942 562.31 290.628 559.708C291.176 557.571 291.536 555.379 291.705 553.164C291.961 549.364 291.688 546.985 291.859 546.966Z" fill="white"/>
<path d="M354.625 528.583C354.71 528.832 340.732 534.973 323.404 542.284C306.076 549.595 291.961 555.333 291.875 555.064C291.79 554.796 305.751 548.674 323.096 541.363C340.441 534.052 354.539 528.257 354.625 528.583Z" fill="white"/>
<path d="M242.078 493.715C242.229 493.99 242.344 494.287 242.42 494.598L243.275 497.208C243.992 499.453 244.984 502.715 246.436 506.803C249.17 514.805 253.272 525.723 258.484 537.506C261.098 543.263 263.747 548.827 266.259 553.74C268.771 558.652 271.18 562.989 273.299 566.539C274.342 568.343 275.316 569.936 276.187 571.337C277.059 572.738 277.794 573.946 278.443 574.887L279.879 577.151C280.186 577.669 280.357 577.957 280.323 577.976C280.106 577.765 279.911 577.527 279.742 577.266L278.17 575.136C277.486 574.215 276.683 573.045 275.794 571.663C274.906 570.281 273.846 568.727 272.787 566.942C270.582 563.431 268.156 559.075 265.541 554.22C262.927 549.365 260.312 543.819 257.68 537.966C253.222 527.95 249.269 517.662 245.838 507.148C244.522 503.099 243.565 499.798 242.95 497.553C242.677 496.498 242.437 495.634 242.249 494.905C242.131 494.523 242.073 494.12 242.078 493.715Z" fill="white"/>
<path d="M304.829 553.893C304.927 553.818 305.008 553.716 305.064 553.597C305.12 553.478 305.149 553.346 305.149 553.212C305.149 553.078 305.12 552.946 305.064 552.827C305.008 552.708 304.927 552.607 304.829 552.531C304.719 552.461 304.596 552.425 304.47 552.425C304.345 552.426 304.221 552.464 304.113 552.535C304.004 552.605 303.914 552.707 303.851 552.829C303.789 552.952 303.756 553.09 303.756 553.231C303.756 553.372 303.789 553.511 303.851 553.633C303.914 553.755 304.004 553.857 304.113 553.928C304.221 553.999 304.345 554.037 304.47 554.037C304.596 554.038 304.719 554.001 304.829 553.932" fill="white"/>
<path d="M276.956 563.163C277.064 563.093 277.154 562.992 277.217 562.871C277.28 562.75 277.314 562.613 277.315 562.472C277.316 562.332 277.284 562.194 277.224 562.072C277.163 561.95 277.075 561.847 276.968 561.775C276.861 561.703 276.739 561.663 276.614 561.659C276.49 561.656 276.366 561.689 276.256 561.756C276.147 561.822 276.054 561.92 275.988 562.039C275.922 562.157 275.885 562.294 275.88 562.434C275.88 562.575 275.913 562.715 275.975 562.839C276.037 562.962 276.127 563.066 276.235 563.139C276.343 563.212 276.467 563.253 276.593 563.257C276.719 563.261 276.845 563.229 276.956 563.163Z" fill="white"/>
<path d="M264.225 540.902C264.332 540.833 264.422 540.733 264.484 540.612C264.547 540.492 264.581 540.356 264.582 540.217C264.584 540.078 264.554 539.94 264.494 539.818C264.435 539.696 264.348 539.593 264.242 539.52C264.137 539.447 264.017 539.405 263.893 539.4C263.769 539.395 263.646 539.425 263.536 539.489C263.425 539.553 263.332 539.648 263.264 539.764C263.196 539.881 263.156 540.015 263.148 540.154C263.15 540.296 263.184 540.434 263.246 540.557C263.308 540.681 263.397 540.784 263.504 540.859C263.612 540.933 263.734 540.976 263.86 540.984C263.986 540.992 264.111 540.964 264.225 540.902Z" fill="white"/>
<path d="M321.197 547.446C321.305 547.376 321.395 547.276 321.457 547.155C321.52 547.034 321.554 546.896 321.555 546.756C321.556 546.616 321.525 546.478 321.464 546.356C321.403 546.233 321.315 546.131 321.208 546.059C321.101 545.986 320.979 545.946 320.855 545.943C320.73 545.94 320.607 545.973 320.497 546.039C320.387 546.106 320.294 546.203 320.228 546.322C320.162 546.441 320.125 546.577 320.12 546.717C320.125 546.857 320.161 546.994 320.224 547.114C320.287 547.235 320.376 547.336 320.483 547.408C320.59 547.481 320.711 547.522 320.836 547.529C320.96 547.535 321.084 547.507 321.197 547.446Z" fill="white"/>
<path d="M339.67 540.308C339.776 540.245 339.894 540.212 340.013 540.21C340.133 540.209 340.251 540.239 340.358 540.299C340.465 540.359 340.557 540.447 340.628 540.555C340.699 540.664 340.745 540.789 340.764 540.922C340.761 541.055 340.731 541.185 340.676 541.303C340.621 541.421 340.542 541.522 340.446 541.6C340.35 541.678 340.24 541.731 340.123 541.753C340.006 541.775 339.886 541.766 339.773 541.728C339.666 541.666 339.575 541.576 339.505 541.466C339.436 541.356 339.391 541.229 339.375 541.096C339.358 540.963 339.37 540.827 339.409 540.7C339.449 540.572 339.515 540.458 339.602 540.365" fill="white"/>
<path d="M235.106 494.387C241.954 493.835 248.76 492.752 255.475 491.144C258.158 490.53 261.268 489.436 262.106 486.5C262.352 485.426 262.322 484.295 262.02 483.239C261.717 482.182 261.155 481.244 260.397 480.532C258.818 479.171 256.962 478.274 254.997 477.922C248.998 476.528 242.77 477.073 237.037 479.496C234.967 480.253 233.094 481.571 231.585 483.334C230.838 484.226 230.313 485.324 230.064 486.516C229.815 487.709 229.851 488.954 230.167 490.127C230.485 491.345 231.144 492.417 232.045 493.184C232.946 493.951 234.043 494.372 235.174 494.387" fill="#263238"/>
<path d="M261.218 483.583C261.218 483.737 259.509 482.758 256.553 481.875C252.78 480.748 248.833 480.572 244.992 481.358C241.152 482.144 237.513 483.874 234.338 486.423C231.894 488.342 230.629 489.973 230.51 489.839C230.71 489.385 230.982 488.975 231.313 488.63C232.126 487.623 233.012 486.692 233.962 485.848C237.141 483.04 240.883 481.149 244.863 480.34C248.843 479.53 252.938 479.827 256.792 481.204C257.97 481.607 259.114 482.127 260.21 482.758C260.582 482.972 260.922 483.251 261.218 483.583Z" fill="#455A64"/>
<path d="M442.373 410.933C442.817 412.309 442.817 413.816 442.373 415.193C441.99 416.725 441.287 418.133 440.323 419.299C439.483 420.313 438.464 421.117 437.33 421.66C436.196 422.202 434.973 422.472 433.741 422.45C432.508 422.428 431.294 422.116 430.175 421.534C429.057 420.951 428.061 420.111 427.25 419.069C426.302 418.05 425.698 416.694 425.541 415.231C426.153 416.425 426.875 417.544 427.694 418.57C428.612 419.611 429.728 420.404 430.958 420.892C432.459 421.477 434.077 421.57 435.623 421.161C437.171 420.778 438.588 419.906 439.707 418.647C440.618 417.597 441.317 416.341 441.758 414.962C442.087 413.647 442.293 412.296 442.373 410.933Z" fill="white"/>
<path d="M287.164 625.754C289.183 626.118 291.114 626.924 292.839 628.124C294.565 629.324 296.05 630.892 297.204 632.735C299.495 636.444 300.979 640.675 301.542 645.104C302.85 653.586 300.743 663.239 297.851 671.241C289.905 667.187 285.677 657.099 283.817 651.83C280.898 643.513 280.237 626.535 287.164 625.754Z" fill="#647CFC" fill-opacity="0.73"/>
<path d="M309.558 683.265C308.361 681.141 307.702 678.708 307.649 676.216C307.596 673.724 308.15 671.261 309.255 669.078C310.388 666.914 311.906 665.017 313.72 663.499C315.534 661.981 317.606 660.872 319.818 660.236C320.806 659.83 321.863 659.662 322.917 659.745C323.97 659.828 324.994 660.159 325.919 660.717C326.694 661.386 327.29 662.27 327.643 663.276C327.997 664.282 328.096 665.374 327.929 666.436C327.585 668.566 326.724 670.556 325.437 672.201C321.305 678.026 316.306 682.83 309.558 683.265Z" fill="#647CFC" fill-opacity="0.73"/>
<path d="M307.548 710.091C307.389 709.511 307.301 708.91 307.286 708.305C307.176 707.149 307.039 705.482 306.942 703.396C306.571 697.967 306.872 692.509 307.837 687.168C308.854 681.774 311.196 676.782 314.613 672.726C315.654 671.514 316.834 670.454 318.125 669.573C318.576 669.215 319.079 668.941 319.612 668.763C317.993 670.101 316.474 671.577 315.068 673.176C311.892 677.257 309.705 682.139 308.705 687.378C307.768 692.647 307.384 698.016 307.562 703.381C307.685 705.616 307.68 707.857 307.548 710.091Z" fill="#263238"/>
<path d="M289.066 638.633C289.483 639.522 289.819 640.452 290.072 641.411C290.664 643.212 291.449 645.839 292.454 649.097C294.41 655.627 296.972 664.679 299.574 674.752C302.177 684.826 304.34 694.028 305.786 700.693C306.516 704.026 307.08 706.698 307.438 708.62C307.679 709.603 307.84 710.608 307.92 711.622C307.573 710.699 307.301 709.745 307.108 708.77L305.18 700.919C303.568 694.298 301.323 685.141 298.734 675.083C296.145 665.025 293.666 655.927 291.848 649.367C290.981 646.199 290.278 643.572 289.727 641.576C289.438 640.615 289.217 639.631 289.066 638.633Z" fill="#263238"/>
<path d="M298.981 691.266C296.996 686.475 293.994 682.268 290.222 678.992C286.45 675.716 282.018 673.466 277.29 672.426C274.88 671.931 271.919 672.006 270.583 674.243C269.247 676.479 270.39 679.482 271.823 681.644C274.911 686.097 279.138 689.455 283.973 691.296C288.808 693.136 294.035 693.377 298.995 691.987" fill="#647CFC" fill-opacity="0.73"/>
<path d="M279.92 679.978C280.454 679.946 280.988 680.007 281.504 680.158C282.123 680.247 282.736 680.387 283.336 680.578C284.137 680.787 284.928 681.042 285.704 681.344C287.738 682.129 289.695 683.135 291.544 684.346C293.8 685.841 295.901 687.598 297.81 689.585C299.695 691.601 301.371 693.837 302.809 696.251C303.977 698.223 304.955 700.321 305.729 702.511C306.03 703.347 306.292 704.198 306.514 705.063C306.704 705.711 306.851 706.373 306.955 707.045C307.097 707.602 307.171 708.177 307.175 708.756C307.01 708.756 306.569 706.384 305.15 702.751C304.305 700.659 303.296 698.65 302.134 696.746C300.688 694.424 299.037 692.262 297.204 690.291C295.339 688.351 293.3 686.621 291.117 685.127C289.331 683.909 287.445 682.874 285.484 682.034C282.179 680.548 279.893 680.158 279.92 679.978Z" fill="#263238"/>
<path d="M696.464 270.266C688.583 246.889 658.67 225.229 630.043 225.229C606.08 219.219 573.776 230.419 560.956 242.479C544.116 258.324 533.386 280.257 540.279 300.785C547.171 321.313 566.493 338.271 589.974 345.9C616.717 354.603 648.882 351.032 671.145 335.734C693.408 320.435 704.367 293.643 696.464 270.266Z" fill="#6366F1"/>
<path opacity="0.8" d="M696.464 270.266C688.584 246.889 658.67 225.229 630.043 225.229C606.08 219.219 573.776 230.419 560.956 242.479C544.116 258.324 533.386 280.257 540.279 300.785C547.171 321.313 566.493 338.271 589.974 345.9C616.717 354.603 648.882 351.032 671.145 335.734C693.408 320.435 704.367 293.643 696.464 270.266Z" fill="white"/>
<path d="M655.313 305.019C655.285 304.799 655.285 304.576 655.313 304.356C655.313 303.868 655.313 303.244 655.313 302.405C655.313 300.687 655.313 298.287 655.199 295.224C655.199 288.94 655.061 280.003 654.969 268.997L655.199 269.329L618.438 251.435H619.013L582.367 269.427C582.092 269.836 582.712 268.9 582.643 268.997V287.672C582.643 293.682 582.643 299.517 582.643 305.117L582.367 304.707L618.967 322.777H618.53L645.365 309.82L652.763 306.307L654.716 305.41L655.428 305.117C655.247 305.255 655.047 305.373 654.831 305.468L652.97 306.424L645.756 310.073L618.967 323.421L618.76 323.538L618.53 323.421L581.77 305.527L581.494 305.39V305.117C581.494 299.517 581.494 293.682 581.494 287.672C581.494 284.667 581.494 281.623 581.494 278.52V269.095C581.494 269.193 582.069 268.256 581.816 268.646L618.576 250.694L618.875 250.557L619.151 250.694L655.75 268.763L655.98 268.88V269.095C655.98 280.159 655.819 289.155 655.773 295.477C655.773 298.521 655.773 300.902 655.658 302.619C655.658 303.361 655.658 303.985 655.658 304.453C655.658 304.922 655.313 305.039 655.313 305.019Z" fill="#6366F1"/>
<path d="M655.315 269.056C654.442 269.648 653.512 270.176 652.535 270.637L644.77 274.539C638.199 277.876 629.055 282.345 618.946 287.379H618.279H618.164L617.935 287.262L617.452 287.028L616.51 286.579L614.603 285.721L610.95 283.769L604.058 280.374L592.57 274.52L584.804 270.617C583.823 270.163 582.893 269.634 582.024 269.037C583.072 269.371 584.079 269.79 585.034 270.285L592.984 273.993L604.701 279.613L611.593 282.969L615.224 284.745L617.084 285.662L618.026 286.111L618.509 286.345L618.739 286.462H618.854H618.325C628.388 281.623 637.578 277.193 644.471 274.013L652.42 270.305C653.338 269.815 654.307 269.396 655.315 269.056Z" fill="#6366F1"/>
<path d="M618.691 322.563C618.1 316.592 617.9 310.599 618.094 304.61C617.9 298.621 618.1 292.628 618.691 286.658C619.297 292.627 619.496 298.621 619.289 304.61C619.496 310.599 619.297 316.593 618.691 322.563Z" fill="#6366F1"/>
<path fill-rule="evenodd" clip-rule="evenodd" d="M287.564 432.947C288.463 431.035 289.593 429.262 290.925 427.678L289.052 422.093L296.64 416.764L300.538 420.937C302.414 420.272 304.364 419.883 306.336 419.781L308.635 414.392L317.45 416.479V422.484C319.206 423.459 320.833 424.691 322.283 426.147L327.42 424.105L332.296 432.377L328.481 436.625C329.087 438.666 329.439 440.787 329.528 442.93L334.472 445.452L332.557 455.06H327.049C326.154 456.971 325.028 458.744 323.702 460.329L325.561 465.914L317.973 471.243L314.075 467.085C312.201 467.739 310.257 468.123 308.291 468.225L305.991 473.615L297.163 471.528V465.523C295.412 464.544 293.787 463.318 292.329 461.875L287.261 463.932L282.372 455.66L286.201 451.412C285.589 449.372 285.232 447.251 285.14 445.107L280.196 442.6L282.111 432.977H287.619L287.564 432.947ZM297.99 441.339C297.597 443.368 297.764 445.479 298.469 447.405C299.175 449.331 300.388 450.987 301.955 452.163C303.522 453.339 305.374 453.984 307.276 454.015C309.179 454.047 311.047 453.464 312.646 452.34C314.246 451.216 315.504 449.602 316.263 447.7C317.022 445.798 317.247 443.693 316.911 441.652C316.575 439.61 315.692 437.723 314.374 436.227C313.056 434.732 311.361 433.695 309.503 433.247C308.255 432.949 306.964 432.923 305.706 433.173C304.449 433.423 303.25 433.944 302.178 434.704C301.107 435.463 300.185 436.448 299.466 437.6C298.747 438.752 298.245 440.049 297.99 441.414V441.339Z" fill="#6366F1"/>
<path opacity="0.5" fill-rule="evenodd" clip-rule="evenodd" d="M287.564 432.947C288.463 431.035 289.593 429.262 290.925 427.678L289.052 422.093L296.64 416.764L300.538 420.937C302.414 420.272 304.364 419.883 306.336 419.781L308.635 414.392L317.45 416.479V422.484C319.206 423.459 320.833 424.691 322.283 426.147L327.42 424.105L332.296 432.377L328.481 436.625C329.087 438.666 329.439 440.787 329.528 442.93L334.472 445.452L332.557 455.06H327.049C326.154 456.971 325.028 458.744 323.702 460.329L325.561 465.914L317.973 471.243L314.075 467.085C312.201 467.739 310.257 468.123 308.291 468.225L305.991 473.615L297.163 471.528V465.523C295.412 464.544 293.787 463.318 292.329 461.875L287.261 463.932L282.372 455.66L286.201 451.412C285.589 449.372 285.232 447.251 285.14 445.107L280.196 442.6L282.111 432.977H287.619L287.564 432.947ZM297.99 441.339C297.597 443.368 297.764 445.479 298.469 447.405C299.175 449.331 300.388 450.987 301.955 452.163C303.522 453.339 305.374 453.984 307.276 454.015C309.179 454.047 311.047 453.464 312.646 452.34C314.246 451.216 315.504 449.602 316.263 447.7C317.022 445.798 317.247 443.693 316.911 441.652C316.575 439.61 315.692 437.723 314.374 436.227C313.056 434.732 311.361 433.695 309.503 433.247C308.255 432.949 306.964 432.923 305.706 433.173C304.449 433.423 303.25 433.944 302.178 434.704C301.107 435.463 300.185 436.448 299.466 437.6C298.747 438.752 298.245 440.049 297.99 441.414V441.339Z" fill="white"/>
<path d="M311.646 382.449V396.942H87.1064V238.906H102.083" fill="#6366F1"/>
<path opacity="0.8" d="M311.646 382.449V396.942H87.1064V238.906H102.083" fill="white"/>
<path d="M327.318 223.634H102.778V381.686H327.318V223.634Z" fill="white"/>
<path d="M327.32 381.67C327.32 381.67 327.32 380.679 327.32 378.794C327.32 376.909 327.32 374.099 327.32 370.459C327.32 363.148 327.32 352.409 327.32 338.68C327.32 311.206 327.227 271.741 327.15 223.634L327.475 223.959L102.951 224.056L103.353 223.634C103.353 279.93 103.353 333.464 103.353 381.67L102.982 381.28L264.74 381.475L310.968 381.572H323.255H326.424H327.521H326.47H323.379H311.153L265.018 381.67L103.013 381.865H102.642V381.475C102.642 333.269 102.642 279.735 102.642 223.439V223H103.059L327.583 223.097H327.907V223.439C327.83 271.644 327.768 311.173 327.737 338.68C327.737 352.392 327.737 363.051 327.66 370.394C327.66 374.017 327.66 376.796 327.66 378.68C327.66 380.565 327.32 381.67 327.32 381.67Z" fill="#6366F1"/>
<path d="M102.778 237.736C102.778 237.492 153.009 237.313 214.94 237.313C276.87 237.313 327.132 237.492 327.132 237.736C327.132 237.98 276.917 238.158 214.94 238.158C152.963 238.158 102.778 237.963 102.778 237.736Z" fill="#6366F1"/>
<path d="M111.636 230.62C111.636 230.996 111.53 231.363 111.331 231.676C111.133 231.988 110.85 232.232 110.52 232.376C110.189 232.52 109.826 232.557 109.475 232.484C109.124 232.411 108.802 232.23 108.549 231.964C108.296 231.698 108.124 231.359 108.054 230.991C107.985 230.622 108.02 230.24 108.157 229.892C108.294 229.545 108.526 229.248 108.823 229.039C109.121 228.83 109.47 228.719 109.828 228.719C110.066 228.717 110.302 228.764 110.522 228.859C110.743 228.954 110.943 229.094 111.111 229.271C111.279 229.448 111.413 229.658 111.503 229.89C111.593 230.121 111.638 230.37 111.636 230.62Z" fill="#6366F1"/>
<path d="M117.802 230.62C117.802 230.996 117.696 231.363 117.497 231.676C117.299 231.988 117.016 232.232 116.686 232.376C116.355 232.52 115.992 232.557 115.641 232.484C115.29 232.411 114.968 232.23 114.715 231.964C114.462 231.698 114.29 231.359 114.22 230.991C114.151 230.622 114.186 230.24 114.323 229.892C114.46 229.545 114.692 229.248 114.989 229.039C115.287 228.83 115.636 228.719 115.994 228.719C116.232 228.717 116.468 228.764 116.688 228.859C116.909 228.954 117.109 229.094 117.277 229.271C117.445 229.448 117.579 229.658 117.669 229.89C117.759 230.121 117.804 230.37 117.802 230.62Z" fill="#6366F1"/>
<path d="M123.875 230.62C123.875 230.996 123.769 231.365 123.57 231.678C123.37 231.99 123.087 232.234 122.755 232.377C122.424 232.521 122.06 232.558 121.709 232.483C121.357 232.408 121.035 232.226 120.783 231.958C120.531 231.691 120.36 231.35 120.292 230.981C120.224 230.611 120.262 230.228 120.401 229.881C120.54 229.534 120.774 229.238 121.074 229.031C121.373 228.824 121.724 228.716 122.083 228.719C122.319 228.719 122.554 228.768 122.772 228.864C122.991 228.96 123.189 229.1 123.356 229.277C123.522 229.453 123.654 229.663 123.743 229.894C123.833 230.124 123.877 230.371 123.875 230.62Z" fill="#6366F1"/>
<g opacity="0.6">
<path d="M111.635 230.62C111.635 230.996 111.529 231.364 111.33 231.676C111.132 231.989 110.849 232.233 110.519 232.376C110.188 232.52 109.825 232.558 109.474 232.485C109.123 232.411 108.801 232.23 108.548 231.964C108.295 231.699 108.123 231.36 108.053 230.991C107.984 230.622 108.019 230.24 108.156 229.893C108.293 229.545 108.525 229.249 108.822 229.04C109.12 228.831 109.469 228.719 109.827 228.719C110.065 228.717 110.301 228.765 110.521 228.86C110.742 228.954 110.942 229.094 111.11 229.271C111.278 229.448 111.412 229.659 111.502 229.89C111.592 230.122 111.637 230.37 111.635 230.62Z" fill="white"/>
<path d="M117.801 230.62C117.801 230.996 117.695 231.363 117.496 231.676C117.298 231.988 117.015 232.232 116.685 232.376C116.354 232.52 115.991 232.557 115.64 232.484C115.289 232.411 114.967 232.23 114.714 231.964C114.461 231.698 114.289 231.359 114.219 230.991C114.15 230.622 114.185 230.24 114.322 229.892C114.459 229.545 114.691 229.248 114.988 229.039C115.286 228.83 115.635 228.719 115.993 228.719C116.231 228.717 116.467 228.764 116.687 228.859C116.908 228.954 117.108 229.094 117.276 229.271C117.444 229.448 117.578 229.658 117.668 229.89C117.758 230.121 117.803 230.37 117.801 230.62Z" fill="white"/>
<path d="M123.874 230.62C123.874 230.996 123.768 231.365 123.569 231.678C123.369 231.99 123.086 232.234 122.755 232.377C122.423 232.521 122.059 232.558 121.708 232.483C121.356 232.408 121.034 232.226 120.782 231.958C120.53 231.691 120.359 231.35 120.291 230.981C120.223 230.611 120.261 230.228 120.4 229.881C120.539 229.534 120.773 229.238 121.073 229.031C121.372 228.824 121.723 228.716 122.082 228.719C122.318 228.719 122.553 228.768 122.771 228.864C122.99 228.96 123.188 229.1 123.355 229.277C123.521 229.453 123.653 229.663 123.742 229.894C123.832 230.124 123.876 230.371 123.874 230.62Z" fill="white"/>
</g>
<g opacity="0.3">
<path d="M181.975 254.21H122.084V317.168H181.975V254.21Z" fill="#6366F1"/>
</g>
<path d="M296.531 272.002C296.531 272.246 273.162 272.424 244.353 272.424C215.544 272.424 192.175 272.246 192.175 272.002C192.175 271.758 215.528 271.58 244.353 271.58C273.178 271.58 296.531 271.775 296.531 272.002Z" fill="#6366F1"/>
<path d="M296.531 283.716C296.531 283.943 273.162 284.138 244.353 284.138C215.544 284.138 192.175 283.943 192.175 283.716C192.175 283.488 215.528 283.293 244.353 283.293C273.178 283.293 296.531 283.472 296.531 283.716Z" fill="#6366F1"/>
<path d="M296.531 295.414C296.531 295.641 273.162 295.836 244.353 295.836C215.544 295.836 192.175 295.641 192.175 295.414C192.175 295.186 215.528 294.991 244.353 294.991C273.178 294.991 296.531 295.17 296.531 295.414Z" fill="#6366F1"/>
<path d="M253.843 307.111C253.046 307.244 252.238 307.298 251.432 307.273L244.817 307.403C239.237 307.403 231.525 307.533 223.009 307.533C214.493 307.533 206.796 307.533 201.216 307.403L194.601 307.208C193.789 307.233 192.977 307.178 192.175 307.046C192.977 306.914 193.789 306.859 194.601 306.883L201.216 306.754C206.796 306.672 214.493 306.624 223.009 306.624C231.525 306.624 239.237 306.624 244.817 306.754L251.432 306.883C252.24 306.88 253.048 306.956 253.843 307.111Z" fill="#6366F1"/>
<path d="M153.968 338.403H125.823V367.989H153.968V338.403Z" fill="#6366F1"/>
<path opacity="0.6" d="M153.968 338.403H125.823V367.989H153.968V338.403Z" fill="white"/>
<path d="M205.018 338.403H176.873V367.989H205.018V338.403Z" fill="#6366F1"/>
<path opacity="0.6" d="M205.018 338.403H176.873V367.989H205.018V338.403Z" fill="white"/>
<path d="M256.066 338.403H227.921V367.989H256.066V338.403Z" fill="#6366F1"/>
<path opacity="0.6" d="M256.066 338.403H227.921V367.989H256.066V338.403Z" fill="white"/>
<path d="M307.115 338.403H278.971V367.989H307.115V338.403Z" fill="#6366F1"/>
<path opacity="0.6" d="M307.115 338.403H278.971V367.989H307.115V338.403Z" fill="white"/>
<path d="M760.614 546.417H506.446V654.948H760.614V546.417Z" fill="white"/>
<path d="M760.63 654.899C760.63 654.899 760.63 654.233 760.63 652.966C760.63 651.698 760.63 649.797 760.63 647.328C760.63 642.372 760.63 635.11 760.553 625.735C760.553 607.002 760.46 579.902 760.398 546.368L760.692 546.677L506.54 546.79L506.957 546.368C506.957 584.386 506.957 621.105 506.957 654.899L506.57 654.493L688.746 654.736L741.62 654.85H755.761H759.424H760.692H759.471H755.854H741.79L689.009 654.964L506.509 655.159H506.138V654.899C506.138 621.056 506.138 584.386 506.138 546.368V546.043H506.57L760.723 546.173H761.001V546.465C761.001 580.081 760.877 607.23 760.846 626.076C760.846 635.419 760.846 642.665 760.846 647.604C760.846 650.041 760.846 651.909 760.846 653.177C760.846 654.444 760.63 654.899 760.63 654.899Z" fill="#6366F1"/>
<path d="M506.71 561.055C506.71 560.827 563.525 560.632 633.585 560.632C703.646 560.632 760.476 560.827 760.476 561.055C760.476 561.282 703.676 561.477 633.585 561.477C563.494 561.477 506.71 561.298 506.71 561.055Z" fill="#6366F1"/>
<path d="M517.344 554.508C517.344 554.89 517.237 555.264 517.034 555.582C516.832 555.9 516.545 556.148 516.209 556.294C515.873 556.44 515.503 556.478 515.146 556.404C514.79 556.329 514.462 556.145 514.205 555.875C513.948 555.604 513.772 555.26 513.701 554.885C513.63 554.51 513.667 554.121 513.806 553.768C513.945 553.414 514.181 553.112 514.483 552.9C514.786 552.688 515.141 552.574 515.505 552.574C515.993 552.574 516.461 552.778 516.806 553.14C517.151 553.503 517.344 553.995 517.344 554.508Z" fill="#6366F1"/>
<path d="M523.666 554.508C523.66 554.889 523.547 555.259 523.342 555.573C523.136 555.887 522.847 556.129 522.51 556.271C522.173 556.412 521.805 556.446 521.45 556.368C521.095 556.289 520.77 556.103 520.516 555.831C520.262 555.559 520.09 555.215 520.021 554.841C519.953 554.467 519.991 554.08 520.131 553.728C520.271 553.377 520.507 553.077 520.809 552.866C521.11 552.655 521.465 552.542 521.827 552.542C522.071 552.542 522.313 552.593 522.538 552.692C522.763 552.791 522.968 552.937 523.139 553.12C523.31 553.303 523.445 553.52 523.535 553.758C523.626 553.996 523.671 554.251 523.666 554.508Z" fill="#6366F1"/>
<path d="M529.896 554.507C529.89 554.886 529.778 555.254 529.574 555.567C529.37 555.88 529.084 556.122 528.75 556.265C528.416 556.408 528.049 556.444 527.696 556.37C527.343 556.295 527.018 556.113 526.762 555.847C526.506 555.58 526.33 555.24 526.257 554.869C526.183 554.498 526.215 554.113 526.348 553.76C526.481 553.408 526.709 553.105 527.005 552.888C527.3 552.671 527.65 552.551 528.01 552.541C528.258 552.535 528.505 552.581 528.736 552.677C528.966 552.773 529.176 552.918 529.352 553.101C529.528 553.285 529.667 553.504 529.761 553.746C529.854 553.987 529.9 554.246 529.896 554.507Z" fill="#6366F1"/>
<g opacity="0.6">
<path d="M517.344 554.507C517.344 554.89 517.237 555.263 517.034 555.581C516.832 555.899 516.545 556.147 516.209 556.293C515.873 556.44 515.503 556.478 515.146 556.403C514.79 556.329 514.462 556.145 514.205 555.874C513.948 555.604 513.772 555.259 513.701 554.884C513.63 554.509 513.667 554.121 513.806 553.767C513.945 553.414 514.181 553.112 514.483 552.9C514.786 552.687 515.141 552.574 515.505 552.574C515.993 552.574 516.461 552.777 516.806 553.14C517.151 553.503 517.344 553.994 517.344 554.507Z" fill="white"/>
<path d="M523.666 554.506C523.66 554.887 523.547 555.258 523.342 555.572C523.136 555.885 522.847 556.128 522.51 556.269C522.173 556.411 521.805 556.444 521.45 556.366C521.095 556.288 520.77 556.101 520.516 555.83C520.262 555.558 520.09 555.213 520.021 554.839C519.953 554.465 519.991 554.078 520.131 553.727C520.271 553.375 520.507 553.075 520.809 552.864C521.11 552.653 521.465 552.541 521.827 552.541C522.071 552.54 522.313 552.592 522.538 552.691C522.763 552.79 522.968 552.935 523.139 553.118C523.31 553.301 523.445 553.518 523.535 553.757C523.626 553.995 523.671 554.25 523.666 554.506Z" fill="white"/>
<path d="M529.893 554.507C529.887 554.886 529.775 555.254 529.571 555.567C529.367 555.88 529.081 556.122 528.747 556.265C528.413 556.408 528.047 556.444 527.693 556.37C527.34 556.295 527.015 556.113 526.759 555.847C526.503 555.58 526.327 555.24 526.254 554.869C526.18 554.498 526.212 554.113 526.345 553.76C526.478 553.408 526.706 553.105 527.002 552.888C527.297 552.671 527.647 552.551 528.007 552.541C528.255 552.535 528.502 552.581 528.733 552.677C528.963 552.773 529.173 552.918 529.349 553.101C529.525 553.285 529.664 553.504 529.758 553.746C529.851 553.987 529.897 554.246 529.893 554.507Z" fill="white"/>
</g>
<path d="M589.444 578.699H528.055V643.232H589.444V578.699Z" fill="#6366F1"/>
<path opacity="0.6" d="M589.444 578.699H528.055V643.232H589.444V578.699Z" fill="white"/>
<path d="M743.042 595.986C743.042 596.23 711.45 596.409 672.487 596.409C633.523 596.409 601.932 596.23 601.932 595.986C601.932 595.743 633.508 595.564 672.487 595.564C711.466 595.564 743.042 595.759 743.042 595.986Z" fill="#6366F1"/>
<path d="M743.042 609.147C743.042 609.374 711.45 609.569 672.487 609.569C633.523 609.569 601.932 609.374 601.932 609.147C601.932 608.919 633.508 608.724 672.487 608.724C711.466 608.724 743.042 608.903 743.042 609.147Z" fill="#6366F1"/>
<path d="M692.764 622.291C692.459 622.352 692.148 622.379 691.837 622.372H689.194L679.457 622.502L647.34 622.632L615.223 622.502L605.486 622.372H602.844C602.538 622.38 602.232 622.353 601.932 622.291C602.23 622.218 602.537 622.191 602.844 622.209L605.486 622.128L615.223 621.982L647.34 621.868L679.457 621.982L689.194 622.128L691.837 622.209C692.148 622.192 692.46 622.219 692.764 622.291Z" fill="#6366F1"/>
</g>
<defs>
<linearGradient id="paint0_linear_433_2543" x1="1333.5" y1="714" x2="1333.5" y2="1395" gradientUnits="userSpaceOnUse">
<stop stop-color="#6366F1" stop-opacity="0.08"/>
<stop offset="1" stop-color="#6366F1"/>
</linearGradient>
</defs>
</svg>
