<svg width="400" height="371" viewBox="0 0 400 371" fill="none" xmlns="http://www.w3.org/2000/svg">
<path d="M387.376 334.245C385.592 333.309 383.359 332.555 380.991 332.053C375.641 330.922 369.676 330.838 363.861 330.768C313.475 330.195 263.433 329.986 213.032 329.986C173.346 329.693 133.676 329.386 93.99 329.204C75.3311 329.12 56.6273 329.05 38.0284 329.86C30.3251 330.195 22.307 330.74 15.9376 332.96C9.56805 335.18 5.52161 339.565 8.75879 343.112C14.1391 348.976 32.1685 348.641 42.5844 348.655C122.9 348.767 203.23 348.544 283.546 348.306C310.432 348.222 337.319 348.153 364.161 347.427C370.171 347.259 376.375 347.05 381.771 345.695C387.181 344.355 391.662 341.59 391.332 338.56C391.168 336.912 389.624 335.432 387.376 334.245Z" fill="#D9E0FC"/>
<path d="M390.088 204.357C388.724 204.636 387.166 204.79 385.412 204.79C325.134 204.79 264.872 204.789 204.594 204.776C174.455 204.776 144.316 204.776 114.192 204.762C100.164 204.762 43.903 211.995 37.8033 199.078C36.5144 196.356 36.5144 193.353 36.5144 190.421C36.5144 135.139 36.6792 79.8576 36.6792 24.5758C36.6792 22.6209 36.6792 20.6521 36.6792 18.6972C36.6792 14.564 40.6358 11.2127 45.5066 11.2127C111.419 11.2127 177.317 11.2127 243.23 11.2127C277.296 11.2127 311.361 11.2127 345.442 11.2127C359.784 11.2127 399.05 4.98498 399.05 22.4813C399.05 55.7285 399.035 88.9897 399.035 122.237C399.035 139.245 399.035 156.266 399.035 173.274C399.02 184.096 404.356 201.41 390.088 204.357Z" fill="#D9E0FC"/>
<path d="M369.751 193.116C364.25 196.635 354.074 194.638 345.607 194.638C328.926 194.638 312.26 194.638 295.58 194.638C250.454 194.638 205.343 194.638 160.217 194.638C114.746 194.638 69.2908 194.638 23.8202 194.638C22.2915 194.638 21.0626 193.493 21.0626 192.068C21.0476 159.128 20.8378 126.174 20.7628 93.2344C20.7179 76.7574 20.7179 60.2944 20.7928 43.8174C20.8378 33.0375 16.1169 9.3553 23.8951 0.921313C26.0833 -1.43853 54.3188 1.47985 57.8408 1.47985C72.9926 1.45192 88.1444 1.424 103.281 1.39607C132.686 1.34021 162.09 1.28437 191.495 1.21456C231.001 1.21456 270.522 1.06094 310.027 0.977158C330.814 0.935267 369.481 1.04699 372.403 1.07491C376.165 1.1168 374.546 55.6584 374.576 59.6939C374.771 82.1892 374.651 104.698 374.427 127.194C374.262 143.992 374.007 160.79 373.812 177.602C373.782 179.836 373.752 182.07 373.752 184.305C373.767 188.815 372.224 191.524 369.751 193.116Z" fill="#312E81"/>
<path d="M362.482 176.416C351.661 176.15 340.811 176.346 329.99 176.346C319.154 176.346 308.319 176.36 297.498 176.36C275.827 176.374 254.171 176.388 232.499 176.402C189.397 176.43 146.279 176.443 103.176 176.555C91.022 176.583 78.8525 176.611 66.698 176.653C54.5585 176.681 42.3291 176.541 30.2195 177.337C29.5152 177.379 29.5152 178.301 30.2195 178.357C41.0252 179.069 51.8909 178.943 62.7115 179.027C73.5471 179.111 84.3827 179.083 95.2033 179.111C116.875 179.166 138.531 179.18 160.202 179.208C203.305 179.264 246.422 179.292 289.525 179.32C301.68 179.334 313.849 179.334 326.003 179.348C338.158 179.362 350.327 179.585 362.482 179.292C364.475 179.25 364.49 176.457 362.482 176.416Z" fill="#271F4B"/>
<path d="M350.027 174.88C349.668 173.846 349.038 172.939 348.169 172.185C347.045 171.151 345.726 170.425 344.198 170.034C343.928 169.95 343.658 169.867 343.403 169.783C342.219 169.434 341.035 169.392 339.866 169.629C338.682 169.685 337.588 170.006 336.569 170.607C335.97 171.04 335.37 171.472 334.771 171.905C333.901 172.659 333.287 173.539 332.942 174.572C332.538 175.215 332.343 175.913 332.343 176.667C332.073 177.77 332.133 178.859 332.508 179.962C332.807 180.619 333.107 181.275 333.407 181.945C334.201 183.188 335.265 184.179 336.599 184.919C336.839 185.073 337.064 185.227 337.303 185.38C338.712 186.134 340.226 186.525 341.845 186.525C342.639 186.427 343.433 186.33 344.242 186.232C345.771 185.827 347.09 185.115 348.214 184.082C349.098 183.328 349.713 182.42 350.072 181.387C350.642 180.381 350.897 179.306 350.852 178.161C350.852 176.96 350.597 175.885 350.027 174.88Z" fill="#271F4B"/>
<path d="M304.288 247.992L58.0962 244.599L59.0703 7.23291L303.568 8.99231L304.288 247.992Z" fill="white" stroke="black" stroke-width="0.5" stroke-miterlimit="10"/>
<path d="M113.293 194.498C112.559 203.239 111.824 211.966 111.09 220.708C110.985 221.894 110.086 222.9 108.737 222.9C104.421 222.914 100.119 222.928 95.803 222.956C91.9363 222.97 88.0697 222.984 84.203 222.998C83.1839 222.998 82.1198 223.012 81.2056 222.509C80.2015 221.95 79.7219 220.987 79.587 219.954C79.3922 218.264 79.6021 216.477 79.647 214.773C79.7969 207.568 80.0816 200.363 80.9359 193.185C81.0858 191.887 82.6444 191.594 83.3638 192.348C84.6227 191.985 86.1364 192.152 87.3803 192.152C88.9389 192.152 90.4826 192.166 92.0412 192.166C98.3058 192.194 104.585 192.222 110.85 192.222C112.094 192.222 113.398 193.269 113.293 194.498ZM106.549 218.529C107.118 211.282 107.673 204.035 108.242 196.788C104.57 196.802 100.884 196.83 97.2118 196.844C94.9337 196.858 92.6557 196.872 90.3927 196.886C89.2237 196.9 88.0697 196.9 86.9007 196.9C86.481 196.9 86.0615 196.9 85.6418 196.9C85.1922 197.249 84.6227 197.458 84.0232 197.486C84.1431 199.818 84.218 202.164 84.263 204.51C84.3229 207.875 84.263 211.24 84.218 214.606C84.2031 215.485 84.188 216.365 84.173 217.245C84.158 217.705 84.188 218.194 84.188 218.683C84.3829 218.697 84.5628 218.711 84.7126 218.711L87.2004 218.697C93.6449 218.641 100.089 218.585 106.549 218.529Z" fill="#271F4B"/>
<path d="M113.293 143.531C112.559 152.272 111.824 161 111.09 169.741C110.985 170.928 110.086 171.933 108.737 171.933C104.421 171.947 100.119 171.961 95.803 171.989C91.9363 172.003 88.0697 172.017 84.203 172.031C83.1839 172.031 82.1198 172.045 81.2056 171.542C80.2015 170.984 79.7219 170.02 79.587 168.987C79.3922 167.297 79.6021 165.51 79.647 163.806C79.7969 156.601 80.0816 149.396 80.9359 142.219C81.0858 140.92 82.6444 140.627 83.3638 141.381C84.6227 141.018 86.1364 141.185 87.3803 141.185C88.9389 141.185 90.4826 141.199 92.0412 141.199C98.3058 141.227 104.585 141.255 110.85 141.255C112.094 141.255 113.398 142.302 113.293 143.531ZM106.549 167.562C107.118 160.315 107.673 153.068 108.242 145.821C104.57 145.835 100.884 145.863 97.2118 145.877C94.9337 145.891 92.6557 145.905 90.3927 145.919C89.2237 145.919 88.0697 145.933 86.9007 145.933C86.481 145.933 86.0615 145.933 85.6418 145.933C85.1922 146.282 84.6227 146.492 84.0232 146.519C84.1431 148.851 84.218 151.197 84.263 153.543C84.3229 156.908 84.263 160.274 84.218 163.639C84.2031 164.518 84.188 165.398 84.173 166.278C84.158 166.739 84.188 167.227 84.188 167.716C84.3829 167.73 84.5628 167.744 84.7126 167.744L87.2004 167.73C93.6449 167.674 100.089 167.618 106.549 167.562Z" fill="#271F4B"/>
<path d="M113.293 92.5644C112.559 101.306 111.824 110.033 111.09 118.774C110.985 119.961 110.086 120.966 108.737 120.966C104.421 120.98 100.119 120.994 95.803 121.022C91.9363 121.036 88.0697 121.05 84.203 121.064C83.1839 121.064 82.1198 121.078 81.2056 120.575C80.2015 120.017 79.7219 119.053 79.587 118.02C79.3922 116.33 79.6021 114.543 79.647 112.839C79.7969 105.634 80.0816 98.4291 80.9359 91.2519C81.0858 89.9532 82.6444 89.66 83.3638 90.414C84.6227 90.051 86.1364 90.2185 87.3803 90.2185C88.9389 90.2185 90.4826 90.2325 92.0412 90.2325C98.3058 90.2604 104.585 90.2884 110.85 90.2884C112.094 90.2884 113.398 91.3356 113.293 92.5644ZM106.549 116.596C107.118 109.349 107.673 102.102 108.242 94.8545C104.57 94.8684 100.884 94.8963 97.2118 94.9103C94.9337 94.9243 92.6557 94.9382 90.3927 94.9522C89.2237 94.9522 88.0697 94.9662 86.9007 94.9662C86.481 94.9662 86.0615 94.9662 85.6418 94.9662C85.1922 95.3153 84.6227 95.5247 84.0232 95.5526C84.1431 97.8845 84.218 100.23 84.263 102.576C84.3229 105.942 84.263 109.307 84.218 112.672C84.2031 113.552 84.188 114.431 84.173 115.311C84.158 115.772 84.188 116.261 84.188 116.749C84.3829 116.763 84.5628 116.777 84.7126 116.777L87.2004 116.763C93.6449 116.707 100.089 116.652 106.549 116.596Z" fill="#271F4B"/>
<path d="M245.988 95.2317C238.12 95.0363 230.236 95.1899 222.368 95.2038C214.575 95.2178 206.767 95.2178 198.974 95.2317C183.222 95.2457 167.471 95.3155 151.734 95.3853C147.343 95.3993 142.952 95.4273 138.561 95.4412C134.11 95.4552 129.599 95.3714 125.162 95.6646C124.593 95.7065 124.593 96.4466 125.162 96.4745C129.074 96.7259 133.046 96.656 136.972 96.684C140.914 96.7259 144.84 96.7259 148.782 96.7398C156.575 96.7817 164.383 96.8096 172.177 96.8515C187.928 96.9213 203.679 96.9074 219.416 96.9353C228.273 96.9493 237.145 97.1308 245.988 96.9074C247.157 96.8934 247.157 95.2597 245.988 95.2317Z" fill="#969696"/>
<path d="M191.03 103.177C174.02 102.996 157.01 102.842 139.999 102.842C135.144 102.842 130.273 102.8 125.417 102.87C124.488 102.884 124.488 104.21 125.417 104.224C142.412 104.476 159.437 104.238 176.448 104.141C181.304 104.113 186.174 103.973 191.03 103.917C191.54 103.917 191.54 103.191 191.03 103.177Z" fill="#969696"/>
<path d="M243.26 111.625C227.929 111.36 212.582 111.569 197.25 111.597C181.918 111.625 166.572 111.639 151.24 111.667C142.578 111.681 133.93 111.695 125.268 111.834C124.563 111.848 124.563 112.84 125.268 112.854C140.599 113.119 155.946 113.035 171.278 113.049C186.609 113.077 201.956 113.091 217.288 113.119C225.95 113.133 234.598 113.203 243.26 113.049C244.249 113.049 244.249 111.639 243.26 111.625Z" fill="#969696"/>
<path d="M203.545 145.976C198.359 145.655 193.099 145.92 187.899 145.934C182.683 145.948 177.468 145.962 172.252 145.976C161.821 146.004 151.405 146.032 140.974 146.06C135.069 146.074 129.194 146.143 123.29 146.339C122.87 146.353 122.87 146.939 123.29 146.953C133.705 147.275 144.136 147.233 154.567 147.261C164.998 147.289 175.414 147.316 185.845 147.344C188.723 147.358 191.585 147.358 194.463 147.372C197.475 147.386 200.518 147.498 203.53 147.302C204.474 147.261 204.474 146.032 203.545 145.976Z" fill="#969696"/>
<path d="M235.122 157.187C220.585 156.796 206.017 156.95 191.48 156.922C177.077 156.894 162.69 156.88 148.287 156.838L136.013 156.81C131.937 156.796 127.815 156.629 123.739 156.922C122.75 156.992 122.75 158.29 123.739 158.36C127.366 158.626 131.022 158.486 134.649 158.486C138.291 158.472 141.918 158.472 145.56 158.458C152.828 158.444 160.112 158.43 167.381 158.416C181.783 158.388 196.171 158.374 210.573 158.346C218.756 158.332 226.939 158.332 235.122 158.109C235.752 158.081 235.752 157.201 235.122 157.187Z" fill="#969696"/>
<path d="M239.379 200.098C224.197 199.749 209.015 199.916 193.833 199.93C178.651 199.93 163.47 199.944 148.288 199.986C139.79 200.014 131.277 200.112 122.78 200.014C121.791 200 121.791 201.452 122.78 201.452C137.962 201.285 153.144 201.522 168.325 201.536C183.507 201.536 198.689 201.55 213.871 201.55C222.369 201.55 230.866 201.564 239.379 201.369C240.248 201.355 240.248 200.126 239.379 200.098Z" fill="#969696"/>
<path d="M147.328 207.582C139.295 207.582 131.276 207.736 123.258 207.805C122.689 207.805 122.689 208.615 123.258 208.615C131.276 208.685 139.309 208.839 147.328 208.839C148.212 208.853 148.212 207.582 147.328 207.582Z" fill="#969696"/>
<path d="M228.513 208.518C219.625 207.973 210.663 208.211 201.761 208.252C192.769 208.294 183.776 208.35 174.784 208.392C169.719 208.42 164.653 208.448 159.602 208.685C159.033 208.713 159.033 209.481 159.602 209.495C168.505 209.914 177.437 209.802 186.354 209.844C195.346 209.886 204.339 209.942 213.331 209.942C218.396 209.942 223.462 209.97 228.513 209.663C229.307 209.621 229.322 208.574 228.513 208.518Z" fill="#969696"/>
<path d="M194.058 216.742C185.17 216.309 176.208 216.63 167.321 216.658C158.494 216.686 149.636 216.658 140.809 216.951C135.758 217.119 130.678 217.063 125.627 217.077C125.118 217.077 125.118 217.817 125.627 217.817C143.387 217.901 161.131 218.208 178.891 218.278C183.957 218.292 189.022 218.403 194.073 218.152C195.032 218.11 195.032 216.797 194.058 216.742Z" fill="#969696"/>
<path d="M284.445 38.3437C275.872 37.7153 267.06 38.204 258.457 38.204C250.334 38.204 242.211 38.218 234.103 38.218C217.588 38.232 201.087 38.2319 184.571 38.2459C168.056 38.2599 151.555 38.2878 135.039 38.3576C118.344 38.4274 101.333 37.7712 84.6977 39.1117C81.0558 39.4049 81.0409 44.0268 84.6977 44.334C101.333 45.6745 118.344 45.0183 135.039 45.0881C151.555 45.1579 168.056 45.1858 184.571 45.1998C201.087 45.2137 217.588 45.2137 234.103 45.2277C242.226 45.2277 250.349 45.2417 258.457 45.2417C267.06 45.2417 275.857 45.7304 284.445 45.102C289.166 44.739 289.181 38.6928 284.445 38.3437Z" fill="black"/>
<path d="M244.474 57.8227C241.731 55.798 239.558 56.161 236.081 56.161C232.844 56.161 229.607 56.161 226.37 56.161L206.137 56.175C192.379 56.189 178.621 56.189 164.863 56.2029L124.398 56.2309C117.384 56.2309 110.37 56.3007 103.356 56.3845C97.5412 56.4543 89.7479 55.407 84.4725 57.8785C83.0787 58.5348 83.0787 60.6154 84.4725 61.2717C89.7629 63.7572 97.5262 62.696 103.356 62.7658C110.1 62.8496 116.844 62.9054 123.589 62.9194C137.347 62.9334 151.105 62.9334 164.863 62.9473L205.328 62.9753C212.342 62.9753 219.356 62.9892 226.37 62.9892C229.607 62.9892 232.844 62.9892 236.081 62.9892C239.468 62.9892 241.761 63.3243 244.474 61.3275C245.538 60.5596 245.523 58.6047 244.474 57.8227Z" fill="black"/>
<path d="M181.949 164.797C179.596 164.183 177.723 161.739 176.763 159.715C175.744 157.55 175.939 154.716 177.887 153.208C179.131 152.244 180.855 151.993 182.473 152.146C187.494 152.663 191.361 156.866 192.74 161.404C194.118 165.928 193.534 170.76 192.949 175.438C192.515 178.859 192.08 182.28 191.645 185.701C190.806 192.347 191.75 199.301 191.75 206.004C191.75 206.842 191.78 207.707 192.215 208.433C193.024 209.774 194.853 210.151 196.486 210.388C204.325 211.561 212.388 212.972 220.361 212.706C226.76 212.497 230.417 210.723 236.247 214.94C239.439 217.244 241.882 220.833 241.477 224.575C241.253 226.586 240.233 228.471 238.855 230.049C233.414 236.235 223.703 237.073 215.115 236.877C204.984 236.64 194.868 235.634 184.901 233.875C174.785 232.074 167.726 227.354 166.872 217.37C166.063 207.917 169.225 198.477 171.983 189.499C174.545 181.149 179.551 173.455 181.844 165.174C181.889 165.021 181.919 164.909 181.949 164.797Z" fill="#FBC2AA"/>
<path d="M238.75 219.771C238.675 219.352 238.6 218.934 238.525 218.529C237.88 214.381 237.266 209.201 242.107 207.902C245.299 207.037 250.889 207.428 253.017 204.663C253.707 203.769 253.902 202.652 254.066 201.577C254.321 200.041 254.561 198.491 254.816 196.955C245.539 198.435 241.672 190.699 240.503 183.466C239.304 176.079 239.559 166.863 246.543 161.92C250.994 158.765 257.229 158.011 262.459 159.854C267.69 161.697 271.781 166.026 273.265 171.053C274.359 174.767 273.055 176.121 272.83 179.961C272.56 184.304 272.98 191.802 272.725 196.145C272.545 199.063 272.815 202.471 274.524 205.012C275.303 206.171 276.247 207.162 277.566 207.791C278.525 208.251 281.013 208 281.613 208.614C285.015 212.091 288.192 215.778 291.879 218.975C283.171 222.383 274.074 224.812 264.767 226.292C258.248 227.34 245.059 230.928 240.563 224.463C239.574 223.039 239.079 221.419 238.75 219.771Z" fill="#FBC2AA"/>
<path d="M315.873 240.229C314.943 229.519 309.788 218.543 299.312 213.181C295.46 211.213 291.219 210.026 286.963 209.09C284.775 208.601 282.556 208.183 280.368 207.722C277.91 207.205 277.416 207.75 275.737 209.467C272.275 213.042 266.805 214.634 261.665 214.131C258.412 213.824 255.28 212.721 252.493 211.157C249.465 209.453 248.401 207.359 244.564 207.554C232.949 208.169 221.349 209.146 209.795 210.486C210.649 219.87 211.323 233.163 213.421 242.365C219.536 241.793 233.054 240.536 233.039 242.268C233.024 244.907 233.084 247.56 233.174 250.199C233.369 255.351 233.714 260.504 233.939 265.657C234.178 271.13 234.613 276.604 235.138 282.05C235.737 288.263 236.756 294.366 238.24 300.398C253.347 305.09 270.582 303.945 286.783 302.576C291.399 302.185 296.195 301.752 300.196 299.56C311.436 293.388 311.916 275.124 313.52 264.498C314.764 256.315 316.592 248.621 315.873 240.229Z" fill="#312E81"/>
<path d="M199.978 346.953C200.173 346.687 200.382 346.422 200.592 346.171C204.504 341.493 211.263 338.449 216.793 335.698C222.893 332.668 229.712 330.169 236.741 330.546C243.08 330.881 251.878 334.888 253.197 341.144C253.347 341.856 253.407 342.61 253.107 343.266C252.357 344.914 249.975 345.054 248.056 345.068C239.873 345.137 232.005 347.483 224.362 350.011C220.435 351.309 216.523 352.692 212.537 353.879C208.985 354.94 200.352 359.59 197.865 354.758C196.501 352.119 198.404 349.103 199.978 346.953Z" fill="black"/>
<path d="M164.504 284.143C167.816 280.736 172.522 278.53 177.348 277.678C184.122 276.491 191.121 277.636 197.775 279.354C211.863 282.97 225.066 289.059 239.214 292.452C245.494 293.96 249.585 293.401 255.715 292.94C263.493 292.354 271.481 293.066 279.304 292.633C286.618 292.228 294.531 291.698 301.38 293.583C302.279 293.024 303.179 292.48 304.078 291.921C311.721 287.243 319.35 282.593 328.941 284.297C336.48 285.637 343.763 289.198 348.424 294.979C353.385 301.123 351.901 309.152 347.45 315.282C343.763 320.351 338.323 324.093 332.688 327.235C313.25 338.099 292.013 344.759 269.068 343.279C265.996 343.083 262.384 343.042 260.166 345.346C259.342 346.211 258.847 350.945 257.004 350.735C254.726 350.484 250.349 349.898 248.206 349.172C236.606 345.276 225.021 341.366 213.421 337.47C203.23 334.035 192.979 330.586 183.702 325.378C175.669 320.881 168.4 314.793 164.144 306.904C161.072 301.221 158.554 293.736 161.761 287.83C162.51 286.475 163.425 285.246 164.504 284.143Z" fill="#271F4B"/>
<path d="M308.394 300.481C301.875 303.512 295.056 305.452 288.806 309.055C282.572 312.644 276.667 316.833 269.878 319.556C265.486 321.315 259.102 321.999 254.891 323.954" stroke="black" stroke-width="0.5" stroke-miterlimit="10"/>
<path d="M260.316 344.523C260.331 344.509 260.331 344.481 260.346 344.467C260.96 343.154 261.56 341.841 262.174 340.529C263.388 337.918 264.602 335.321 265.801 332.709C265.936 332.416 276.352 337.345 277.251 338.029C277.656 338.337 278.045 338.672 278.3 339.091C278.66 339.663 278.735 340.347 278.825 341.004C279.065 342.847 279.364 344.732 278.99 346.561C278.615 348.39 277.401 350.192 275.513 350.778C274.074 351.225 272.515 350.904 271.046 350.597C268.244 349.996 265.501 349.438 262.744 348.684C261.949 348.46 259.866 348.39 259.297 347.86C258.577 347.203 260.001 345.221 260.316 344.523Z" fill="#FBC2AA"/>
<path d="M271.916 334.706C272.68 334.804 273.474 334.831 274.299 334.762C275.977 334.636 277.626 334.189 279.304 334.217C282.646 334.273 284.1 336.703 285.494 339.16C287.952 343.503 292.388 346.673 295.985 350.163C300.496 354.534 303.104 358.653 302.369 364.909C302.115 367.115 301.155 369.643 298.862 370.243C296.749 370.802 294.666 369.419 292.973 368.121C288.372 364.602 283.756 361.097 279.155 357.578C277.056 355.972 274.913 353.836 272.53 352.635C271.017 351.881 269.293 351.322 267.719 350.582C269.413 345.36 270.837 340.068 271.916 334.706Z" fill="black"/>
<path d="M248.401 303.33C247.562 302.939 246.918 302.227 246.423 300.901C245.584 298.666 246.078 296.027 247.427 294.059C249.166 291.517 252.358 289.562 255.52 288.948C258.772 288.306 261.92 287.23 265.232 286.602C267.615 286.155 269.953 285.541 272.291 284.926C279.439 283.055 287.143 281.631 293.932 278.838C294.351 278.671 294.771 278.475 295.011 278.112C295.326 277.623 295.191 277.009 295.041 276.451C292.763 267.919 290.68 259.345 288.776 250.73C288.132 247.797 287.502 244.837 287.532 241.849C287.592 236.417 289.93 231.041 293.947 227.103C296.405 224.688 299.807 222.747 303.344 223.124C306.251 223.445 308.754 225.316 310.402 227.592C312.051 229.868 312.935 232.507 313.82 235.104C316.787 243.887 320.234 252.782 321.568 261.914C321.913 264.302 321.898 266.718 321.883 269.12C321.838 276.032 321.643 283.376 317.566 289.143C304.138 308.078 272.995 305.746 252.118 303.931C250.559 303.833 249.36 303.777 248.401 303.33Z" fill="#FBC2AA"/>
<path d="M254.306 156.251C250.529 156.782 246.902 158.206 243.86 160.524C240.473 163.107 239.409 165.844 238.704 169.894C238.659 170.159 238.629 170.452 238.794 170.676C238.974 170.913 239.334 170.969 239.648 171.011C245.044 171.611 250.469 172.044 255.909 172.309C256.509 172.337 257.123 172.365 257.678 172.156C259.057 171.639 259.596 169.894 261.005 169.447C261.2 171.137 261.065 172.868 260.63 174.516C260.435 175.242 260.181 176.01 260.435 176.722C260.945 178.16 262.758 178.132 263.927 178.789C265.381 179.598 266.79 181.246 267.345 182.726C268.079 184.681 268.409 186.818 269.697 188.549C270.027 188.996 270.417 189.401 270.792 189.806C271.496 190.56 272.185 191.314 272.89 192.068C273.324 191.761 273.534 191.272 273.714 190.811C275.183 187.125 276.741 183.466 277.671 179.64C278.51 176.205 278.48 172.547 277.521 169.14C277.101 167.604 276.337 166.054 275.572 164.643C275.153 163.862 274.598 163.038 274.059 162.312C273.894 162.088 272.275 160.119 271.99 160.287C272.35 160.063 272.8 159.645 272.635 159.198C272.44 158.667 271.121 159.044 270.762 159.226C270.971 158.918 271.271 158.653 271.481 158.346C271.691 158.039 271.826 157.634 271.661 157.299C271.556 157.089 271.346 156.936 271.121 156.824C270.537 156.559 269.832 156.628 269.278 156.922C268.693 157.229 268.199 157.787 268.064 158.388C263.628 156.573 259.207 155.567 254.306 156.251Z" fill="black"/>
<path d="M196.081 289.953C209.135 295.455 219.641 305.006 231.511 312.462C242.601 319.416 254.89 324.527 267.105 329.61C266.46 330.908 266.206 332.207 265.576 333.505" stroke="black" stroke-width="0.5" stroke-miterlimit="10"/>
<path d="M251.833 186.162C251.054 188.535 247.937 189.974 245.449 189.122" stroke="#1C1C1B" stroke-width="0.5" stroke-miterlimit="10"/>
<path d="M265.006 185.463C269.817 186.581 272.815 181.861 271.346 178.775C269.308 174.488 262.863 175.2 261.679 179.711" fill="#FBC2AA"/>
<path d="M267.464 178.425C266.565 178.188 265.516 178.328 264.752 178.788C263.987 179.249 263.553 180.003 263.583 180.743" stroke="#1C1C1B" stroke-width="0.5" stroke-miterlimit="10"/>
<path d="M303.283 217.817C294.501 218.683 286.453 224.366 283.201 232.032C279.829 239.991 281.507 248.928 283.231 257.334C288.896 257.18 293.902 257.543 299.537 256.51C306.85 255.169 313.954 253.061 320.833 250.464C318.795 238.301 315.018 226.642 305.696 217.873C304.797 217.007 304.572 217.691 303.283 217.817Z" fill="#312E81"/>
<path d="M204.265 139.16C196.981 142.134 190.387 145.974 184.137 150.554C181.11 152.774 178.247 155.274 175.55 157.829C174.111 159.198 172.747 160.65 171.398 162.088C171.113 161.292 170.829 160.51 170.544 159.728C169.63 157.187 168.596 154.715 167.457 152.258C166.392 149.926 165.224 147.636 163.965 145.388C162.646 143.028 161.372 139.872 158.674 138.685C156.816 137.861 155.152 138.895 154.897 140.71C154.523 143.391 156.801 145.876 158.09 148.138C159.364 150.387 160.548 152.663 161.627 154.995C162.616 157.103 163.53 159.323 164.354 161.529C165.253 163.917 165.883 166.417 166.827 168.777C167.756 171.094 170.993 171.667 172.507 169.461C174.47 166.584 177.228 163.973 179.731 161.488C182.294 158.946 184.976 156.544 187.719 154.171C193.249 149.381 199.139 144.885 205.239 140.738C206.273 140.04 205.419 138.685 204.265 139.16Z" fill="#312E81"/>
<path d="M289.27 310.018H215.279C214.2 310.018 213.316 309.194 213.316 308.189C213.316 307.184 214.2 306.36 215.279 306.36H289.27C290.349 306.36 291.234 307.184 291.234 308.189C291.234 309.194 290.349 310.018 289.27 310.018Z" fill="black"/>
<path d="M278.3 307.532H213.541L200.098 276.589C199.663 275.584 200.457 274.48 201.626 274.48H262.833C263.508 274.48 264.107 274.857 264.362 275.444L278.3 307.532Z" fill="black"/>
<path d="M232.379 291.028C233.069 292.703 235.392 294.058 237.565 294.058C239.738 294.058 240.952 292.703 240.263 291.028C239.573 289.352 237.25 287.998 235.077 287.998C232.904 287.998 231.69 289.352 232.379 291.028Z" stroke="white" stroke-width="0.5" stroke-miterlimit="10"/>
<path d="M254.336 196.774C254.456 197.933 254.351 199.092 254.231 200.237C254.306 200.223 254.396 200.195 254.471 200.181C257.019 199.441 259.117 197.514 260.196 195.238C258.413 196.16 256.389 196.677 254.336 196.774Z" fill="black"/>
<path d="M182.068 164.979C179.266 163.192 176.433 161.39 174.17 159.044C173.706 158.57 173.271 158.039 173.151 157.411C173.031 156.782 173.376 156.042 174.035 155.875C174.77 155.693 175.444 156.266 176.014 156.754C178.157 158.612 180.989 159.799 183.912 160.05" fill="#FBC2AA"/>
<path d="M182.068 164.979C179.266 163.192 176.433 161.39 174.17 159.044C173.706 158.57 173.271 158.039 173.151 157.411C173.031 156.782 173.376 156.042 174.035 155.875C174.77 155.693 175.444 156.266 176.014 156.754C178.157 158.612 180.989 159.799 183.912 160.05" stroke="#1C1C1B" stroke-width="0.5" stroke-miterlimit="10"/>
<path d="M279.844 358.808C279.963 358.738 280.083 358.654 280.203 358.57C280.338 358.472 280.488 358.417 280.638 358.347C280.938 358.221 281.222 358.095 281.522 357.984C281.402 358.04 281.267 358.081 281.147 358.137C281.702 357.914 282.241 357.635 282.721 357.3C282.841 357.216 282.946 357.132 283.066 357.034C283.261 356.867 283.455 356.713 283.725 356.643C284.205 356.504 284.804 356.727 285.059 357.132C285.284 357.495 285.269 357.9 285.074 358.263C285.029 358.347 284.969 358.417 284.924 358.5C284.819 358.654 284.714 358.808 284.594 358.947C284.295 359.324 283.98 359.687 283.62 360.008C283.261 360.344 282.871 360.651 282.436 360.888C282.167 361.042 281.882 361.209 281.567 361.265C281.252 361.335 280.923 361.363 280.608 361.391C280.473 361.377 280.338 361.363 280.218 361.335C280.023 361.293 279.859 361.209 279.709 361.084C279.469 360.902 279.244 360.651 279.169 360.358C279.004 359.743 279.274 359.157 279.844 358.808Z" fill="#271F4B"/>
<path d="M276.262 354.967C276.337 354.73 276.472 354.521 276.652 354.339C276.981 353.99 277.326 353.641 277.656 353.278C277.806 353.124 277.97 353.026 278.18 352.971C278.375 352.873 278.585 352.831 278.81 352.845C279.035 352.831 279.244 352.887 279.439 352.971C279.634 353.026 279.814 353.138 279.964 353.278C280.054 353.376 280.129 353.487 280.219 353.585C280.368 353.822 280.443 354.074 280.443 354.339C280.428 354.479 280.398 354.604 280.383 354.744C280.308 354.995 280.174 355.219 279.964 355.414C279.589 355.735 279.214 356.043 278.825 356.35C278.69 356.489 278.525 356.587 278.33 356.643C278.15 356.727 277.956 356.769 277.746 356.769C277.536 356.783 277.341 356.741 277.161 356.643C276.966 356.587 276.802 356.489 276.667 356.35C276.592 356.252 276.502 356.154 276.427 356.056C276.292 355.833 276.217 355.596 276.217 355.33C276.217 355.219 276.232 355.093 276.262 354.967Z" fill="#271F4B"/>
<path d="M271.826 351.322C272.066 350.987 272.306 350.652 272.546 350.316C272.635 350.163 272.77 350.023 272.92 349.939C273.055 349.814 273.235 349.744 273.415 349.688C273.61 349.632 273.804 349.618 273.999 349.66C274.194 349.674 274.374 349.716 274.539 349.828C274.644 349.897 274.734 349.967 274.839 350.037C275.018 350.205 275.153 350.414 275.213 350.638C275.228 350.763 275.243 350.875 275.273 351.001C275.273 351.252 275.198 351.475 275.078 351.685C274.839 352.02 274.599 352.355 274.359 352.69C274.269 352.844 274.134 352.983 273.984 353.067C273.849 353.193 273.67 353.263 273.49 353.319C273.295 353.374 273.1 353.388 272.905 353.347C272.71 353.333 272.531 353.291 272.366 353.179C272.261 353.109 272.171 353.039 272.066 352.969C271.886 352.802 271.751 352.592 271.691 352.369C271.676 352.243 271.661 352.132 271.646 352.006C271.616 351.769 271.691 351.531 271.826 351.322Z" fill="#271F4B"/>
<path d="M219.686 348.097C219.776 347.804 220.015 347.496 220.3 347.357C220.615 347.203 220.99 347.133 221.334 347.231C221.439 347.273 221.544 347.315 221.649 347.357C221.844 347.469 222.009 347.622 222.129 347.804C222.353 348.083 222.593 348.362 222.818 348.641C222.938 348.781 223.073 348.907 223.193 349.032C223.253 349.088 223.313 349.144 223.357 349.2C223.462 349.298 223.567 349.409 223.642 349.535C223.717 349.647 223.777 349.8 223.822 349.926C223.927 350.233 224.017 350.54 224.122 350.848C224.242 351.225 224.077 351.63 223.747 351.867C223.432 352.09 222.953 352.146 222.593 351.937C222.353 351.797 222.129 351.658 221.889 351.518C221.829 351.476 221.769 351.448 221.709 351.406C221.469 351.253 221.274 351.085 221.124 350.848C221.035 350.722 220.96 350.596 220.87 350.471C220.555 349.982 220.165 349.535 219.806 349.074C219.626 348.809 219.611 348.376 219.686 348.097Z" fill="#271F4B"/>
<path d="M225.411 346.268C225.501 345.975 225.741 345.667 226.026 345.528C226.49 345.29 227.075 345.109 227.405 345.584C227.929 346.352 228.454 347.12 228.993 347.888C229.413 348.502 229.847 349.214 229.593 349.898C229.518 350.122 229.353 350.331 229.113 350.443C228.783 350.583 228.394 350.485 228.064 350.317C227.494 350.024 227.18 349.507 226.835 349.005C226.745 348.879 226.67 348.753 226.58 348.628C226.265 348.139 225.876 347.692 225.516 347.231C225.351 346.98 225.321 346.547 225.411 346.268Z" fill="#271F4B"/>
<path d="M214.425 350.192C214.485 350.011 214.605 349.843 214.755 349.717C215.055 349.452 215.46 349.27 215.879 349.284C216.284 349.298 216.734 349.424 217.003 349.717C217.603 350.388 218.202 351.044 218.787 351.714C218.937 351.854 219.057 352.007 219.116 352.189C219.221 352.37 219.266 352.552 219.251 352.761C219.266 352.971 219.206 353.152 219.116 353.334C219.057 353.515 218.937 353.683 218.787 353.809C218.487 354.074 218.082 354.255 217.663 354.242C217.258 354.228 216.808 354.102 216.539 353.809C215.939 353.138 215.34 352.482 214.755 351.812C214.605 351.672 214.485 351.519 214.425 351.337C214.321 351.156 214.276 350.974 214.291 350.765C214.276 350.555 214.321 350.374 214.425 350.192Z" fill="#271F4B"/>
<path d="M345.922 301.641C345.233 302.925 345.592 304.531 344.933 305.83C344.453 306.793 343.494 307.463 342.835 308.343C341.815 309.712 341.651 311.639 342.625 313.035C343.584 314.431 345.697 315.088 347.301 314.347C348.575 313.761 349.309 312.476 349.819 311.234C350.868 308.664 351.977 304.643 351.077 301.906C350.328 299.686 347.211 299.211 345.922 301.641Z" fill="black"/>
<path d="M162.196 292.075C163.35 291.209 165.058 291 166.392 291.642C167.711 292.284 168.535 293.751 168.251 295.105C168.101 295.845 167.651 296.543 167.621 297.297C167.576 298.261 168.206 299.14 168.535 300.062C169.03 301.43 168.82 303.05 167.786 304.111C166.752 305.187 164.878 305.536 163.59 304.754C162.226 303.916 161.881 302.226 161.626 300.718C161.177 298.009 159.393 294.169 162.196 292.075Z" fill="black"/>
<path d="M235.587 239.154C235.452 239.029 235.182 239.001 235.047 239.154C234.688 239.573 234.298 239.992 233.968 240.425C233.803 240.634 233.638 240.844 233.474 241.053C233.309 241.263 233.114 241.472 232.964 241.71C232.784 241.989 233.189 242.268 233.444 242.045C233.638 241.863 233.818 241.654 233.998 241.458C234.178 241.263 234.358 241.067 234.538 240.872C234.912 240.481 235.242 240.062 235.587 239.657C235.707 239.503 235.737 239.308 235.587 239.154Z" fill="black"/>
<path d="M291.758 257.068C290.619 257.082 289.51 257.292 288.446 257.655C288.116 255.546 287.787 253.452 287.442 251.343C287.082 249.123 286.648 246.903 286.318 244.669C286.303 244.557 286.093 244.585 286.108 244.697C286.378 246.973 286.543 249.249 286.827 251.525C287.112 253.759 287.427 255.993 287.757 258.227C287.787 258.409 288.056 258.535 288.221 258.479C289.345 258.046 290.514 257.822 291.743 257.795C292.268 257.781 292.268 257.068 291.758 257.068Z" fill="black"/>
<path d="M128.489 328.772C126.346 332.486 121.79 334.287 117.609 335.195C116.35 335.474 115.076 335.683 113.802 335.907C112.798 336.074 111.734 336.186 110.775 336.535C108.587 337.317 110.985 338.574 112.094 339.035C112.753 339.314 112.918 340.208 112.573 340.752C112.169 341.367 111.404 341.478 110.73 341.199C109.816 340.808 108.812 340.236 108.107 339.496L106.683 343.964H85.192L83.5134 315.646L115.915 315.143L115.061 317.81C118.643 316.847 123.049 316.484 126.256 318.494C129.883 320.784 130.483 325.295 128.489 328.772ZM124.803 320.784C121.82 318.829 117.459 319.57 114.252 320.547C114.222 320.561 114.192 320.575 114.162 320.575L109.801 334.189C110.55 333.924 111.374 333.743 112.109 333.603C116.305 332.807 121.056 332.248 124.308 329.372C126.751 327.222 128.07 322.935 124.803 320.784Z" fill="#271F4B"/>
<path d="M109.696 322.153C109.022 324.359 108.347 326.551 107.763 328.771C107.643 329.218 108.347 329.386 108.497 328.953C109.262 326.774 109.936 324.568 110.61 322.376C110.775 321.845 109.861 321.622 109.696 322.153Z" fill="black"/>
<path d="M106.654 332.765C106.309 333.868 105.965 334.957 105.62 336.06C105.275 337.163 105.02 338.281 104.721 339.384C104.601 339.844 105.32 340.026 105.47 339.579C105.845 338.49 106.264 337.401 106.594 336.312L107.583 333.002C107.748 332.444 106.819 332.206 106.654 332.765Z" fill="black"/>
<path d="M105.41 329.595C105.29 329.567 105.125 329.623 105.095 329.763C105.005 330.238 104.93 330.712 104.84 331.173C104.825 331.299 104.87 331.438 105.02 331.466C105.14 331.494 105.305 331.439 105.335 331.299C105.425 330.824 105.5 330.349 105.59 329.889C105.605 329.763 105.545 329.623 105.41 329.595Z" fill="black"/>
<path d="M316.861 281.658C316.666 284.255 315.378 286.671 313.474 288.542C313.249 288.766 313.594 289.073 313.834 288.877C316.007 287.048 317.206 284.381 317.296 281.658C317.296 281.393 316.876 281.407 316.861 281.658Z" fill="black"/>
<path d="M175.909 224.618C174.755 224.129 173.601 223.626 172.447 223.151C172.207 223.054 171.982 223.389 172.237 223.487C173.391 223.989 174.545 224.464 175.699 224.953C175.939 225.051 176.163 224.715 175.909 224.618Z" fill="black"/>
<path d="M99.8493 256.971C96.837 260.517 93.1651 263.534 89.9129 266.885C86.4659 270.432 83.8132 274.579 80.3662 278.125C77.3688 281.225 73.7869 283.837 69.8603 285.833C67.0877 287.244 60.6283 290.637 57.3312 289.883C50.9467 288.403 55.7276 278.391 57.7358 275.095C60.1338 271.144 63.5058 267.723 67.0727 264.665C70.8045 261.481 74.851 258.646 78.8675 255.798C83.3786 252.586 87.8747 249.388 92.3858 246.177C93.4799 245.409 94.544 244.599 95.668 243.859C96.5972 243.245 97.6163 242.742 98.7553 242.616C100.719 242.421 102.502 243.622 103.446 245.157C105.919 249.193 102.487 253.871 99.8493 256.971Z" fill="#271F4B"/>
<path d="M31.5385 263.38C32.4527 258.8 34.446 254.472 35.585 249.947C37.0987 243.943 37.0987 237.701 38.2826 231.641C39.4666 225.581 42.1344 219.367 47.5297 215.82C49.0284 214.843 50.7369 214.075 52.5503 213.949C55.8325 213.712 58.9648 215.611 60.8232 218.152C62.6666 220.68 63.4309 223.766 63.8805 226.81C65.6639 238.776 63.1462 251.274 56.8067 261.816C54.8284 265.112 52.4904 268.212 50.7669 271.619C48.4738 276.129 47.2749 281.1 47.0351 286.085C46.9302 288.249 46.9751 290.511 45.956 292.466C44.9818 294.365 41.415 297.256 38.9571 296.041C36.769 294.952 35.2553 288.543 34.476 286.476C31.7334 279.103 29.9798 271.172 31.5385 263.38Z" fill="#271F4B"/>
<path d="M10.047 263.296C9.59735 261.062 9.22268 258.492 10.7963 256.761C12.9694 254.359 17.3456 255.351 19.6986 257.599C22.4113 260.182 23.5353 263.882 23.88 267.485C24.2247 271.088 23.91 274.718 24.2097 278.307C24.6743 283.822 26.5926 289.115 27.8365 294.518C28.9756 299.434 26.8175 302.785 22.9059 297.926C20.2531 294.644 18.2599 290.846 16.6263 287.048C13.3741 279.424 11.6805 271.311 10.047 263.296Z" fill="#271F4B"/>
<path d="M83.3932 259.875C82.2093 261.885 80.8754 263.77 79.2868 265.516C77.6982 267.247 75.9446 268.853 74.1462 270.403C70.5343 273.503 66.6377 276.324 63.2057 279.605C61.5571 281.183 60.0134 282.859 58.6946 284.688C57.1509 286.824 56.0119 289.156 55.1426 291.6C54.1085 294.49 53.3293 297.464 52.475 300.411C51.5758 303.483 50.6766 306.569 49.7774 309.641C48.8032 312.992 47.829 316.329 47.0497 319.722C46.675 321.37 46.3453 323.032 46.0755 324.707C45.9556 325.489 45.8657 326.285 45.7757 327.081C45.7308 327.514 45.7008 327.933 45.6708 328.366C45.6558 328.533 45.6559 328.701 45.6559 328.868C45.7009 328.477 45.7758 328.087 45.8208 327.723C45.9407 326.844 46.0756 325.964 46.2254 325.084C46.4802 323.59 46.7949 322.11 47.1396 320.644C47.844 317.684 48.7133 314.779 49.5825 311.861C51.366 305.87 53.0594 299.852 54.9478 293.904C55.8021 291.223 56.8212 288.584 58.3799 286.168C59.6238 284.255 61.1225 282.509 62.7561 280.876C66.0982 277.552 69.9349 274.718 73.6217 271.73C77.6382 268.462 81.8346 264.86 84.2025 260.321C84.4573 259.805 83.693 259.372 83.3932 259.875Z" fill="#1C1C1B"/>
<path d="M45.6117 329.554C45.6414 329.33 45.6414 329.093 45.6562 328.855C45.6117 329.093 45.5969 329.33 45.6117 329.554Z" fill="#1C1C1B"/>
<path d="M45.6267 329.972C45.6117 329.832 45.6117 329.693 45.6117 329.553C45.5967 329.693 45.5667 329.832 45.5368 329.958C45.5068 330.028 45.6267 330.028 45.6267 329.972Z" fill="#1C1C1B"/>
<path d="M43.7078 269.525C44.1424 264.177 45.1616 258.857 47.1399 253.802C47.1998 253.648 46.9451 253.578 46.8851 253.732C43.2433 262.669 42.7037 272.29 42.8236 281.757C42.8835 286.63 43.1083 291.503 43.1533 296.377C43.2132 301.432 43.0184 306.472 42.5538 311.499C42.0593 316.819 41.3399 322.112 40.5905 327.404C34.3409 315.074 28.6308 302.507 23.5652 289.716C22.0815 285.96 20.6427 282.176 19.2639 278.378C19.0841 277.889 18.2598 278.098 18.4247 278.587C23.2805 292.048 28.8107 305.299 35.0153 318.272C36.7688 321.93 38.5672 325.561 40.4406 329.177C40.6654 329.624 41.2799 329.331 41.3249 328.954C42.7187 318.774 44.0226 308.581 43.9476 298.304C43.8727 288.739 42.9284 279.132 43.7078 269.525Z" fill="#1C1C1B"/>
<path d="M23.161 313.37C25.5589 323.661 27.1925 334.441 25.469 344.802C29.3356 344.816 48.8338 344.914 55.1133 344.858C55.0384 343.95 54.9634 343.057 54.9185 342.149C54.5588 335.726 55.0084 329.261 57.0616 323.089C57.5562 321.595 58.5903 316.735 59.2498 315.283L59.1298 313.37H23.161Z" fill="#312E81"/>
<path d="M60.6287 307.66L22.067 307.715C21.7373 307.715 21.4226 307.743 21.1079 307.799V316.108C21.4226 316.163 21.7373 316.191 22.067 316.191L59.8193 316.122L60.6287 307.66Z" fill="#1A0400"/>
<path d="M53.6296 320.268C53.0901 320.854 52.6704 321.595 52.2958 322.279C51.9211 322.963 51.6063 323.689 51.3066 324.415C50.7071 325.909 50.3474 327.417 50.1825 328.995C50.1226 329.651 51.3066 329.819 51.4415 329.149C51.7262 327.697 52.1009 326.23 52.6104 324.82C52.8652 324.122 53.165 323.438 53.4947 322.753C53.8094 322.083 54.2141 321.427 54.5138 320.743C54.7086 320.296 53.9593 319.905 53.6296 320.268Z" fill="#1C1C1B"/>
<path d="M50.9015 333.156C50.9165 332.682 50.1221 332.682 50.1071 333.156C50.0172 335.558 49.5227 337.932 49.5976 340.348C49.6276 341.116 50.7665 341.074 50.8415 340.348C51.1262 337.946 50.8115 335.558 50.9015 333.156Z" fill="#1C1C1B"/>
<path d="M48.3989 342.749C45.7312 342.345 42.9887 342.219 40.306 342.526C39.4068 342.624 39.5716 343.783 40.4708 343.671C43.0636 343.35 45.6863 343.28 48.2791 343.559C48.7737 343.615 48.8935 342.819 48.3989 342.749Z" fill="#1C1C1B"/>
<path d="M362.227 237.673C359.529 238.79 356.142 240.871 355.738 243.845C355.618 244.725 354.149 245.116 353.924 244.069C353.58 242.477 352.815 241.025 351.556 239.88C350.252 238.679 348.499 238.162 347.09 237.087C346.656 236.752 346.895 235.984 347.435 235.886C350.193 235.383 353.16 233.973 354.389 231.571C354.254 231.138 354.149 230.678 354.104 230.203C354.044 229.561 354.674 229.03 355.303 228.932C356.007 228.834 356.592 229.253 356.817 229.854C357.416 231.487 358.271 232.926 359.335 234.266C360.234 234.992 361.253 235.621 362.212 236.235C362.707 236.57 362.887 237.408 362.227 237.673Z" fill="#D9E0FC"/>
<path d="M372.508 254.039C371.864 253.452 371.174 252.894 370.5 252.349C370.86 252.182 371.234 252 371.594 251.818C372.074 251.567 372.269 250.925 371.969 250.492C371.639 250.003 371.085 249.933 370.545 250.143C370.38 250.213 370.215 250.282 370.065 250.352C370.26 249.235 370.47 248.104 370.74 246.987C370.95 246.107 369.526 245.73 369.286 246.61C368.941 247.895 368.552 249.179 368.177 250.45C367.533 249.933 366.888 249.403 366.244 248.886C365.899 248.607 365.389 248.579 365.06 248.886C364.73 249.193 364.745 249.682 365.06 249.989C365.674 250.604 366.289 251.218 366.888 251.846C366.588 252 366.274 252.154 365.989 252.335C365.509 252.614 364.985 252.838 364.475 253.075C364.026 253.285 363.891 253.885 364.131 254.276C364.4 254.709 364.955 254.807 365.419 254.583C365.884 254.36 366.364 254.109 366.843 253.941C366.993 253.885 367.128 253.829 367.263 253.773C367.188 254.053 367.113 254.332 367.053 254.597C366.813 255.533 366.454 256.496 366.409 257.46C366.349 258.814 368.492 259.024 368.896 257.767C369.166 256.901 369.166 255.952 369.286 255.058C369.316 254.835 369.361 254.611 369.391 254.374C369.826 254.807 370.275 255.24 370.74 255.672C371.204 256.091 372.044 256.147 372.508 255.672C372.958 255.226 373.003 254.485 372.508 254.039Z" fill="#D9E0FC"/>
<path d="M34.011 62.5845C32.0477 61.7747 30.594 60.3224 29.8297 58.4653C29.5599 57.795 28.5857 57.7532 28.331 58.4653C28.0012 59.3729 27.4317 60.1828 26.7873 60.9089C26.7573 60.9508 26.7273 60.9927 26.6973 61.0206C26.1128 61.4814 25.4384 61.8724 24.704 62.0958C24.2245 62.2354 24.1945 62.9057 24.704 63.0314C25.7082 63.2827 26.5774 63.6597 27.3118 64.3579C28.0162 65.0421 28.4658 65.8799 28.6306 66.8015C28.7655 67.5555 29.9945 67.2344 29.8746 66.4804C29.7397 65.6844 30.6389 65.098 31.2834 64.7768C32.1676 64.33 33.1118 63.953 34.041 63.562C34.4157 63.4084 34.4157 62.7521 34.011 62.5845Z" fill="#D9E0FC"/>
<path d="M23.9097 43.1616C24.3743 43.3431 24.9738 43.7201 24.764 44.139C24.6441 44.3764 24.3443 44.4602 24.0746 44.53C21.257 45.1723 16.0565 46.1777 16.2364 49.8362C16.2664 50.6181 15.0074 50.7438 14.7976 50.0177C14.0632 47.3367 12.3097 44.907 9.64206 43.6224C9.04258 43.3292 9.37232 42.5612 9.95682 42.5193C11.4555 42.4215 12.8792 41.849 14.0182 40.9554C15.3821 39.8941 15.7268 39.2937 16.0715 37.7298C16.2063 37.1014 16.5961 36.4451 17.2705 36.2915C17.3904 36.2636 17.5403 36.2496 17.6602 36.3055C17.9 36.3893 18.0048 36.6546 18.0798 36.878C19.009 39.3914 20.8074 41.7094 23.3252 42.9242C23.535 42.994 23.7149 43.0778 23.9097 43.1616Z" fill="#D9E0FC"/>
<path d="M328.911 81.3938C328.206 80.9888 326.992 80.8771 326.498 80.2348C325.614 79.0618 327.772 79.1037 328.371 78.9501C329.48 78.6709 330.379 77.8749 330.979 76.9533C331.578 76.0317 331.908 74.9845 332.223 73.9512C332.972 74.3282 333.122 75.2219 333.437 75.9619C333.976 77.2186 335.205 78.1402 336.599 78.4754C337.094 78.5871 339.776 79.1316 337.918 80.0253C336.674 80.6118 335.265 81.1145 334.246 82.0361C333.602 82.6225 332.642 85.4292 331.908 85.3175C331.578 85.2756 331.339 85.0243 331.189 84.745C331.054 84.4657 330.994 84.1585 330.904 83.8653C330.739 83.3347 330.469 82.832 330.095 82.3991C329.78 82.0082 329.375 81.673 328.911 81.3938Z" fill="#D9E0FC"/>
<path d="M13.5096 87.1038C10.4073 88.0393 8.68385 90.86 7.91951 93.6248C7.69471 94.4067 6.33086 94.2531 6.39081 93.4293C6.48073 91.9631 5.89624 90.5667 4.89211 89.4496C3.69315 88.1091 2.2394 87.7042 0.575838 87.006C0.336046 86.9083 0.0512857 86.7687 0.00632477 86.5173C-0.0386362 86.2799 0.171182 86.0565 0.381 85.9169C1.08539 85.47 1.99962 85.5119 2.83889 85.3583C4.84715 85.0092 6.54067 83.4314 6.94532 81.5742C7.03524 81.1832 7.06524 80.7643 7.24508 80.4013C7.42492 80.0382 7.82956 79.731 8.26419 79.7869C8.78873 79.8567 9.05844 80.3873 9.23829 80.8481C9.59798 81.7837 9.83782 82.6634 10.6022 83.3755C11.5164 84.2273 12.6254 84.8975 13.7344 85.484C14.4688 85.875 14.259 86.8804 13.5096 87.1038Z" fill="#D9E0FC"/>
</svg>
