<svg width="271" height="260" viewBox="0 0 271 260" fill="none" xmlns="http://www.w3.org/2000/svg">
<path d="M135.144 243.283C169.729 243.283 197.766 241.169 197.766 238.562C197.766 235.955 169.729 233.841 135.144 233.841C100.558 233.841 72.521 235.955 72.521 238.562C72.521 241.169 100.558 243.283 135.144 243.283Z" fill="#5552A8" fill-opacity="0.63"/>
<path d="M211.244 40.6324C210.725 42.9261 210.857 45.3435 211.622 47.5493C212.386 49.7552 213.746 51.6401 215.511 52.9425C217.276 54.245 219.36 54.9005 221.474 54.8181C223.587 54.7356 225.625 53.9194 227.305 52.4825L231.249 56.7067C231.147 57.167 231.155 57.6488 231.271 58.1048C231.387 58.5608 231.607 58.9751 231.909 59.3068L240.476 68.6963C240.706 68.9457 240.977 69.1421 241.275 69.2741C241.573 69.4061 241.891 69.4712 242.211 69.4657C242.531 69.4602 242.847 69.3842 243.141 69.242C243.435 69.0998 243.701 68.8943 243.924 68.637C244.147 68.3798 244.323 68.076 244.441 67.7429C244.559 67.4097 244.617 67.0539 244.612 66.6956C244.607 66.3374 244.539 65.9837 244.412 65.6548C244.285 65.3259 244.101 65.0282 243.871 64.7788L235.286 55.3823C234.977 55.0494 234.595 54.8135 234.178 54.6984C233.761 54.5834 233.325 54.5933 232.912 54.7271L229.056 50.5726C229.987 49.2965 230.655 47.8066 231.012 46.2089C231.339 44.7566 231.408 43.2465 231.213 41.7646C231.019 40.2827 230.566 38.8582 229.879 37.5724C229.193 36.2866 228.287 35.1646 227.213 34.2705C226.139 33.3765 224.918 32.7279 223.62 32.3617C222.322 31.9955 220.972 31.919 219.648 32.1365C218.323 32.354 217.05 32.8612 215.901 33.6292C214.752 34.3972 213.749 35.411 212.95 36.6126C212.151 37.8142 211.571 39.1801 211.244 40.6324ZM229.243 45.6931C228.839 47.4888 227.968 49.1102 226.74 50.3522C225.513 51.5941 223.984 52.4008 222.346 52.6703C220.709 52.9398 219.037 52.6598 217.541 51.866C216.046 51.0721 214.795 49.7999 213.946 48.2103C213.097 46.6208 212.688 44.7852 212.772 42.9358C212.856 41.0864 213.427 39.3063 214.415 37.8206C215.403 36.3349 216.763 35.2103 218.322 34.5892C219.881 33.968 221.57 33.8781 223.175 34.3309C225.325 34.9395 227.171 36.4776 228.309 38.6078C229.447 40.738 229.783 43.2862 229.243 45.6931Z" stroke="#0D062D" stroke-miterlimit="10"/>
<path d="M22.8344 178.77C21.289 179.184 19.8969 180.125 18.8509 181.463C17.8049 182.801 17.1569 184.47 16.9967 186.239C16.8365 188.007 17.1721 189.788 17.9568 191.334C18.7416 192.879 19.9367 194.114 21.3765 194.866L20.2301 199.278C19.9204 199.361 19.6355 199.534 19.4038 199.778C19.1721 200.023 19.0016 200.331 18.9093 200.672L16.2614 210.34C16.131 210.864 16.1881 211.425 16.4208 211.902C16.6534 212.38 17.0432 212.737 17.5075 212.899C17.9758 213.045 18.4765 212.981 18.9034 212.72C19.3303 212.46 19.6498 212.024 19.794 211.504L22.4232 201.836C22.5167 201.49 22.5256 201.121 22.4489 200.769C22.3722 200.418 22.2127 200.095 21.987 199.836L23.121 195.5C24.2461 195.759 25.4091 195.732 26.5236 195.421C27.6382 195.109 28.676 194.521 29.5601 193.701C30.4442 192.88 31.1521 191.847 31.6314 190.679C32.1107 189.511 32.3491 188.237 32.329 186.952C32.3089 185.667 32.0308 184.403 31.5153 183.255C30.9998 182.106 30.26 181.102 29.3507 180.316C28.4415 179.531 27.386 178.984 26.2624 178.716C25.1387 178.449 23.9757 178.467 22.8593 178.77H22.8344ZM26.0616 193.966C24.8508 194.288 23.5817 194.202 22.415 193.717C21.2482 193.232 20.2362 192.371 19.5069 191.242C18.7775 190.114 18.3637 188.769 18.3176 187.377C18.2715 185.986 18.5954 184.61 19.2481 183.425C19.9009 182.239 20.8532 181.297 21.9847 180.716C23.1162 180.136 24.376 179.945 25.6049 180.166C26.8337 180.387 27.9764 181.011 28.8883 181.958C29.8002 182.906 30.4405 184.135 30.7281 185.49C31.1128 187.302 30.8404 189.211 29.9706 190.8C29.1009 192.388 27.7044 193.527 26.0866 193.966H26.0616Z" stroke="#0D062D" stroke-miterlimit="10"/>
<path d="M242.803 110.754H224.735C223.562 110.754 222.436 111.276 221.607 112.204C220.777 113.132 220.311 114.391 220.311 115.704V126.891C220.311 128.204 220.777 129.463 221.607 130.391C222.436 131.319 223.562 131.841 224.735 131.841H237.32L236.697 138.811L242.553 131.841H242.803C243.383 131.841 243.959 131.713 244.495 131.464C245.032 131.215 245.52 130.851 245.93 130.391C246.341 129.931 246.667 129.386 246.889 128.785C247.112 128.185 247.226 127.541 247.226 126.891V115.704C247.226 115.054 247.112 114.41 246.889 113.81C246.667 113.209 246.341 112.664 245.93 112.204C245.52 111.744 245.032 111.38 244.495 111.131C243.959 110.882 243.383 110.754 242.803 110.754Z" stroke="#0D062D" stroke-miterlimit="10"/>
<path d="M36.3945 137.243H48.6369C49.0305 137.243 49.4202 137.329 49.7837 137.498C50.1473 137.666 50.4777 137.913 50.756 138.225C51.0342 138.536 51.255 138.906 51.4056 139.312C51.5562 139.719 51.6337 140.155 51.6337 140.596V148.173C51.6337 148.613 51.5562 149.049 51.4056 149.456C51.255 149.863 51.0342 150.232 50.756 150.544C50.4777 150.855 50.1473 151.102 49.7837 151.27C49.4202 151.439 49.0305 151.526 48.6369 151.526H40.1139L40.5563 156.238L36.5627 151.526H36.3945C35.5997 151.526 34.8374 151.172 34.2754 150.544C33.7134 149.915 33.3977 149.062 33.3977 148.173V140.596C33.3977 139.706 33.7134 138.854 34.2754 138.225C34.8374 137.596 35.5997 137.243 36.3945 137.243Z" stroke="#0D062D" stroke-miterlimit="10"/>
<path d="M126.889 9.51221H139.131C139.926 9.51221 140.688 9.86546 141.25 10.4942C141.812 11.123 142.128 11.9759 142.128 12.8651V20.4422C142.128 21.3314 141.812 22.1843 141.25 22.8131C140.688 23.4418 139.926 23.7951 139.131 23.7951H130.608L131.05 28.5073L127.057 23.7951H126.889C126.094 23.7951 125.332 23.4418 124.77 22.8131C124.208 22.1843 123.892 21.3314 123.892 20.4422V12.8651C123.892 11.9759 124.208 11.123 124.77 10.4942C125.332 9.86546 126.094 9.51221 126.889 9.51221Z" stroke="#0D062D" stroke-miterlimit="10"/>
<path d="M104.603 28.6782L137.012 122.336L206.609 30.156" stroke="#0D062D" stroke-miterlimit="10"/>
<path d="M234.252 89.8042L137.012 122.336L202.315 198.247" stroke="#0D062D" stroke-miterlimit="10"/>
<path d="M62.1775 195.291L137.012 122.336L35.0061 104.589" stroke="#0D062D" stroke-miterlimit="10"/>
<path d="M242.574 94.8234C245.098 89.8369 243.235 83.6785 238.413 81.0683C233.591 78.4581 227.636 80.3845 225.112 85.371C222.588 90.3575 224.45 96.5159 229.272 99.1261C234.094 101.736 240.05 99.81 242.574 94.8234Z" fill="#5552A8" fill-opacity="0.63" stroke="#0D062D" stroke-width="0.5" stroke-miterlimit="10"/>
<path d="M237.104 89.3926H230.68C230.077 89.3926 229.5 89.6401 229.074 90.0806C228.648 90.5212 228.408 91.1187 228.408 91.7417V97.3182C229.978 98.585 231.916 99.2655 233.907 99.249C235.898 99.2326 237.825 98.5201 239.375 97.2276V91.7417C239.375 91.1187 239.136 90.5212 238.71 90.0806C238.284 89.6401 237.706 89.3926 237.104 89.3926Z" fill="#312E81" stroke="#0D062D" stroke-miterlimit="10"/>
<path d="M233.781 88.368C234.428 88.368 235.06 88.1697 235.597 87.7982C236.135 87.4267 236.554 86.8987 236.801 86.281C237.049 85.6632 237.113 84.9835 236.987 84.3277C236.861 83.6719 236.55 83.0695 236.093 82.5967C235.635 82.1238 235.053 81.8019 234.419 81.6714C233.785 81.541 233.127 81.6079 232.53 81.8638C231.932 82.1197 231.422 82.553 231.063 83.109C230.703 83.6649 230.512 84.3186 230.512 84.9872C230.512 85.8838 230.856 86.7438 231.469 87.3778C232.082 88.0118 232.914 88.368 233.781 88.368Z" fill="#312E81" stroke="#0D062D" stroke-miterlimit="10"/>
<path d="M212.407 198.561C214.508 193.369 212.141 187.398 207.121 185.225C202.1 183.052 196.326 185.5 194.225 190.692C192.124 195.884 194.491 201.854 199.511 204.027C204.532 206.2 210.306 203.753 212.407 198.561Z" fill="#5552A8" fill-opacity="0.63" stroke="#0D062D" stroke-width="0.5" stroke-miterlimit="10"/>
<path d="M206.623 193.953H200.199C199.901 193.952 199.606 194.012 199.33 194.129C199.054 194.246 198.804 194.419 198.593 194.636C198.382 194.854 198.215 195.112 198.1 195.397C197.986 195.681 197.927 195.987 197.927 196.295V201.871C199.497 203.138 201.435 203.819 203.426 203.802C205.417 203.786 207.344 203.073 208.894 201.781V196.295C208.894 195.987 208.835 195.681 208.721 195.397C208.607 195.112 208.44 194.854 208.228 194.636C208.017 194.419 207.767 194.246 207.491 194.129C207.216 194.012 206.921 193.952 206.623 193.953Z" fill="#312E81" stroke="#0D062D" stroke-miterlimit="10"/>
<path d="M203.253 192.921C203.9 192.921 204.532 192.723 205.069 192.351C205.607 191.98 206.026 191.452 206.273 190.834C206.521 190.216 206.586 189.537 206.459 188.881C206.333 188.225 206.022 187.623 205.565 187.15C205.108 186.677 204.525 186.355 203.891 186.225C203.257 186.094 202.599 186.161 202.002 186.417C201.405 186.673 200.894 187.106 200.535 187.662C200.176 188.218 199.984 188.872 199.984 189.54C199.984 189.984 200.068 190.424 200.233 190.834C200.397 191.244 200.638 191.617 200.941 191.931C201.245 192.245 201.605 192.494 202.002 192.664C202.399 192.834 202.824 192.921 203.253 192.921Z" fill="#312E81" stroke="#0D062D" stroke-miterlimit="10"/>
<path d="M104.178 35.2587C108.043 35.2587 111.175 32.0192 111.175 28.0231C111.175 24.0271 108.043 20.7876 104.178 20.7876C100.314 20.7876 97.1816 24.0271 97.1816 28.0231C97.1816 32.0192 100.314 35.2587 104.178 35.2587Z" fill="#5552A8" fill-opacity="0.63" stroke="#0D062D" stroke-width="0.5" stroke-miterlimit="10"/>
<path d="M106.498 27.5698H101.941C101.514 27.5698 101.104 27.7453 100.802 28.0578C100.5 28.3702 100.33 28.794 100.33 29.2358V33.1464C101.445 34.0421 102.819 34.5231 104.23 34.5117C105.641 34.5003 107.008 33.9972 108.109 33.0836V29.201C108.1 28.7652 107.926 28.3503 107.625 28.0454C107.324 27.7405 106.919 27.5697 106.498 27.5698Z" fill="#312E81" stroke="#0D062D" stroke-miterlimit="10"/>
<path d="M104.165 26.8031C104.624 26.8031 105.072 26.6625 105.453 26.399C105.835 26.1355 106.132 25.761 106.307 25.3229C106.483 24.8847 106.529 24.4026 106.439 23.9374C106.35 23.4723 106.129 23.045 105.805 22.7097C105.48 22.3743 105.067 22.1459 104.617 22.0534C104.168 21.9609 103.701 22.0084 103.278 22.1899C102.854 22.3713 102.492 22.6787 102.237 23.073C101.982 23.4674 101.846 23.931 101.846 24.4052C101.846 25.0412 102.09 25.6511 102.525 26.1008C102.96 26.5505 103.55 26.8031 104.165 26.8031Z" fill="#312E81" stroke="#0D062D" stroke-miterlimit="10"/>
<path d="M67.5619 196.894C69.05 193.206 67.3654 188.969 63.7992 187.43C60.233 185.892 56.1357 187.634 54.6476 191.322C53.1595 195.009 54.8441 199.247 58.4103 200.785C61.9764 202.324 66.0737 200.582 67.5619 196.894Z" fill="#5552A8" fill-opacity="0.63" stroke="#0D062D" stroke-width="0.5" stroke-miterlimit="10"/>
<path d="M63.4247 193.618H58.868C58.6553 193.617 58.4445 193.66 58.2479 193.744C58.0512 193.827 57.8725 193.951 57.7221 194.106C57.5717 194.262 57.4526 194.446 57.3716 194.65C57.2906 194.853 57.2494 195.071 57.2503 195.291V199.244C58.3638 200.144 59.7397 200.629 61.1536 200.617C62.5674 200.606 63.9358 200.1 65.0357 199.181V195.291C65.0366 195.072 64.9955 194.854 64.915 194.651C64.8344 194.449 64.7159 194.264 64.5662 194.109C64.4165 193.953 64.2386 193.83 64.0427 193.746C63.8468 193.662 63.6368 193.618 63.4247 193.618Z" fill="#312E81" stroke="#0D062D" stroke-miterlimit="10"/>
<path d="M61.0658 192.886C61.5245 192.886 61.9728 192.746 62.3541 192.482C62.7354 192.219 63.0326 191.844 63.2081 191.406C63.3836 190.968 63.4295 190.486 63.3401 190.02C63.2506 189.555 63.0298 189.128 62.7055 188.793C62.3812 188.457 61.968 188.229 61.5182 188.136C61.0684 188.044 60.6022 188.091 60.1785 188.273C59.7548 188.454 59.3926 188.762 59.1379 189.156C58.8831 189.55 58.7471 190.014 58.7471 190.488C58.7471 191.124 58.9914 191.734 59.4262 192.184C59.8611 192.634 60.4509 192.886 61.0658 192.886Z" fill="#312E81" stroke="#0D062D" stroke-miterlimit="10"/>
<path d="M212.993 30.1275C214.4 26.4059 212.624 22.209 209.025 20.7535C205.426 19.2981 201.368 21.1351 199.961 24.8567C198.553 28.5783 200.329 32.7751 203.928 34.2306C207.527 35.6861 211.585 33.849 212.993 30.1275Z" fill="#5552A8" fill-opacity="0.63" stroke="#0D062D" stroke-width="0.5" stroke-miterlimit="10"/>
<path d="M208.813 27.0054H204.25C204.038 27.0054 203.829 27.0485 203.633 27.1322C203.438 27.2159 203.26 27.3386 203.111 27.4933C202.961 27.648 202.842 27.8317 202.761 28.0338C202.68 28.2359 202.639 28.4526 202.639 28.6714V32.6307C203.754 33.527 205.129 34.0083 206.542 33.9969C207.955 33.9855 209.322 33.4821 210.424 32.568V28.6714C210.424 28.4526 210.382 28.2359 210.301 28.0338C210.22 27.8317 210.102 27.648 209.952 27.4933C209.803 27.3386 209.625 27.2159 209.43 27.1322C209.234 27.0485 209.025 27.0054 208.813 27.0054Z" fill="#312E81" stroke="#0D062D" stroke-miterlimit="10"/>
<path d="M206.454 26.2734C206.912 26.2734 207.361 26.1327 207.742 25.8692C208.123 25.6057 208.421 25.2312 208.596 24.7931C208.772 24.3549 208.817 23.8728 208.728 23.4076C208.639 22.9425 208.418 22.5152 208.093 22.1799C207.769 21.8445 207.356 21.6161 206.906 21.5236C206.456 21.4311 205.99 21.4786 205.566 21.6601C205.143 21.8416 204.781 22.1489 204.526 22.5432C204.271 22.9376 204.135 23.4012 204.135 23.8754C204.135 24.5114 204.379 25.1213 204.814 25.571C205.249 26.0207 205.839 26.2734 206.454 26.2734Z" fill="#312E81" stroke="#0D062D" stroke-miterlimit="10"/>
<path d="M45.9139 107.995C48.6568 101.274 45.6114 93.5256 39.1118 90.6892C32.6123 87.8527 25.1198 91.0021 22.377 97.7235C19.6342 104.445 22.6796 112.193 29.1791 115.029C35.6787 117.866 43.1711 114.717 45.9139 107.995Z" fill="#5552A8" fill-opacity="0.63" stroke="#0D062D" stroke-width="0.5" stroke-miterlimit="10"/>
<path d="M38.3838 101.968H30.0592C29.2791 101.968 28.5309 102.288 27.9787 102.858C27.4264 103.427 27.1153 104.2 27.1135 105.007V112.229C29.1487 113.866 31.6584 114.746 34.2369 114.725C36.8153 114.705 39.3118 113.786 41.3227 112.117V105.007C41.3227 104.201 41.0131 103.428 40.462 102.858C39.9108 102.288 39.1633 101.968 38.3838 101.968Z" fill="#312E81" stroke="#0D062D" stroke-miterlimit="10"/>
<path d="M34.0622 100.63C34.8994 100.63 35.7179 100.373 36.414 99.8919C37.1101 99.4109 37.6527 98.7272 37.9731 97.9273C38.2935 97.1274 38.3773 96.2472 38.214 95.3981C38.0506 94.5489 37.6475 93.7689 37.0555 93.1567C36.4635 92.5445 35.7092 92.1275 34.888 91.9586C34.0669 91.7897 33.2158 91.8764 32.4423 92.2077C31.6688 92.5391 31.0076 93.1001 30.5425 93.82C30.0774 94.5399 29.8291 95.3863 29.8291 96.2521C29.8291 97.4131 30.2751 98.5265 31.069 99.3475C31.8628 100.168 32.9395 100.63 34.0622 100.63Z" fill="#312E81" stroke="#0D062D" stroke-miterlimit="10"/>
<path d="M71.2865 50.3217C71.2865 50.2798 71.2865 50.238 71.2865 50.1962C71.1099 48.3873 70.473 46.673 69.4514 45.257C68.4299 43.841 67.0666 42.7827 65.5235 42.2078C63.9574 41.6131 62.2665 41.5669 60.6764 42.0754C61.0284 40.7376 61.1489 39.337 61.0315 37.9488C60.8001 35.1725 59.6339 32.5986 57.7692 30.7487C55.9045 28.8989 53.4808 27.9116 50.9896 27.9869C48.4984 28.0623 46.126 29.1947 44.3534 31.1545C42.5807 33.1144 41.5405 35.7551 41.4435 38.5413C41.3002 38.5413 41.1569 38.5413 41.0136 38.5413C38.4079 38.5413 35.9088 39.6994 34.0662 41.761C32.2237 43.8225 31.1885 46.6185 31.1885 49.534C31.1861 50.5184 31.3035 51.4987 31.5374 52.4477C31.8671 53.7223 32.5597 54.8416 33.5099 55.6355C34.4602 56.4294 35.6161 56.8545 36.802 56.8462H65.8226C66.5726 56.8502 67.3154 56.6809 68.0043 56.349C68.6933 56.0171 69.3136 55.5297 69.8264 54.9173C70.3393 54.3049 70.7337 53.5806 70.9849 52.7899C71.2361 51.9991 71.3388 51.1589 71.2865 50.3217Z" stroke="#0D062D" stroke-miterlimit="10"/>
<path d="M220.334 161.901C220.331 161.878 220.331 161.855 220.334 161.832C220.239 160.853 219.895 159.925 219.343 159.159C218.791 158.393 218.053 157.821 217.219 157.51C216.373 157.187 215.46 157.163 214.602 157.44C214.795 156.718 214.862 155.96 214.801 155.209C214.709 153.681 214.092 152.252 213.079 151.221C212.067 150.19 210.737 149.637 209.368 149.678C207.999 149.72 206.698 150.352 205.736 151.443C204.775 152.534 204.228 153.998 204.21 155.53H203.979C202.572 155.532 201.224 156.158 200.23 157.272C199.236 158.386 198.677 159.895 198.677 161.469C198.679 161.999 198.742 162.526 198.864 163.037C199.041 163.727 199.414 164.333 199.927 164.763C200.44 165.194 201.064 165.425 201.705 165.421H217.368C217.774 165.426 218.177 165.337 218.551 165.159C218.925 164.982 219.261 164.719 219.54 164.388C219.819 164.057 220.033 163.666 220.17 163.238C220.306 162.81 220.362 162.355 220.334 161.901Z" stroke="#0D062D" stroke-miterlimit="10"/>
<path d="M82.5816 215.617C82.5816 215.617 82.5816 215.575 82.5816 215.554C82.4877 214.576 82.144 213.648 81.5917 212.881C81.0393 212.115 80.3016 211.543 79.4664 211.233C78.6212 210.91 77.7078 210.886 76.8497 211.163C77.0407 210.44 77.1062 209.683 77.0429 208.932C76.9096 207.491 76.3142 206.153 75.367 205.165C74.4198 204.177 73.1848 203.606 71.8904 203.558C70.4994 203.52 69.151 204.096 68.1367 205.162C67.1224 206.228 66.5237 207.697 66.4701 209.253H66.2396C65.5423 209.252 64.8517 209.405 64.2073 209.703C63.5629 210.001 62.9774 210.439 62.4843 210.99C61.9912 211.542 61.6003 212.197 61.3338 212.918C61.0673 213.639 60.9306 214.412 60.9314 215.192C60.9318 215.722 60.9968 216.25 61.1245 216.76C61.2993 217.451 61.6719 218.058 62.1852 218.489C62.6985 218.92 63.324 219.15 63.9655 219.144H79.6222C80.0284 219.148 80.431 219.058 80.8046 218.88C81.1781 218.701 81.5145 218.438 81.7926 218.106C82.0706 217.775 82.2843 217.382 82.4201 216.954C82.5559 216.526 82.6109 216.07 82.5816 215.617Z" stroke="#0D062D" stroke-miterlimit="10"/>
<path d="M171.737 34.0457C171.74 34.0249 171.74 34.0037 171.737 33.9829C171.645 33.0035 171.301 32.0748 170.749 31.3082C170.196 30.5415 169.458 29.9696 168.622 29.6611C167.777 29.3364 166.864 29.3096 166.005 29.5844C166.199 28.8645 166.265 28.109 166.198 27.3608C166.106 25.8323 165.489 24.4029 164.476 23.372C163.464 22.341 162.134 21.7884 160.765 21.8298C159.396 21.8712 158.095 22.5035 157.133 23.5943C156.172 24.685 155.625 26.1496 155.607 27.6814H155.376C154.56 27.6837 153.756 27.896 153.025 28.302C152.295 28.708 151.657 29.2968 151.163 30.0227C150.668 30.7486 150.33 31.5922 150.173 32.4881C150.017 33.384 150.047 34.3081 150.261 35.1888C150.438 35.8784 150.811 36.4845 151.324 36.9148C151.837 37.3452 152.461 37.5762 153.102 37.5728H168.765C169.173 37.5799 169.577 37.4919 169.953 37.3144C170.328 37.137 170.666 36.874 170.946 36.5421C171.225 36.2103 171.44 35.8169 171.576 35.3871C171.713 34.9573 171.767 34.5004 171.737 34.0457Z" stroke="#0D062D" stroke-miterlimit="10"/>
<path d="M182.746 173.994C209.186 144.412 209.186 96.4495 182.746 66.8672C156.305 37.2849 113.437 37.2849 86.9972 66.8672C60.557 96.4495 60.557 144.412 86.9972 173.994C113.437 203.576 156.305 203.576 182.746 173.994Z" fill="white" stroke="#0D062D" stroke-miterlimit="10"/>
<path d="M132.434 85.3633L138.864 88.5977L140.627 91.8321L143.524 93.0938L143.842 96.5094L142.721 98.4821L140.472 99.0258L135.649 96.8649V96.1679L138.378 94.9062L137.419 91.135L133.057 89.3366L131.132 86.4577L132.434 85.3633ZM172.931 168.419L167.791 166.084L161.524 163.567H156.539L151.879 162.487L146.733 163.741L143.842 163.923H142.079L138.702 166.084L135.462 167.52L131.101 164.466L132.223 159.427L129.494 158.172H126.279L125.799 156.555L126.117 153.313L124.996 151.522L122.746 151.877L122.123 153.676L119.395 153.857L116.983 150.623L116.018 146.308L118.429 141.268L123.089 141.631L124.379 142.892H126.304L128.715 141.268L130.802 141.965L133.693 147.542L134.821 147.36L134.497 143.227L133.593 141.094L133.911 137.678L139.855 134.799L140.658 128.149L143.232 125.807L145.319 121.674L146.926 121.318L150.621 118.62L150.783 117.184L148.216 117.359L147.73 115.923H145.967L143.232 116.62L144.515 114.285L150.122 112.486L151.406 110.869L153.655 114.821L155.106 116.439L157.356 115.741L156.39 113.406L153.013 110.709L149.157 105.829L145.144 102.769L141.288 102.072L139.356 99.9181L136.783 99.221L136.465 99.9181L136.141 105.132L136.764 106.924L135.319 112.681L132.117 109.823L132.596 107.307L129.232 105.495L127.774 103.55L128.578 99.0607L133.238 95.2826L133.562 90.9677L131.793 91.149L130.665 89.5318L130.185 86.8341L129.058 86.6529L128.435 89.5318L126.671 89.8873L125.868 83.6137L124.559 82.6378L122.31 81.5574L119.743 82.9933L122.952 86.4089L123.575 89.4691L117.787 84.5896L113.769 79.7101L113.451 74.8307L109.295 73.4923L106.08 75.8344C105.306 76.3592 104.507 76.8385 103.688 77.2704C102.42 77.6087 101.131 77.8417 99.8315 77.9675L99.2085 81.0276L95.5139 81.2019L95.8379 83.1815L101.782 84.262L104.834 88.0331V94.3067L103.065 99.8832L103.389 105.815L98.8907 114.619L97.925 127.745L99.3268 135.336L101.414 141.094L103.825 141.449L103.021 138.577L101.738 136.416L100.934 132.464L102.38 132.102L104.629 138.577L106.236 144.328V148.998L109.289 153.139L114.753 157.628L123.108 160.152L125.681 162.842L127.606 165.721L130.503 167.701L134.036 168.774L137.568 168.6C137.568 168.6 137.412 170.398 137.412 171.298C137.412 172.197 135.163 175.25 135.163 175.25L133.4 178.833L134.684 182.785L138.222 184.402L143.207 190.16L145.456 191.234V193.931L145.736 195.186C158.234 192.927 169.91 186.776 179.429 177.439L179.517 176.135L183.878 167.324L181.791 165.707L172.931 168.419ZM189.666 97.4086L187.896 93.986L185.647 90.0337L185.024 84.6384L187.915 85.1821L188.077 83.3837L185.984 83.2024L187.753 82.3032L189.684 81.0485V79.2501L187.753 76.3712L187.342 72.5025C178.004 59.7169 165.189 50.6937 150.847 46.8056C136.505 42.9176 121.42 44.3774 107.887 50.9631L111.588 53.8978L109.295 57.1322L106.242 57.8292L105.925 62.7087L104.635 63.2454L103.028 65.2112L103.19 68.4455L105.925 68.808L104.797 71.8612H107.532L112.186 65.2112L112.672 62.3323L117.17 61.9768L118.292 59.8159L122.952 59.2791L123.438 56.219L126.809 56.0447C126.809 56.0447 129.22 54.6018 129.706 54.6018C130.633 54.8273 131.545 55.1279 132.434 55.501L134.846 57.6619H138.222L141.113 55.6823L144.808 56.0447C145.34 56.4315 145.946 56.6705 146.577 56.7418C147.381 56.7418 149.792 55.4801 149.792 55.4801L154.446 58.7145L156.377 60.3387V63.0293L158.788 63.3918L159.592 61.7746L161.679 62.8551L161.517 64.291L156.701 65.727L159.43 69.6863L165.212 73.2832L167.623 76.8731L171.162 77.2355L171.965 75.4371L173.249 75.0746L169.068 71.4848L166.502 71.1223L168.589 70.4252L166.664 67.3651L169.392 67.1908L172.925 69.3448L173.729 73.6596L175.498 75.9948L176.943 81.2088L180.482 84.0877V90.0197L184.177 92.7174L184.015 94.6971L183.535 97.0322L184.495 100.267L184.819 101.884L187.547 102.428L188.837 99.3674L189.666 97.4086ZM191.753 79.2849V80.3166L190.912 83.2024L191.391 85.7188L193.161 86.4159V89.8315L191.236 88.9323L190.762 98.6703L188.837 102.623L190.12 107.662L192.208 109.816V119.527L194.301 127.076L196.55 132.827L200.245 133.907L201.528 130.31L202.051 129.85C202.4 126.726 202.574 123.581 202.575 120.433C202.595 105.834 198.826 91.5418 191.728 79.2919L191.753 79.2849ZM154.633 78.1626L144.041 72.9486L139.381 73.1298L138.26 76.5455L136.328 74.2033L132.796 75.1025L132.472 81.0415L135.363 83.3767L137.456 79.9611L139.824 82.6378L144.808 87.5173L145.773 92.7313L149.948 98.6634L156.701 97.4086L156.539 94.711L155.094 91.6509L154.776 84.4641L156.384 81.404L154.633 78.1626ZM163.312 82.115L160.901 81.4179L158.813 83.3976L159.935 88.6117H162.028L163.312 82.115ZM178.264 85.5306L172.8 82.2962L171.673 80.1423L170.389 80.6791L171.511 84.2759L172.476 88.9463L174.887 90.0267L175.367 89.3297L173.922 86.632L178.102 88.4304L178.264 85.5306ZM131.344 150.434L130.721 151.132L135.543 152.749L137.475 155.265L140.528 155.628L141.649 153.648L137.954 152.951L131.344 150.434ZM145.674 153.85L142.297 154.931L142.783 156.366H146.957L147.761 154.931L146.316 155.105L145.674 153.85Z" fill="#312E81" stroke="#0D062D" stroke-miterlimit="10"/>
</svg>
