<svg width="249" height="230" viewBox="0 0 249 230" fill="none" xmlns="http://www.w3.org/2000/svg">
<path d="M239.947 149.28C239.947 149.28 236.9 147.375 234.51 156.953C232.12 166.53 231.41 171.923 231.41 171.923C231.41 171.923 230.724 173.969 229.632 172.94C228.541 171.912 226.849 168.718 225.295 169.675C223.741 170.633 223.408 173.289 224.142 176.929C224.877 180.57 226.268 188.618 226.39 189.347C226.512 190.076 226.321 191.192 225.498 190.653C224.674 190.114 219.634 184.537 217.788 187.894C215.941 191.252 219.245 200.954 219.589 202.01C219.934 203.066 219.825 203.588 219.46 203.942C219.094 204.296 217.54 202.206 216.059 200.677C214.578 199.148 212.667 197.771 211.73 199.828C210.792 201.885 211.279 209.552 218.043 220.806L221.432 225.741L226.354 224.375C236.754 220.593 240.503 214.771 240.645 212.366C240.787 209.96 238.616 209.59 236.77 209.645C234.924 209.699 232.737 210.162 232.599 209.585C232.461 209.008 232.599 208.497 233.337 207.952C234.076 207.408 240.986 202.103 240.978 197.94C240.97 193.777 234.449 194.332 233.544 194.13C232.639 193.929 232.98 192.852 233.39 192.367C233.8 191.883 238.458 186.452 240.645 184.085C242.832 181.718 243.766 179.372 242.889 177.31C242.013 175.248 239.278 176.57 237.947 176.543C236.616 176.516 236.953 174.317 236.953 174.317C236.953 174.317 238.738 169.42 241.01 159.76C243.283 150.101 239.882 149.269 239.882 149.269" fill="#EBEBEB"/>
<path d="M220.791 227.107C222.471 220.033 225.612 207.544 228.269 196.797C230.927 186.05 233.325 176.325 235.034 169.273C235.882 165.747 236.568 162.895 237.063 160.914C237.302 159.935 237.468 159.167 237.614 158.64C237.677 158.389 237.725 158.193 237.761 158.052C237.793 157.916 237.813 157.851 237.813 157.851C237.813 157.851 237.813 157.921 237.773 158.057C237.732 158.193 237.7 158.395 237.643 158.651C237.521 159.195 237.347 159.951 237.119 160.936C236.665 162.922 235.995 165.785 235.151 169.316C233.472 176.391 231.094 186.12 228.436 196.862C225.778 207.604 222.617 220.098 220.909 227.151" fill="#312E81"/>
<path d="M227.53 174.263C227.598 174.397 227.656 174.539 227.705 174.688C227.81 174.965 227.952 175.379 228.111 175.885C228.455 176.902 228.922 178.323 229.372 179.901C229.823 181.479 230.249 182.867 230.59 183.944C230.732 184.428 230.858 184.842 230.955 185.168C231.01 185.313 231.051 185.467 231.077 185.626C231.009 185.491 230.951 185.349 230.902 185.201C230.797 184.924 230.655 184.515 230.496 184.004C230.16 182.981 229.726 181.555 229.255 179.977C228.784 178.399 228.362 177.017 228.037 175.945L227.664 174.72C227.605 174.576 227.56 174.423 227.53 174.263Z" fill="#312E81"/>
<path d="M231.551 185.647C231.531 185.593 233.674 184.232 236.335 182.6C238.997 180.967 241.164 179.694 241.205 179.748C241.245 179.803 239.079 181.163 236.417 182.79C233.755 184.417 231.551 185.707 231.551 185.647Z" fill="#312E81"/>
<path d="M226.902 201.907C227.02 201.855 227.143 201.822 227.267 201.809L228.261 201.613C229.097 201.45 230.258 201.216 231.528 200.889C232.798 200.563 233.938 200.231 234.774 199.969L235.752 199.67C235.87 199.621 235.993 199.591 236.117 199.583C236.005 199.652 235.888 199.706 235.768 199.746C235.541 199.839 235.212 199.969 234.802 200.116C233.991 200.41 232.838 200.775 231.556 201.096C230.274 201.417 229.121 201.64 228.273 201.76C227.868 201.825 227.511 201.869 227.271 201.89C227.149 201.91 227.025 201.916 226.902 201.907Z" fill="#312E81"/>
<path d="M221.586 192.672C221.674 192.771 221.753 192.882 221.821 193.004L222.418 193.962C222.917 194.773 223.595 195.905 224.337 197.162C225.08 198.419 225.749 199.562 226.224 200.4L226.78 201.395C226.853 201.514 226.917 201.641 226.971 201.776C226.882 201.68 226.802 201.568 226.735 201.444L226.139 200.492C225.64 199.676 224.962 198.549 224.215 197.292C223.469 196.035 222.807 194.887 222.333 194.055L221.777 193.059C221.702 192.94 221.638 192.811 221.586 192.672Z" fill="#312E81"/>
<path d="M216.132 206.326C216.242 206.455 216.341 206.599 216.429 206.756C216.631 207.071 216.887 207.485 217.195 207.975C217.841 209.008 218.717 210.451 219.683 212.05C220.649 213.65 221.513 215.103 222.118 216.164L222.848 217.421C222.941 217.573 223.024 217.735 223.095 217.906C222.988 217.773 222.889 217.629 222.799 217.476L222.032 216.257C221.391 215.217 220.511 213.781 219.545 212.181C218.579 210.581 217.715 209.128 217.11 208.067C216.818 207.561 216.571 207.137 216.384 206.805C216.289 206.656 216.204 206.496 216.132 206.326Z" fill="#312E81"/>
<path d="M223.031 217.563C223.179 217.503 223.331 217.457 223.485 217.427L224.739 217.122C225.798 216.861 227.259 216.491 228.862 216.034C230.465 215.577 231.909 215.098 232.952 214.744L234.19 214.331C234.34 214.271 234.493 214.227 234.648 214.2C234.506 214.287 234.358 214.356 234.206 214.407C233.918 214.527 233.5 214.695 232.988 214.886C231.95 215.278 230.509 215.773 228.902 216.235C227.295 216.698 225.831 217.052 224.767 217.275C224.236 217.389 223.802 217.471 223.506 217.52C223.349 217.554 223.19 217.569 223.031 217.563Z" fill="#312E81"/>
<path d="M249 226.912C249 226.988 193.251 227.053 124.5 227.053C55.7495 227.053 0 227.004 0 226.912C0 226.819 55.7373 226.771 124.516 226.771C193.295 226.771 249 226.836 249 226.912Z" fill="#263238"/>
<path d="M120.889 33.8313L115.806 38.2598L122.59 46.3409L127.673 41.9125L120.889 33.8313Z" fill="#263238"/>
<path d="M125.281 33.2029L114.823 42.3558L107.489 33.6491C110.373 29.5242 113.813 26.4116 117.931 24.4961L125.281 33.2029Z" fill="#455A64"/>
<path d="M116.586 40.8212C116.527 40.8756 114.759 38.8948 112.633 36.4079C110.507 33.9211 108.83 31.8641 108.894 31.8097C108.958 31.7553 110.721 33.7361 112.847 36.2229C114.973 38.7098 116.645 40.7722 116.586 40.8212Z" fill="#263238"/>
<path d="M118.562 39.0801C118.139 38.6612 117.747 38.212 117.387 37.736C116.682 36.8926 115.726 35.7226 114.673 34.4166L112.003 31.0645L111.201 30.0469C111.009 29.7966 110.908 29.6823 110.908 29.6659C111.015 29.568 112.793 31.6304 114.898 34.237C115.966 35.543 116.885 36.7347 117.569 37.6109C117.942 38.0699 118.274 38.5615 118.562 39.0801Z" fill="#263238"/>
<path d="M121.232 36.7563C120.803 36.3388 120.405 35.8895 120.041 35.4122C119.331 34.5579 118.369 33.3662 117.312 32.0438L114.641 28.6373L113.84 27.5979C113.736 27.474 113.643 27.3411 113.562 27.2007C114.021 27.587 114.433 28.0272 114.791 28.5121C115.512 29.3556 116.484 30.5419 117.536 31.8642C118.588 33.1866 119.534 34.4001 120.207 35.2871C120.589 35.7466 120.932 36.2381 121.232 36.7563Z" fill="#263238"/>
<path d="M123.641 34.5798C123.583 34.6288 121.825 32.6317 119.715 30.1176C117.605 27.6035 115.95 25.5194 116.008 25.465C116.067 25.4105 117.819 27.4131 119.929 29.9326C122.039 32.4521 123.7 34.5309 123.641 34.5798Z" fill="#263238"/>
<path d="M210.39 39.3319L205.77 34.4062L198.224 41.7525L202.844 46.6781L210.39 39.3319Z" fill="#263238"/>
<path d="M210.611 44.1793L201.093 34.0305L209.228 26.1128C213.416 28.8337 216.652 32.1694 218.741 36.2616L210.611 44.1793Z" fill="#455A64"/>
<path d="M202.685 35.7335C202.631 35.6736 204.474 33.769 206.803 31.4781C209.132 29.1871 211.076 27.375 211.114 27.4294C211.151 27.4838 209.324 29.3884 206.995 31.6848C204.666 33.9813 202.738 35.7879 202.685 35.7335Z" fill="#263238"/>
<path d="M204.5 37.6649C204.88 37.2079 205.294 36.7822 205.739 36.3915C206.524 35.6297 207.625 34.5903 208.848 33.4476L211.994 30.5471L212.95 29.6765C213.18 29.4697 213.292 29.3663 213.308 29.3608C213.41 29.4642 211.481 31.3852 209.035 33.6598C207.812 34.7971 206.69 35.8365 205.867 36.5385C205.441 36.95 204.984 37.3266 204.5 37.6649Z" fill="#263238"/>
<path d="M206.915 40.2389C207.299 39.7776 207.719 39.3482 208.17 38.9546C208.966 38.1873 210.082 37.1425 211.327 35.9998L214.531 33.0939L215.509 32.2232C215.628 32.115 215.753 32.0133 215.883 31.9185C215.53 32.4068 215.121 32.8506 214.665 33.2408C213.874 34.019 212.758 35.0692 211.519 36.212C210.28 37.3547 209.137 38.3887 208.314 39.107C207.877 39.5203 207.409 39.8987 206.915 40.2389Z" fill="#263238"/>
<path d="M209.174 42.5845C209.121 42.5247 210.99 40.6364 213.346 38.3563C215.701 36.0762 217.656 34.2805 217.71 34.3403C217.763 34.4002 215.894 36.2885 213.538 38.5631C211.182 40.8377 209.227 42.6335 209.174 42.5845Z" fill="#263238"/>
<path d="M167.746 15.8164H159.83V28.4031H167.746V15.8164Z" fill="#263238"/>
<path d="M171.977 19.5823H155.685V6.01611C161.395 4.5795 166.843 4.49243 171.993 6.01611L171.977 19.5823Z" fill="#312E81"/>
<path d="M172.185 6.07012C171.994 6.19176 171.792 6.29383 171.581 6.37486C171.023 6.6251 170.451 6.83956 169.866 7.01698C168.991 7.29158 168.099 7.5061 167.196 7.6591C166.098 7.83652 164.99 7.9311 163.879 7.94207C162.768 7.94375 161.66 7.86007 160.562 7.69175C159.659 7.54908 158.766 7.34363 157.891 7.07684C157.306 6.90251 156.732 6.69356 156.171 6.45104C155.959 6.37611 155.756 6.27564 155.567 6.15175C155.567 6.10277 156.465 6.47825 157.944 6.88094C158.813 7.11473 159.694 7.29644 160.583 7.42511C161.67 7.57495 162.766 7.6513 163.863 7.65366C164.96 7.64094 166.056 7.55368 167.142 7.39246C168.028 7.26199 168.905 7.0803 169.77 6.84829C171.287 6.40751 172.163 6.02115 172.185 6.07012Z" fill="#263238"/>
<path d="M161.069 19.5441C160.994 19.5441 160.93 16.9375 160.93 13.7269C160.93 10.5163 160.994 7.90967 161.069 7.90967C161.143 7.90967 161.207 10.5108 161.207 13.7269C161.207 16.9429 161.149 19.5441 161.069 19.5441Z" fill="#263238"/>
<path d="M164.172 19.6204C164.097 19.6204 164.033 17.0029 164.033 13.776C164.033 10.549 164.097 7.93701 164.172 7.93701C164.247 7.93701 164.311 10.549 164.311 13.776C164.311 17.0029 164.252 19.6204 164.172 19.6204Z" fill="#263238"/>
<path d="M167.276 19.5716C167.201 19.5716 167.137 16.9542 167.137 13.7272C167.137 10.5003 167.201 7.88281 167.276 7.88281C167.35 7.88281 167.414 10.5003 167.414 13.7272C167.414 16.9542 167.356 19.5716 167.276 19.5716Z" fill="#263238"/>
<path d="M169.84 19.5712C169.759 19.5712 169.701 16.7415 169.701 13.2534C169.701 9.76524 169.759 6.93555 169.84 6.93555C169.92 6.93555 169.978 9.76524 169.978 13.2534C169.978 16.7415 169.936 19.5712 169.84 19.5712Z" fill="#263238"/>
<path d="M158.136 19.4897C158.062 19.4897 157.998 16.66 157.998 13.1718C157.998 9.6837 158.062 6.854 158.136 6.854C158.211 6.854 158.275 9.6837 158.275 13.1718C158.275 16.66 158.217 19.4897 158.136 19.4897Z" fill="#263238"/>
<path d="M203.559 124.679C226.052 101.764 226.052 64.611 203.559 41.6958C181.066 18.7806 144.597 18.7806 122.104 41.6958C99.6112 64.611 99.6112 101.764 122.104 124.679C144.597 147.594 181.066 147.594 203.559 124.679Z" fill="#312E81"/>
<path d="M162.832 132.003C189.547 132.003 211.204 109.939 211.204 82.7226C211.204 55.5059 189.547 33.4424 162.832 33.4424C136.116 33.4424 114.459 55.5059 114.459 82.7226C114.459 109.939 136.116 132.003 162.832 132.003Z" fill="#FAFAFA"/>
<path d="M211.204 82.7226C211.204 82.7226 211.204 82.4559 211.167 81.9281C211.13 81.4002 211.167 80.6112 211.065 79.5827C210.875 76.582 210.413 73.6055 209.687 70.6909C209.164 68.5873 208.502 66.522 207.706 64.5091C206.77 62.1092 205.644 59.7907 204.341 57.5764C201.15 52.1665 196.982 47.4226 192.055 43.5966C186.076 38.9622 179.116 35.8166 171.731 34.4109C165.471 33.2376 159.048 33.3134 152.817 34.634C150.629 35.1179 148.473 35.745 146.364 36.5114C137.39 39.842 129.584 45.8045 123.93 53.6474C122.455 55.6899 121.14 57.8479 119.999 60.1013C119.406 61.2278 118.898 62.3977 118.396 63.5731C117.894 64.7485 117.446 65.9675 117.066 67.2082C116.247 69.6911 115.632 72.2394 115.229 74.8266C114.823 77.4424 114.611 80.0854 114.593 82.7334C114.612 85.3831 114.823 88.0277 115.224 90.6457C115.633 93.2317 116.247 95.7795 117.061 98.2641C117.446 99.4994 117.926 100.697 118.391 101.894C118.856 103.091 119.417 104.245 119.993 105.371C121.135 107.626 122.451 109.784 123.93 111.825C129.582 119.671 137.389 125.635 146.364 128.966C148.473 129.733 150.629 130.36 152.817 130.844C154.95 131.298 157.111 131.605 159.285 131.763C163.446 132.084 167.63 131.85 171.731 131.067C179.116 129.661 186.076 126.516 192.055 121.881C196.983 118.057 201.152 113.313 204.341 107.901C205.643 105.686 206.769 103.368 207.706 100.969C209.603 96.1574 210.737 91.0693 211.065 85.8951C211.156 84.8666 211.14 84.0776 211.167 83.5497C211.194 83.0219 211.204 82.7498 211.204 82.7498C211.204 82.7498 211.204 83.0219 211.204 83.5497C211.204 84.0776 211.204 84.8666 211.13 85.8951C210.837 91.0838 209.724 96.1904 207.834 101.018C206.904 103.429 205.782 105.758 204.479 107.983C201.297 113.42 197.128 118.19 192.194 122.039C186.194 126.702 179.206 129.87 171.79 131.29C167.67 132.083 163.466 132.324 159.285 132.008C157.101 131.85 154.929 131.543 152.785 131.089C150.583 130.606 148.415 129.977 146.295 129.206C137.267 125.863 129.414 119.869 123.727 111.983C122.243 109.931 120.921 107.762 119.774 105.496C119.176 104.364 118.663 103.178 118.14 101.997C117.617 100.816 117.189 99.5919 116.805 98.3458C115.985 95.8509 115.367 93.292 114.956 90.6947C114.109 85.426 114.109 80.0518 114.956 74.7831C115.369 72.1969 115.987 69.649 116.805 67.1647C117.195 65.9185 117.675 64.7159 118.145 63.5133C118.615 62.3107 119.176 61.1516 119.774 60.0197C120.925 57.7552 122.248 55.5863 123.732 53.5332C129.417 45.6475 137.268 39.6558 146.295 36.3155C148.414 35.5448 150.58 34.9158 152.779 34.4327C154.925 33.9785 157.099 33.6712 159.285 33.513C163.465 33.1968 167.666 33.4383 171.784 34.2314C179.203 35.6454 186.192 38.8141 192.189 43.4823C197.122 47.3333 201.291 52.1053 204.474 57.5437C206.867 61.649 208.666 66.0843 209.816 70.7127C210.528 73.6375 210.973 76.6232 211.146 79.6317C211.226 80.6602 211.199 81.4492 211.22 81.977C211.242 82.5049 211.204 82.7226 211.204 82.7226Z" fill="#263238"/>
<path d="M204.105 80.9379C202.572 81.0032 201.322 80.9379 201.317 80.8019C201.312 80.6658 202.545 80.4808 204.078 80.3937C205.611 80.3067 206.861 80.3611 206.872 80.5243C206.883 80.6876 205.627 80.8726 204.105 80.9379Z" fill="#263238"/>
<path d="M203.074 92.2837C201.578 91.9246 200.403 91.5273 200.403 91.3913C200.403 91.2553 201.674 91.4185 203.175 91.7504C204.676 92.0824 205.846 92.4851 205.846 92.6429C205.846 92.8007 204.558 92.6375 203.074 92.2837Z" fill="#263238"/>
<path d="M199.085 102.922C197.733 102.171 196.697 101.458 196.761 101.339C196.825 101.219 197.979 101.714 199.336 102.427C200.692 103.14 201.734 103.875 201.659 104.016C201.584 104.157 200.431 103.679 199.085 102.922Z" fill="#263238"/>
<path d="M192.434 112.086C191.334 110.998 190.517 110.029 190.613 109.91C190.709 109.79 191.681 110.601 192.803 111.678C193.924 112.756 194.731 113.719 194.624 113.855C194.517 113.991 193.529 113.18 192.434 112.086Z" fill="#263238"/>
<path d="M183.62 119.106C182.851 117.751 182.317 116.597 182.435 116.526C182.552 116.456 183.289 117.49 184.08 118.828C184.87 120.167 185.405 121.321 185.271 121.408C185.137 121.495 184.395 120.45 183.62 119.106Z" fill="#263238"/>
<path d="M173.285 123.454C172.9 121.936 172.692 120.679 172.826 120.646C172.959 120.614 173.392 121.805 173.803 123.313C174.214 124.82 174.417 126.077 174.262 126.121C174.108 126.164 173.67 124.967 173.285 123.454Z" fill="#263238"/>
<path d="M162.18 124.803C162.18 123.236 162.335 121.968 162.469 121.968C162.602 121.968 162.714 123.242 162.714 124.803C162.714 126.365 162.581 127.639 162.426 127.639C162.271 127.639 162.153 126.376 162.18 124.803Z" fill="#263238"/>
<path d="M151.144 123.1C151.582 121.598 152.042 120.417 152.175 120.455C152.309 120.494 152.074 121.745 151.641 123.253C151.208 124.76 150.765 125.973 150.61 125.897C150.455 125.821 150.68 124.602 151.144 123.1Z" fill="#263238"/>
<path d="M140.927 118.415C141.744 117.092 142.497 116.075 142.615 116.146C142.732 116.216 142.177 117.365 141.381 118.703C140.585 120.042 139.826 121.054 139.693 120.972C139.559 120.891 140.109 119.743 140.927 118.415Z" fill="#263238"/>
<path d="M132.332 111.122C133.47 110.067 134.469 109.294 134.554 109.397C134.64 109.501 133.817 110.448 132.695 111.52C131.574 112.592 130.586 113.364 130.473 113.25C130.361 113.136 131.2 112.178 132.332 111.122Z" fill="#263238"/>
<path d="M125.965 101.752C127.338 101.05 128.502 100.577 128.561 100.697C128.62 100.816 127.573 101.508 126.211 102.237C124.848 102.966 123.689 103.439 123.615 103.292C123.54 103.146 124.597 102.46 125.965 101.752Z" fill="#263238"/>
<path d="M122.301 90.9888C123.812 90.6841 125.057 90.5481 125.084 90.6841C125.11 90.8202 123.914 91.1956 122.413 91.5221C120.912 91.8486 119.662 91.9847 119.63 91.8269C119.598 91.6691 120.805 91.2936 122.301 90.9888Z" fill="#263238"/>
<path d="M121.622 79.6371C123.155 79.7514 124.389 79.9582 124.384 80.0942C124.378 80.2302 123.123 80.2683 121.59 80.1758C120.057 80.0833 118.818 79.882 118.829 79.7187C118.839 79.5555 120.089 79.4956 121.622 79.6371Z" fill="#263238"/>
<path d="M123.946 68.4656C125.393 69.0098 126.526 69.5539 126.483 69.6682C126.44 69.7825 125.223 69.4886 123.77 68.9771C122.317 68.4656 121.184 67.9323 121.232 67.7799C121.281 67.6276 122.504 67.9323 123.946 68.4656Z" fill="#263238"/>
<path d="M129.132 58.3707C130.382 59.2794 131.333 60.1066 131.269 60.2208C131.205 60.3351 130.104 59.7039 128.839 58.8169C127.573 57.9299 126.622 57.1027 126.702 56.9667C126.782 56.8306 127.877 57.4619 129.132 58.3707Z" fill="#263238"/>
<path d="M136.776 50.0562C137.743 51.2697 138.442 52.3254 138.341 52.4179C138.239 52.5104 137.347 51.6016 136.365 50.399C135.382 49.1964 134.677 48.1461 134.8 48.0427C134.922 47.9393 135.809 48.8427 136.776 50.0562Z" fill="#263238"/>
<path d="M146.337 44.1243C146.946 45.5609 147.347 46.769 147.219 46.8452C147.09 46.9213 146.481 45.7895 145.851 44.3637C145.221 42.938 144.82 41.7299 144.964 41.6429C145.109 41.5558 145.712 42.6931 146.337 44.1243Z" fill="#263238"/>
<path d="M157.096 41.0386C157.304 42.5895 157.368 43.8629 157.229 43.8846C157.09 43.9064 156.797 42.6657 156.567 41.1202C156.337 39.5748 156.273 38.296 156.428 38.2742C156.583 38.2524 156.887 39.4877 157.096 41.0386Z" fill="#263238"/>
<path d="M168.28 41.0011C168.077 42.552 167.805 43.7981 167.671 43.7818C167.538 43.7655 167.57 42.4867 167.751 40.9358C167.933 39.3849 168.205 38.1333 168.36 38.1551C168.515 38.1768 168.483 39.4448 168.28 41.0011Z" fill="#263238"/>
<path d="M179.064 44.0101C178.46 45.4522 177.867 46.5732 177.739 46.5188C177.611 46.4644 177.99 45.2509 178.573 43.7979C179.155 42.345 179.753 41.2294 179.897 41.2947C180.041 41.36 179.673 42.5735 179.064 44.0101Z" fill="#263238"/>
<path d="M188.658 49.8713C187.696 51.0957 186.831 52.0153 186.724 51.9283C186.617 51.8412 187.296 50.7692 188.241 49.5339C189.186 48.2986 190.046 47.3572 190.175 47.4824C190.303 47.6075 189.603 48.6523 188.658 49.8713Z" fill="#263238"/>
<path d="M196.365 58.1316C195.116 59.0459 194.042 59.6989 193.962 59.5846C193.882 59.4703 194.816 58.6268 196.05 57.6909C197.284 56.7549 198.358 56.1073 198.454 56.2379C198.55 56.3685 197.615 57.2174 196.365 58.1316Z" fill="#263238"/>
<path d="M201.616 68.2095C200.173 68.7537 198.945 69.0747 198.913 68.9496C198.881 68.8244 199.981 68.2585 201.429 67.698C202.876 67.1375 204.067 66.8055 204.126 66.9579C204.185 67.1103 203.058 67.6653 201.616 68.2095Z" fill="#263238"/>
<path d="M204.025 79.3216C202.492 79.4468 201.242 79.4359 201.232 79.3216C201.221 79.2073 202.449 78.957 203.977 78.7774C205.505 78.5979 206.76 78.6414 206.771 78.8047C206.781 78.9679 205.542 79.1965 204.025 79.3216Z" fill="#263238"/>
<path d="M144.046 29.4102L143.88 29.4863L143.389 29.6877C142.961 29.8727 142.32 30.0958 141.503 30.4604C139.2 31.4411 136.964 32.5773 134.81 33.8615C133.443 34.6669 131.995 35.6301 130.473 36.713C128.951 37.7959 127.396 39.0583 125.842 40.4786C119.018 46.6067 113.805 54.3753 110.677 63.0781C109.946 65.0698 109.396 67.0179 108.92 68.8409C108.445 70.6639 108.124 72.4052 107.884 73.9942C107.494 76.5048 107.267 79.0389 107.206 81.58C107.163 82.4833 107.206 83.1798 107.206 83.6533C107.206 83.8818 107.206 84.056 107.206 84.1974C107.21 84.259 107.21 84.3209 107.206 84.3825C107.199 84.3228 107.199 84.2625 107.206 84.2029C107.206 84.0668 107.206 83.8873 107.206 83.6587C107.206 83.1853 107.147 82.4887 107.173 81.5854C107.193 79.0348 107.391 76.4888 107.766 73.967C107.991 72.3671 108.338 70.6312 108.771 68.7865C109.253 66.8256 109.835 64.8912 110.512 62.991C113.624 54.2299 118.867 46.4167 125.751 40.2827C127.316 38.8624 128.908 37.638 130.414 36.5225C131.92 35.4069 133.405 34.4818 134.789 33.6874C136.958 32.4164 139.212 31.3036 141.535 30.357C142.352 30.0087 143.009 29.8128 143.447 29.6333L143.949 29.4591C143.98 29.4404 144.012 29.4241 144.046 29.4102Z" fill="white"/>
<path d="M160.123 26.2322C159.574 26.3484 159.017 26.423 158.457 26.4553C157.421 26.5642 156 26.722 154.429 26.9288C152.859 27.1355 151.444 27.3532 150.418 27.5165C149.869 27.6316 149.312 27.7043 148.751 27.7341C149.283 27.5455 149.83 27.4071 150.386 27.3206C151.406 27.1083 152.822 26.858 154.392 26.6512C155.962 26.4444 157.399 26.3138 158.441 26.254C159 26.1931 159.563 26.1858 160.123 26.2322Z" fill="white"/>
<g opacity="0.4">
<path d="M124.171 112.347C124.171 112.347 149.238 152.649 188.124 132.008C228.719 110.459 206.285 61.0645 206.285 61.0645C206.285 61.0645 225.386 100.43 185.817 126.093C175.962 132.487 165.231 132.493 157.048 131.654C136.136 129.521 124.171 112.347 124.171 112.347Z" fill="black"/>
</g>
<path d="M176.313 56.5312C176.554 63.759 176.34 70.9949 175.672 78.1948C175.427 80.8013 175.138 83.4351 174.15 85.8567C173.162 88.2783 171.479 90.4985 169.108 91.5215C166.736 92.5446 163.702 92.1201 162.052 90.1176L176.313 56.5312Z" fill="#E0E0E0"/>
<path d="M161.779 78.8372L179.358 48.6792L168.749 82.7281L163.328 84.3769L161.779 78.8372Z" fill="#312E81"/>
<g opacity="0.4">
<path d="M179.358 48.6792L166.32 79.4957L168.75 82.7281L179.358 48.6792Z" fill="black"/>
</g>
<path d="M163.328 90.1398C166.452 90.1398 168.985 87.5597 168.985 84.3771C168.985 81.1944 166.452 78.6143 163.328 78.6143C160.204 78.6143 157.671 81.1944 157.671 84.3771C157.671 87.5597 160.204 90.1398 163.328 90.1398Z" fill="#FAFAFA"/>
<path d="M168.985 84.3771C168.934 83.9087 168.857 83.4436 168.755 82.984C168.428 81.7428 167.702 80.649 166.693 79.8768C165.953 79.3089 165.084 78.9392 164.167 78.8013C163.25 78.6635 162.313 78.762 161.443 79.0877C160.942 79.2683 160.472 79.5272 160.049 79.855C159.598 80.1877 159.203 80.5919 158.879 81.0522C158.185 82.0164 157.81 83.1812 157.81 84.3771C157.81 85.573 158.185 86.7377 158.879 87.702C159.527 88.5985 160.418 89.283 161.443 89.6719C162.174 89.945 162.953 90.0594 163.73 90.0078C164.506 89.9563 165.264 89.7399 165.954 89.3725C166.644 89.0052 167.251 88.495 167.736 87.8746C168.222 87.2542 168.574 86.5374 168.771 85.7701C168.874 85.3108 168.951 84.8456 169.001 84.3771C169.034 84.8541 168.993 85.3335 168.878 85.7974C168.586 87.0949 167.861 88.2489 166.827 89.0624C166.118 89.6232 165.289 90.0054 164.407 90.1779C163.393 90.3754 162.346 90.2927 161.373 89.9385C160.845 89.7528 160.349 89.4828 159.904 89.1386C159.432 88.7907 159.017 88.3682 158.676 87.887C157.941 86.8783 157.543 85.6553 157.543 84.3988C157.543 83.1424 157.941 81.9193 158.676 80.9107C159.019 80.4307 159.433 80.0084 159.904 79.6591C160.352 79.3197 160.847 79.0518 161.373 78.8646C162.345 78.5077 163.393 78.425 164.407 78.6252C165.484 78.8361 166.479 79.359 167.272 80.1311C168.065 80.9032 168.623 81.8918 168.878 82.9785C168.985 83.4362 169.021 83.9081 168.985 84.3771Z" fill="#263238"/>
<path d="M167.472 85.2406C167.933 82.9194 166.459 80.6572 164.181 80.1878C161.902 79.7185 159.682 81.2198 159.221 83.5411C158.76 85.8624 160.234 88.1246 162.512 88.5939C164.791 89.0632 167.011 87.5619 167.472 85.2406Z" fill="#455A64"/>
<path d="M167.095 226.4H192.362L180.582 112.483L167.095 226.4Z" fill="#E0E0E0"/>
<path d="M42.7702 112.483L26.3203 227.745L166.693 229.796L180.582 112.483H42.7702Z" fill="#FAFAFA"/>
<path d="M174.33 165.285H35.2334L38.2596 144.062H176.842L174.33 165.285Z" fill="#EBEBEB"/>
<path d="M174.34 165.301H35.2192L38.2503 144.078H176.857L174.34 165.301ZM35.2483 165.274H174.321L176.828 144.051H38.2745L35.2483 165.274Z" fill="#263238"/>
<path d="M42.7699 112.483L38.2598 144.062H176.843L180.582 112.483H42.7699Z" fill="#312E81"/>
<path d="M42.7895 112.483L180.601 112.353H180.732V112.499C176.673 146.842 172.066 185.789 167.197 226.923V227.048H165.509L26.4366 227.004H26.3008V226.868L42.7895 112.483C42.6537 113.43 36.388 157.622 26.5578 226.923L26.456 226.787H165.475H167.051L166.93 226.906C171.804 185.772 176.421 146.831 180.509 112.489L180.621 112.63L42.7895 112.483Z" fill="#263238"/>
<path d="M176.843 144.062C176.843 144.138 145.805 144.203 107.556 144.203C69.307 144.203 38.2598 144.138 38.2598 144.062C38.2598 143.986 69.2973 143.92 107.556 143.92C145.815 143.92 176.843 143.98 176.843 144.062Z" fill="#263238"/>
<path d="M174.331 165.285C174.331 165.366 143.128 165.426 104.652 165.426C66.1746 165.426 34.9673 165.366 34.9673 165.285C34.9673 165.203 66.1601 165.143 104.652 165.143C143.143 165.143 174.331 165.208 174.331 165.285Z" fill="#263238"/>
<path d="M171.498 184.815C171.498 184.896 140.301 184.956 101.824 184.956C63.3468 184.956 32.1201 184.896 32.1201 184.815C32.1201 184.733 63.3129 184.673 101.804 184.673C140.296 184.673 171.498 184.739 171.498 184.815Z" fill="#263238"/>
<path d="M168.672 204.345C168.672 204.421 137.469 204.486 98.9923 204.486C60.5154 204.486 29.3081 204.421 29.3081 204.345C29.3081 204.268 60.5009 204.203 98.9923 204.203C137.484 204.203 168.672 204.268 168.672 204.345Z" fill="#263238"/>
<path d="M46.0248 227.081C45.9569 227.081 48.5029 208.47 51.7182 185.55C54.9335 162.629 57.5863 144.046 57.6542 144.062C57.7221 144.078 55.176 162.662 51.9656 185.593C48.7551 208.525 46.0975 227.092 46.0248 227.081Z" fill="#263238"/>
<path d="M67.4742 227.081C67.4014 227.081 69.9523 208.47 73.1628 185.55C76.3732 162.629 79.0308 144.046 79.1036 144.062C79.1763 144.078 76.6254 162.662 73.4101 185.593C70.1948 208.525 67.5227 227.092 67.4742 227.081Z" fill="#263238"/>
<path d="M87.4061 226.248C87.3382 226.248 89.86 207.828 93.0365 185.136C96.213 162.444 98.8561 144.046 98.9191 144.062C98.9822 144.078 96.4652 162.477 93.2887 185.18C90.1122 207.883 87.4692 226.259 87.4061 226.248Z" fill="#263238"/>
<path d="M107.119 226.907C107.052 226.907 109.593 208.334 112.798 185.463C116.004 162.591 118.657 144.046 118.725 144.062C118.793 144.078 116.251 162.624 113.046 185.506C109.84 208.389 107.187 226.918 107.119 226.907Z" fill="#263238"/>
<path d="M126.931 226.907C126.863 226.907 129.404 208.334 132.609 185.463C135.815 162.591 138.468 144.046 138.536 144.062C138.604 144.078 136.067 162.624 132.862 185.506C129.656 208.389 127.003 226.918 126.931 226.907Z" fill="#263238"/>
<path d="M146.727 227.005C146.659 227.005 149.205 208.41 152.416 185.501C155.626 162.591 158.279 144.024 158.351 144.04C158.424 144.056 155.873 162.629 152.663 185.544C149.452 208.459 146.795 227.037 146.727 227.005Z" fill="#263238"/>
<path d="M72.3728 166.857C72.333 166.93 72.284 166.996 72.2273 167.053L71.7812 167.597C71.3883 168.049 70.8112 168.685 70.0838 169.48C68.6289 171.047 66.6066 173.18 64.303 175.466C61.9995 177.751 59.8656 179.743 58.2992 181.158C57.5136 181.865 56.8734 182.431 56.4273 182.79L55.9083 183.226C55.8506 183.282 55.7851 183.328 55.7144 183.362C55.7144 183.362 55.7677 183.291 55.8744 183.182L56.3594 182.703L58.178 180.978C59.7202 179.525 61.8346 177.506 64.1333 175.232C66.432 172.957 68.498 170.846 69.9529 169.317L71.7036 167.505L72.1885 167.02C72.2436 166.957 72.3055 166.902 72.3728 166.857Z" fill="#263238"/>
<path d="M71.2518 183.579C71.0458 183.377 70.8529 183.159 70.6747 182.926L69.1568 181.109C67.8474 179.547 66.0918 177.447 64.1568 175.123L59.1035 169.191L57.571 167.39C57.3776 167.176 57.1977 166.947 57.0327 166.705C57.2524 166.887 57.4569 167.091 57.6438 167.314C58.022 167.717 58.5652 168.31 59.2296 169.05C60.5584 170.53 62.3721 172.603 64.3362 174.932C66.3003 177.262 68.0462 179.406 69.2877 180.978C69.9085 181.762 70.408 182.404 70.7426 182.85C70.932 183.075 71.1024 183.319 71.2518 183.579Z" fill="#263238"/>
<path d="M76.4309 171.858C76.4309 171.858 76.4793 171.717 76.5812 171.439C76.742 171.036 76.9369 170.652 77.1631 170.291C78.055 168.893 79.3127 167.841 80.7616 167.282C81.7994 166.86 82.9064 166.697 84.006 166.803C85.3153 166.945 86.5771 167.428 87.6917 168.212C88.9785 169.102 90.0654 170.312 90.8682 171.749C91.7968 173.353 92.2593 175.241 92.1921 177.153C92.1364 178.184 91.8513 179.183 91.3628 180.059C90.851 180.967 90.1692 181.739 89.3648 182.322C87.6518 183.555 85.635 184.147 83.6034 184.015C82.5394 183.951 81.4915 183.695 80.4997 183.258C79.4678 182.806 78.5396 182.1 77.7839 181.191C77.4085 180.712 77.092 180.18 76.8431 179.607C76.606 179.022 76.4427 178.403 76.3581 177.768C76.1971 176.466 76.2982 175.14 76.6539 173.888C77.3955 171.276 79.0033 169.084 81.1447 167.766C82.2548 167.082 83.4899 166.692 84.7552 166.627C86.0204 166.562 87.2821 166.823 88.4434 167.39C89.6465 167.959 90.7 168.864 91.5035 170.019C92.3081 171.205 92.8109 172.613 92.9584 174.095C93.1262 175.597 92.9092 177.122 92.3328 178.491C92.0366 179.179 91.6473 179.81 91.1786 180.363C90.7016 180.909 90.1636 181.383 89.5782 181.773C88.3972 182.503 87.0948 182.952 85.7524 183.092C84.4099 183.233 83.0561 183.061 81.7751 182.589C80.5139 182.155 79.3544 181.411 78.3804 180.412C77.4145 179.413 76.7544 178.097 76.4939 176.652C76.2206 175.232 76.4008 173.749 77.0031 172.462C77.3085 171.828 77.728 171.272 78.2349 170.83C78.734 170.407 79.2908 170.078 79.8838 169.855C81.0484 169.436 82.27 169.252 83.4919 169.311C84.6816 169.321 85.8651 169.504 87.0127 169.855C88.1474 170.19 89.1957 170.82 90.0728 171.695C90.9131 172.575 91.4864 173.728 91.712 174.992C91.9347 176.214 91.8695 177.481 91.5229 178.666C91.1797 179.808 90.5996 180.844 89.8304 181.686C88.3695 183.289 86.4349 184.234 84.3939 184.341C83.4387 184.398 82.4828 184.243 81.5811 183.884C80.7155 183.536 79.9371 182.959 79.3115 182.203C78.7194 181.481 78.2713 180.626 77.9973 179.694C77.7271 178.82 77.607 177.897 77.6433 176.973C77.7124 175.262 78.3209 173.635 79.36 172.38C80.2485 171.29 81.3726 170.474 82.6238 170.013C83.674 169.629 84.7868 169.51 85.8828 169.665C87.3973 169.876 88.8365 170.527 90.0583 171.553C90.3756 171.815 90.6754 172.102 90.9555 172.413C91.1446 172.625 91.2368 172.74 91.2368 172.74C91.2368 172.74 91.1301 172.636 90.9409 172.435C90.6528 172.135 90.3483 171.855 90.0292 171.597C88.8052 170.601 87.3744 169.973 85.8731 169.774C84.6892 169.62 83.4897 169.787 82.3751 170.26C81.2605 170.734 80.2632 171.5 79.4667 172.495C78.4544 173.722 77.8647 175.313 77.8033 176.984C77.7704 177.89 77.8905 178.795 78.1573 179.651C78.4276 180.554 78.8657 181.383 79.4425 182.083C80.0503 182.816 80.8051 183.376 81.6442 183.716C82.5238 184.059 83.4544 184.206 84.3842 184.151C86.3762 184.041 88.2626 183.113 89.6849 181.544C90.4279 180.729 90.988 179.727 91.3192 178.622C91.6511 177.477 91.7113 176.254 91.4938 175.074C91.2754 173.86 90.7244 172.753 89.9177 171.907C89.0644 171.065 88.0483 170.458 86.9497 170.133C85.821 169.786 84.6573 169.603 83.4871 169.589C82.2941 169.538 81.1025 169.722 79.9662 170.133C78.8071 170.531 77.826 171.408 77.2213 172.587C76.6472 173.818 76.4756 175.235 76.7364 176.592C76.9877 177.98 77.6244 179.243 78.555 180.2C79.4985 181.179 80.6253 181.908 81.8527 182.333C83.0993 182.794 84.4171 182.961 85.7238 182.824C87.0304 182.687 88.298 182.25 89.4472 181.539C90.0148 181.165 90.5351 180.707 90.9943 180.178C91.4445 179.647 91.8191 179.042 92.1048 178.383C92.6629 177.061 92.8733 175.589 92.711 174.138C92.5724 172.708 92.0914 171.347 91.3192 170.198C90.5422 169.082 89.5239 168.207 88.3609 167.657C87.2342 167.105 86.0094 166.85 84.7811 166.912C83.5527 166.974 82.3534 167.352 81.2756 168.016C79.1944 169.302 77.6322 171.435 76.911 173.975C76.5652 175.19 76.4642 176.476 76.6151 177.741C76.7024 178.354 76.8656 178.951 77.1001 179.515C77.3401 180.064 77.6434 180.577 78.0021 181.038C78.7335 181.918 79.6318 182.603 80.6306 183.041C81.6004 183.471 82.6253 183.725 83.6665 183.792C85.6544 183.928 87.6299 183.357 89.3115 182.159C90.0886 181.625 90.7431 180.894 91.2224 180.025C91.7017 179.155 91.9923 178.171 92.0709 177.153C92.1386 175.283 91.6898 173.436 90.7857 171.863C90.0009 170.445 88.9356 169.247 87.6723 168.364C86.5779 167.587 85.3379 167.105 84.0496 166.955C82.9664 166.84 81.8739 166.992 80.8489 167.401C79.4129 167.946 78.1604 168.971 77.2601 170.34C77.028 170.695 76.8266 171.074 76.6588 171.472C76.4939 171.722 76.4309 171.858 76.4309 171.858Z" fill="#312E81"/>
<path d="M89.5689 186.883C89.6126 186.942 85.7668 190.632 80.9754 195.127C76.184 199.622 72.2461 203.208 72.217 203.148C72.1879 203.088 76.0191 199.399 80.8105 194.909C85.6019 190.42 89.5253 186.823 89.5689 186.883Z" fill="#263238"/>
<path d="M90.4085 202.664C90.1803 202.513 89.9644 202.34 89.7635 202.147L88.0564 200.656C86.6258 199.382 84.6617 197.608 82.4988 195.638C80.3358 193.669 78.3911 191.873 76.9896 190.561L75.3359 188.994C75.1263 188.815 74.9315 188.614 74.7539 188.396C74.9811 188.548 75.1968 188.721 75.3989 188.912L77.1011 190.404C78.5318 191.677 80.4959 193.451 82.6588 195.421C84.8217 197.391 86.7664 199.186 88.1728 200.498L89.8217 202.06C90.03 202.245 90.2261 202.447 90.4085 202.664Z" fill="#263238"/>
<path d="M130.054 187.095C130.093 187.155 126.417 190.316 121.834 194.169C117.251 198.022 113.507 201.064 113.464 200.998C113.42 200.933 117.101 197.777 121.684 193.924C126.267 190.071 130.011 187.029 130.054 187.095Z" fill="#263238"/>
<path d="M131.479 200.481C131.445 200.547 127.537 197.831 122.75 194.408C117.963 190.986 114.127 188.167 114.161 188.096C114.195 188.025 118.104 190.752 122.891 194.169C127.677 197.586 131.538 200.416 131.479 200.481Z" fill="#263238"/>
<path d="M90.1998 226.912C90.1464 226.857 93.9679 222.362 98.7303 216.883C103.493 211.403 107.397 206.99 107.46 207.044C107.523 207.098 103.691 211.593 98.9291 217.078C94.1668 222.564 90.2483 226.966 90.1998 226.912Z" fill="#312E81"/>
<path d="M106.353 226.906C106.353 226.906 106.29 226.847 106.193 226.716L105.786 226.172C105.408 225.628 104.903 224.926 104.287 224.066C103.022 222.292 101.227 219.881 99.1468 217.318C97.0663 214.755 95.0925 212.529 93.6376 210.951L91.9112 209.047L91.4262 208.535C91.3702 208.478 91.3198 208.414 91.2759 208.345C91.2759 208.345 91.3486 208.388 91.4602 208.492L91.9451 208.965C92.3767 209.379 92.9878 209.994 93.7346 210.766C95.2186 212.312 97.2167 214.521 99.3069 217.09C101.397 219.658 103.187 222.096 104.399 223.903C105.02 224.806 105.51 225.535 105.854 226.079L106.227 226.678C106.278 226.748 106.32 226.825 106.353 226.906Z" fill="#312E81"/>
<path d="M66.6554 204.019C66.6554 204.019 66.8105 217.389 63.8038 225.394L45.4771 221.89C45.4771 221.89 50.9959 209.221 49.4925 202.18L66.6554 204.019Z" fill="#EBEBEB"/>
<path d="M66.6498 203.517C66.6498 203.517 64.3511 219.93 62.9447 224.827L44.7295 220.768C44.7295 220.768 48.4783 204.9 48.4298 200.481L66.6498 203.517Z" fill="#312E81"/>
<path d="M50.2773 207.839C50.2773 207.915 52.9834 208.622 56.3539 209.417C59.7244 210.211 62.4644 210.794 62.479 210.723C62.4935 210.652 59.7729 209.939 56.4024 209.145C53.0319 208.35 50.2919 207.762 50.2773 207.839Z" fill="white"/>
<path d="M49.812 211.316C49.812 211.392 52.5181 212.094 55.8886 212.894C59.2591 213.694 61.9991 214.271 62.0137 214.2C62.0282 214.129 59.3076 213.417 55.9371 212.622C52.5666 211.828 49.8266 211.223 49.812 211.316Z" fill="white"/>
<path d="M52.4893 215.25C52.7999 215.402 53.1255 215.511 53.4592 215.577C54.0848 215.745 54.9529 215.968 55.9082 216.197C56.8636 216.425 57.7414 216.61 58.3767 216.741C58.716 216.837 59.0647 216.884 59.4145 216.883C59.092 216.73 58.7553 216.619 58.4106 216.551C57.7899 216.376 56.9218 216.153 55.9616 215.93C55.0014 215.707 54.1284 215.511 53.498 215.386C53.1679 215.295 52.8292 215.25 52.4893 215.25Z" fill="white"/>
<path d="M153.361 166.476C153.361 166.476 155.237 179.504 153.336 187.813L134.985 187.372C134.985 187.372 138.739 174.105 136.358 167.472L153.361 166.476Z" fill="#EBEBEB"/>
<path d="M153.278 165.986C153.278 165.986 153.157 182.371 152.415 187.372L134.098 186.398C134.098 186.398 135.703 170.291 135.068 165.986H153.278Z" fill="#455A64"/>
<path d="M137.667 173.278C137.667 173.354 140.422 173.419 143.822 173.425C147.221 173.43 149.981 173.376 149.981 173.3C149.981 173.223 147.226 173.158 143.822 173.153C140.417 173.147 137.667 173.202 137.667 173.278Z" fill="white"/>
<path d="M137.843 176.744C137.843 176.82 140.597 176.886 143.997 176.891C147.397 176.897 150.156 176.842 150.156 176.766C150.156 176.69 147.401 176.624 143.997 176.619C140.593 176.614 137.843 176.668 137.843 176.744Z" fill="white"/>
<path d="M141.126 179.939C141.464 180.02 141.809 180.055 142.154 180.042C142.789 180.042 143.667 180.081 144.637 180.086C145.607 180.091 146.48 180.086 147.115 180.048C147.46 180.063 147.805 180.032 148.143 179.955C147.806 179.875 147.46 179.842 147.115 179.857C146.48 179.83 145.607 179.814 144.637 179.808C143.667 179.803 142.789 179.808 142.154 179.847C141.809 179.831 141.464 179.862 141.126 179.939Z" fill="white"/>
<path d="M157.242 128.912C153.818 128.912 150.37 126.501 148.556 122.708C146.793 118.931 146.246 114.587 147.009 110.41C148.013 104.968 151.223 100.506 155.19 99.0803C158.561 97.8668 164.584 98.5361 167.426 103.874C168.78 106.485 169.452 109.47 169.366 112.489C169.353 112.703 169.303 112.913 169.218 113.105C169.133 113.298 169.015 113.47 168.871 113.611C168.727 113.753 168.559 113.861 168.378 113.93C168.197 113.999 168.005 114.027 167.814 114.012C167.428 113.984 167.068 113.784 166.813 113.457C166.559 113.131 166.43 112.704 166.456 112.271C166.482 109.914 165.943 107.593 164.894 105.551C162.702 101.442 157.896 101.524 156.044 102.188C152.649 103.406 150.476 107.526 149.822 111.068C149.193 114.498 149.64 118.066 151.087 121.168C152.518 124.161 155.413 126.022 157.979 125.581C158.357 125.522 158.742 125.633 159.048 125.889C159.355 126.145 159.559 126.527 159.617 126.951C159.675 127.375 159.582 127.808 159.358 128.155C159.134 128.503 158.797 128.737 158.42 128.808C158.03 128.876 157.636 128.911 157.242 128.912Z" fill="#263238"/>
<path d="M61.6136 128.213C58.1898 128.213 54.7417 125.802 52.928 122.009C51.1648 118.232 50.6183 113.888 51.3809 109.711C52.3848 104.269 55.5952 99.8068 59.5622 98.3811C62.9327 97.1676 68.956 97.8369 71.7978 103.175C73.1516 105.786 73.8239 108.771 73.7377 111.789C73.725 112.004 73.6747 112.213 73.5898 112.406C73.5049 112.599 73.3871 112.77 73.243 112.912C73.0989 113.053 72.9313 113.162 72.75 113.231C72.5686 113.299 72.3769 113.327 72.1858 113.313C71.7999 113.284 71.4401 113.085 71.1854 112.758C70.9308 112.431 70.8022 112.005 70.8279 111.572C70.8541 109.215 70.3148 106.894 69.2663 104.851C67.0743 100.743 62.2683 100.824 60.4158 101.488C57.021 102.707 54.8484 106.827 54.1937 110.369C53.5651 113.799 54.0122 117.367 55.4595 120.469C56.8901 123.462 59.7853 125.323 62.3508 124.882C62.7295 124.823 63.1137 124.934 63.4204 125.19C63.727 125.446 63.9314 125.828 63.9894 126.252C64.0474 126.676 63.9543 127.108 63.7302 127.456C63.5062 127.804 63.1692 128.038 62.7921 128.109C62.4022 128.177 62.0082 128.212 61.6136 128.213Z" fill="#263238"/>
<path d="M156.043 112.57L154.705 120.793H174.399L176.15 112.652L156.043 112.57Z" fill="#312E81"/>
<path d="M68.3038 127.611C68.3047 128.307 68.1217 128.987 67.7778 129.566C67.434 130.145 66.9447 130.596 66.3721 130.863C65.7994 131.13 65.1691 131.2 64.5609 131.065C63.9528 130.929 63.3941 130.594 62.9557 130.102C62.5172 129.61 62.2188 128.983 62.0981 128.301C61.9773 127.618 62.0398 126.911 62.2775 126.269C62.5152 125.626 62.9175 125.077 63.4334 124.691C63.9494 124.305 64.5558 124.1 65.1758 124.101C66.005 124.103 66.7999 124.473 67.3862 125.131C67.9725 125.789 68.3025 126.681 68.3038 127.611Z" fill="#263238"/>
<path d="M162.149 127.611C162.149 128.307 161.966 128.987 161.623 129.566C161.279 130.145 160.789 130.596 160.217 130.863C159.644 131.13 159.014 131.2 158.406 131.065C157.797 130.929 157.239 130.594 156.8 130.102C156.362 129.61 156.064 128.983 155.943 128.301C155.822 127.618 155.885 126.911 156.122 126.269C156.36 125.626 156.762 125.077 157.278 124.691C157.794 124.305 158.4 124.1 159.021 124.101C159.85 124.103 160.645 124.473 161.231 125.131C161.817 125.789 162.147 126.681 162.149 127.611Z" fill="#263238"/>
</svg>
